<svg width="48" height="49" viewBox="0 0 48 49" fill="none" xmlns="http://www.w3.org/2000/svg">
<path d="M47.8897 26.2817C47.5544 29.7671 46.4606 33.1369 44.6848 36.1549C42.9091 39.1727 40.4944 41.7654 37.6105 43.7511C34.7264 45.7368 31.4429 47.0674 27.99 47.6496C24.5372 48.2318 20.9989 48.0513 17.6233 47.1209C14.2475 46.1906 11.1164 44.5328 8.44925 42.2641C5.78222 39.9952 3.64389 37.1703 2.1844 33.9875C0.724814 30.8047 -0.0206128 27.3411 0.000433566 23.8396C0.02148 20.3381 0.808393 16.8836 2.30603 13.7186C6.51126 4.84671 15.9396 -0.876298 26.2777 0.110252C39.4732 1.36899 49.1494 13.0872 47.8897 26.2817Z" fill="#C4D0FB"/>
<path d="M39.3872 42.4187L38.5534 43.0855C37.6901 43.7442 36.7835 44.3439 35.8397 44.8806C33.0442 46.4649 29.9592 47.472 26.7674 47.8422C23.5756 48.2124 20.3419 47.9381 17.2581 47.0355C14.1742 46.1329 11.303 44.6206 8.81437 42.5879C6.32583 40.5553 4.27057 38.0438 2.77051 35.2022C6.58112 32.4015 12.9608 29.0553 21.1214 29.7383C34.7712 30.8867 39.3872 42.4187 39.3872 42.4187Z" fill="#6A5AE0"/>
<path d="M23.1236 35.4276C22.97 35.428 22.8166 35.4189 22.6642 35.4003C21.6517 35.2797 20.7286 34.7619 20.0979 33.9607C19.4671 33.1596 19.1804 32.1408 19.3008 31.1283L21.1222 15.8079C21.2429 14.7952 21.7609 13.872 22.5624 13.2413C22.9593 12.9291 23.4137 12.6981 23.8998 12.5614C24.386 12.4248 24.8942 12.3852 25.3957 12.445C25.8971 12.5048 26.3818 12.6628 26.8222 12.91C27.2626 13.1571 27.6499 13.4885 27.9621 13.8853C28.2744 14.2821 28.5055 14.7367 28.6421 15.2227C28.7788 15.7088 28.8184 16.2172 28.7586 16.7186L26.9373 32.0389C26.8256 32.9724 26.3761 33.8324 25.6734 34.4568C24.9706 35.0812 24.0636 35.4266 23.1236 35.4276Z" fill="#FFCCD7"/>
<path d="M26.3421 27.6008L27.1577 27.6919C28.106 27.7989 29.0663 27.6955 29.9702 27.3891C30.874 27.0827 31.6992 26.5809 32.3871 25.9193C33.0749 25.2577 33.6086 24.4527 33.9499 23.5614C34.2912 22.6701 34.4319 21.7146 34.362 20.7628L34.016 16.0476C33.904 14.5248 33.2593 13.09 32.1947 11.9952C31.1302 10.9005 29.7139 10.2158 28.1948 10.0615C26.481 9.88767 24.7685 10.4017 23.4337 11.4905C22.0989 12.5794 21.2514 14.1538 21.0775 15.8675L20.608 20.4906C20.4352 22.192 20.9404 23.8928 22.0139 25.224C23.0875 26.5552 24.6427 27.4092 26.3421 27.6008Z" fill="#FFCCD7"/>
<path d="M22.5648 22.5894L22.5656 22.5888C23.689 21.8978 24.0394 20.427 23.3483 19.3036L22.6384 18.1497C21.9473 17.0265 20.4765 16.6761 19.3532 17.3671L19.3523 17.3676C18.2291 18.0587 17.8787 19.5295 18.5698 20.6527L19.2797 21.8067C19.9708 22.93 21.4415 23.2804 22.5648 22.5894Z" fill="#FFCCD7"/>
<path d="M19.6216 19.2334L21.536 21.2571" stroke="#001833" stroke-width="0.5" stroke-linecap="square"/>
<path d="M31.0052 16.6465L31.1398 20.4358L29.792 20.4905" stroke="#001833" stroke-width="0.5" stroke-linecap="square"/>
<path d="M26.9902 21.6676C26.8788 21.8735 26.809 22.0995 26.7849 22.3324C26.7608 22.5653 26.7827 22.8007 26.8496 23.0251C26.9164 23.2495 27.0269 23.4586 27.1745 23.6403C27.3221 23.8221 27.5042 23.973 27.7101 24.0844C27.9161 24.1958 28.1419 24.2656 28.3749 24.2897C28.6078 24.3138 28.8432 24.2918 29.0676 24.225C29.292 24.1582 29.5011 24.0477 29.6828 23.9001C29.8646 23.7524 30.0155 23.5705 30.1269 23.3645C30.5954 22.4973 29.6837 22.1017 28.8115 21.6332C27.9393 21.1647 27.4586 20.8015 26.9902 21.6676Z" fill="#001833"/>
<path d="M23.0662 20.9825L24.8876 14.1414L25.3196 12.5224C25.7256 12.9575 26.2008 13.3224 26.7261 13.6021C28.6324 14.6281 34.3797 14.2193 35.176 10.1891C35.8256 6.90263 32.3358 8.79175 30.5488 8.58635C27.741 8.26256 25.7932 6.61021 21.9482 8.68753C17.3493 11.1757 19.5278 17.2751 19.5278 17.2751C19.5278 17.2751 21.5515 16.4828 23.0662 20.9825Z" fill="#001833"/>
<path opacity="0.4" d="M27.3613 27.7128L24.9258 27.4912L27.1498 29.6616L27.3613 27.7128Z" fill="#24272D"/>
<path d="M28.4096 18.6941C28.7789 18.6941 29.0784 18.3947 29.0784 18.0253C29.0784 17.6559 28.7789 17.3564 28.4096 17.3564C28.0401 17.3564 27.7407 17.6559 27.7407 18.0253C27.7407 18.3947 28.0401 18.6941 28.4096 18.6941Z" fill="#001833"/>
<path d="M32.3993 18.6941C32.7687 18.6941 33.0681 18.3947 33.0681 18.0253C33.0681 17.6559 32.7687 17.3564 32.3993 17.3564C32.0299 17.3564 31.7305 17.6559 31.7305 18.0253C31.7305 18.3947 32.0299 18.6941 32.3993 18.6941Z" fill="#001833"/>
</svg>
