<svg width="67" height="92" viewBox="0 0 67 92" fill="none" xmlns="http://www.w3.org/2000/svg">
<path d="M66.9999 39.1225C66.9997 53.1463 61.384 66.5957 51.3883 76.5122C41.3926 86.4286 27.8358 91.9996 13.6998 92C12.9708 92 12.2556 91.9864 11.5266 91.9591C7.63298 91.8013 3.76828 91.2248 1.68741e-06 90.2397C0.729009 89.8713 1.44426 89.5028 2.15951 89.1071C2.17327 89.1071 2.18702 89.0934 2.21453 89.0798L2.22829 89.0661C2.98481 88.6568 3.72757 88.2474 4.45657 87.8244C4.63539 87.7152 4.8142 87.6197 4.99301 87.5242C5.68076 87.1148 6.3685 86.7054 7.04249 86.2688C7.2418 86.1616 7.43464 86.0432 7.6202 85.914C8.14288 85.6001 8.66556 85.259 9.17449 84.9178C9.53212 84.6858 9.9035 84.4402 10.2474 84.2082C10.7701 83.8535 11.279 83.4987 11.7879 83.1302C12.1318 82.8982 12.4482 82.6663 12.7783 82.407C13.2184 82.1068 13.6448 81.7793 14.0712 81.4518C14.4564 81.1789 14.8277 80.8923 15.1991 80.5921C15.7218 80.1964 16.2307 79.787 16.7397 79.3503C16.9597 79.1866 17.1798 79.0092 17.3999 78.8182C17.9501 78.3679 18.4865 77.9039 19.023 77.4263C19.3118 77.1807 19.6007 76.935 19.8895 76.6621C20.2059 76.3892 20.5085 76.1163 20.8111 75.8297C21.3888 75.3112 21.9528 74.7653 22.5167 74.2195C22.5922 74.1582 22.6614 74.0897 22.723 74.0148C23.2732 73.4963 23.8097 72.9505 24.3323 72.4046C24.7037 72.0498 25.0476 71.6814 25.3777 71.313C25.7766 70.9172 26.148 70.5079 26.5194 70.0985C26.7394 69.8665 26.9458 69.6345 27.1383 69.4025C27.6335 68.8567 28.1149 68.2972 28.5964 67.7378C28.8439 67.4512 29.0915 67.151 29.3254 66.8508C29.683 66.4414 30.0269 66.032 30.3432 65.609C30.6733 65.2133 30.9897 64.8039 31.2923 64.3945C31.5812 64.0397 31.8563 63.6713 32.1176 63.3165C32.4752 62.8526 32.8191 62.3886 33.1492 61.911C33.4793 61.4334 33.837 60.9558 34.1671 60.4645C34.3309 60.2503 34.4825 60.0271 34.621 59.7959C35.0887 59.1136 35.5426 58.4177 35.9827 57.7217C36.5467 56.8621 37.0831 55.9887 37.592 55.1017C37.8259 54.7197 38.0459 54.3376 38.266 53.9555C40.0498 50.8346 41.6393 47.608 43.0252 44.2943C43.2315 43.8303 43.4241 43.3664 43.6029 42.8888C43.823 42.3839 44.0156 41.8653 44.2081 41.3468C44.3732 40.9238 44.5382 40.4871 44.6895 40.0504C44.8684 39.5728 45.0334 39.0816 45.1985 38.604C45.8037 36.8573 46.3539 35.097 46.8353 33.3094C46.9591 32.8591 47.0829 32.4224 47.1929 31.9721C47.2755 31.6856 47.3442 31.4126 47.413 31.1261L47.7431 29.7342C48.1833 27.8374 48.5547 25.927 48.871 23.9893L49.0773 22.6793C49.1049 22.4746 49.1324 22.2836 49.1599 22.0789C49.2424 21.5604 49.3112 21.0418 49.3662 20.5233C49.4625 19.7455 49.5588 18.9677 49.6275 18.1899C49.6551 17.9852 49.6688 17.7805 49.6826 17.5758C49.7376 17.0436 49.7788 16.4978 49.8201 15.9656C49.8614 15.4334 49.8889 14.8739 49.9164 14.3281C49.9439 13.946 49.9577 13.5639 49.9714 13.1682C50.0264 11.9128 50.0539 10.6574 50.0539 9.40196C50.0539 8.7606 50.0539 8.1329 50.0264 7.50519C50.0264 7.17769 50.0264 6.86384 50.0127 6.53634C49.9714 5.40374 49.9164 4.28478 49.8339 3.16582L49.8339 3.12489C49.8201 2.85197 49.8064 2.57906 49.7788 2.30614C49.7238 1.55562 49.655 0.818747 49.5863 0.0682283C49.5867 0.0447576 49.582 0.021423 49.5725 -9.26964e-07C51.4257 1.67448 53.1585 3.47558 54.7581 5.39009L54.7994 5.43103C54.8069 5.4384 54.8117 5.44795 54.8131 5.45832C62.7092 14.9259 67.0203 26.8343 66.9999 39.1225Z" fill="#FF8FA2"/>
</svg>
