<svg width="56" height="56" viewBox="0 0 56 56" fill="none" xmlns="http://www.w3.org/2000/svg">
<mask id="mask0_199_1833" style="mask-type:alpha" maskUnits="userSpaceOnUse" x="0" y="0" width="56" height="56">
<rect width="56" height="56" rx="14" fill="#6A5AE0"/>
</mask>
<g mask="url(#mask0_199_1833)">
<path d="M57.679 42.1833C57.6273 50.0365 54.4331 57.5473 48.7992 63.0637C43.1653 68.58 35.5532 71.6498 27.6372 71.5981C27.2289 71.5954 26.8284 71.5851 26.4203 71.5672C24.2405 71.4645 22.0785 71.1274 19.9719 70.5619C20.3815 70.3583 20.7834 70.1546 21.1854 69.9356C21.1931 69.9357 21.2008 69.9281 21.2163 69.9206L21.224 69.913C21.6492 69.6865 22.0666 69.46 22.4764 69.2258C22.5769 69.1653 22.6774 69.1125 22.7779 69.0597C23.1645 68.8329 23.5512 68.6062 23.9302 68.3642C24.0422 68.3049 24.1506 68.2393 24.255 68.1676C24.5489 67.9938 24.8428 67.8047 25.1291 67.6155C25.3302 67.4869 25.5391 67.3507 25.7325 67.2221C26.0265 67.0253 26.3128 66.8285 26.5991 66.6241C26.7925 66.4954 26.9705 66.3667 27.1564 66.2227C27.4039 66.0562 27.6439 65.8744 27.8839 65.6926C28.1006 65.5412 28.3096 65.3821 28.5187 65.2153C28.8128 64.9956 29.0993 64.7683 29.3859 64.5256C29.5098 64.4347 29.6337 64.3362 29.7576 64.23C30.0674 63.9799 30.3695 63.722 30.6716 63.4565C30.8343 63.3201 30.997 63.1836 31.1597 63.0318C31.3379 62.8801 31.5083 62.7284 31.6788 62.5691C32.0043 62.2808 32.3221 61.9772 32.6399 61.6736C32.6824 61.6396 32.7214 61.6015 32.7562 61.5598C33.0662 61.2714 33.3686 60.9677 33.6633 60.664C33.8726 60.4667 34.0665 60.2616 34.2527 60.0565C34.4775 59.8364 34.687 59.6085 34.8965 59.3806C35.0206 59.2515 35.137 59.1224 35.2456 58.9932C35.5249 58.6894 35.7966 58.3778 36.0682 58.0663C36.2079 57.9067 36.3477 57.7395 36.4797 57.5723C36.6815 57.3443 36.8756 57.1164 37.0543 56.8806C37.2406 56.6603 37.4193 56.4322 37.5902 56.204C37.7533 56.0064 37.9087 55.8011 38.0564 55.6034C38.2583 55.3449 38.4526 55.0864 38.6392 54.8201C38.8258 54.5539 39.0279 54.2877 39.2145 54.0139C39.307 53.8945 39.3927 53.77 39.4712 53.6411C39.7356 53.2607 39.9923 52.8727 40.2413 52.4846C40.5603 52.0053 40.8639 51.5182 41.1522 51.0234C41.2845 50.8103 41.4092 50.5971 41.5338 50.3839C42.5442 48.6428 43.4461 46.8418 44.2344 44.9913C44.3517 44.7322 44.4612 44.4731 44.5631 44.2063C44.6882 43.9244 44.7979 43.6347 44.9077 43.3451C45.0017 43.1088 45.0957 42.8649 45.182 42.6209C45.2839 42.3541 45.3782 42.0796 45.4724 41.8128C45.8177 40.8369 46.1323 39.8532 46.4084 38.8539C46.4794 38.6022 46.5503 38.3581 46.6136 38.1063C46.6609 37.9462 46.7004 37.7936 46.74 37.6334L46.9299 36.8552C47.1834 35.7946 47.3984 34.7262 47.5827 33.6422L47.703 32.9094C47.7192 32.7949 47.7353 32.688 47.7515 32.5735C47.7996 32.2834 47.84 31.9933 47.8727 31.7031C47.9295 31.2679 47.9863 30.8327 48.0276 30.3974C48.0438 30.2829 48.0523 30.1683 48.0607 30.0537C48.0935 29.7559 48.1186 29.4504 48.1437 29.1525C48.1687 28.8547 48.1862 28.5415 48.2036 28.2359C48.2204 28.0221 48.2295 27.8081 48.2387 27.5866C48.2741 26.8838 48.2941 26.1809 48.2987 25.4778C48.3011 25.1187 48.3034 24.7672 48.2903 24.4156C48.2915 24.2322 48.2927 24.0564 48.2862 23.873C48.2672 23.2386 48.2405 22.6118 48.1984 21.9849L48.1986 21.962C48.1919 21.8091 48.1852 21.6562 48.1708 21.5033C48.1427 21.0828 48.1069 20.6699 48.0712 20.2494C48.0715 20.2362 48.069 20.2231 48.0637 20.2111C49.0953 21.1556 50.0591 22.1706 50.9478 23.2485L50.9707 23.2716C50.9749 23.2758 50.9776 23.2811 50.9783 23.287C55.3652 28.6177 57.7356 35.3022 57.679 42.1833Z" fill="#FF8FA2"/>
<path d="M48.2697 25.3412C48.2138 34.4821 45.6706 43.4378 40.9092 51.2604C36.1478 59.083 29.3454 65.4815 21.2219 69.7788C21.2118 69.7903 21.1982 69.7983 21.1832 69.8014L21.1755 69.809C20.774 70.0204 20.3725 70.2241 19.971 70.4278C17.4641 69.754 15.0588 68.7513 12.8187 67.4462C11.1981 66.505 9.66975 65.4152 8.25372 64.1912C8.5249 63.9102 8.78838 63.6292 9.05191 63.3405L9.05958 63.3329C9.05963 63.3253 9.06745 63.3177 9.0752 63.3101L9.08282 63.3102C17.5641 54.0716 22.2933 42.037 22.3557 29.5347C22.3923 24.1492 21.5704 18.7917 19.9204 13.6611L19.9128 13.6611C19.9129 13.6458 19.9053 13.6305 19.9054 13.6152L19.8976 13.6151C19.8933 13.6028 19.8908 13.5899 19.8903 13.5769C19.7394 13.1097 19.5809 12.6425 19.4146 12.1829L28.0175 12.2394C35.4406 12.2779 42.581 15.0726 48.0349 20.0741C48.0927 20.6553 48.135 21.2364 48.1696 21.8251C48.2467 22.9872 48.2775 24.1567 48.2697 25.3412Z" fill="#9087E5"/>
<path d="M22.4813 29.5356C22.4779 30.0476 22.4669 30.5596 22.4484 31.0638C22.4386 31.3924 22.4212 31.7132 22.4038 32.0417C22.3341 33.3557 22.211 34.6617 22.0345 35.9597C21.9941 36.2957 21.9461 36.624 21.8905 36.9523C21.8344 37.3569 21.7631 37.7538 21.6917 38.1584C21.6281 38.5401 21.557 38.9141 21.4781 39.2957C21.4622 39.3873 21.4387 39.4788 21.4229 39.5704C21.3597 39.8833 21.2889 40.2038 21.2181 40.5167C20.8489 42.143 20.3975 43.7494 19.8657 45.33C19.7644 45.6427 19.6555 45.9476 19.5467 46.245C19.5371 46.2817 19.5241 46.3174 19.5078 46.3517C19.3988 46.6643 19.29 46.9616 19.1735 47.2666C19.1423 47.3581 19.1035 47.4572 19.0647 47.5563C18.9404 47.8841 18.8085 48.2042 18.6766 48.5243C18.5291 48.8901 18.374 49.2559 18.2113 49.614C18.0485 49.9874 17.8781 50.3608 17.7077 50.7341C17.5451 51.0769 17.3749 51.4197 17.2124 51.7549C17.0344 52.1129 16.8565 52.4633 16.671 52.806C16.4855 53.1486 16.3 53.499 16.1069 53.8416C15.9137 54.1842 15.7206 54.5268 15.5276 54.8618C15.3345 55.1968 15.1261 55.5393 14.9177 55.8742C14.7094 56.2091 14.5011 56.5364 14.2852 56.8636C13.861 57.518 13.4215 58.1647 12.9669 58.796C12.5123 59.4273 12.0349 60.0508 11.5575 60.6667C10.8338 61.5714 10.0849 62.4529 9.31069 63.3114L9.30306 63.3114C9.29537 63.319 9.29538 63.319 9.29533 63.3266C9.29531 63.3286 9.29454 63.3306 9.29308 63.332C9.29162 63.3334 9.2897 63.3342 9.28764 63.3342C9.02616 63.6229 8.75704 63.9115 8.48797 64.1925C7.29186 63.1499 6.18104 62.013 5.16623 60.7929C5.15857 60.7783 5.14829 60.7653 5.13594 60.7545C0.681116 55.3951 -1.73321 48.6295 -1.6788 41.6579L-1.48435 12.0459L19.5642 12.1841C19.7291 12.6437 19.8864 13.1033 20.0284 13.5704L20.036 13.5781C20.0366 13.5911 20.0391 13.604 20.0434 13.6163L20.051 13.6164L20.0509 13.6393C20.0504 13.6435 20.0508 13.6477 20.052 13.6516C20.0534 13.6556 20.0556 13.6592 20.0584 13.6623L20.066 13.6623C20.0726 13.6915 20.0827 13.7198 20.096 13.7466L20.1857 14.0452C20.4399 14.857 20.6712 15.6762 20.8795 16.5105C21.0285 17.0694 21.1622 17.6434 21.2882 18.2174C21.5181 19.2582 21.7172 20.3218 21.8857 21.4005C21.9222 21.6606 21.9664 21.913 21.9952 22.1731C22.0826 22.8079 22.1625 23.4428 22.227 24.0851C22.2559 24.3222 22.2772 24.5669 22.291 24.8039C22.3339 25.2474 22.3614 25.6985 22.3891 26.1419C22.458 27.2658 22.4888 28.397 22.4813 29.5356Z" fill="#C4D0FB"/>
</g>
<rect width="56" height="50" rx="14" fill="#09074A"/>
<mask id="mask1_199_1833" style="mask-type:alpha" maskUnits="userSpaceOnUse" x="13" y="8" width="30" height="34">
<path fill-rule="evenodd" clip-rule="evenodd" d="M27.1045 34.09C28.1436 34.0425 29.1654 33.879 30.1515 33.6075L31.5426 34.9678C32.8519 36.2481 34.9794 36.2529 36.2945 34.9786C37.6096 33.7043 37.6143 31.6334 36.305 30.3532L34.7254 28.8087C34.437 28.5266 34.1089 28.3065 33.7585 28.1483C32.7307 27.3936 31.2677 27.4828 30.0878 28.0551C29.0878 28.5402 27.9864 28.823 26.8507 28.8749C24.8411 28.9667 22.8685 28.329 21.3183 27.0864C19.7682 25.8438 18.7521 24.0857 18.4686 22.1557C18.1852 20.2257 18.6547 18.2627 19.7855 16.6504C20.9163 15.0381 22.6271 13.8924 24.5833 13.4373C26.5395 12.9822 28.6005 13.2505 30.3635 14.1896C32.1264 15.1287 33.4645 16.6712 34.1162 18.5155C34.4594 19.487 34.5992 20.5055 34.5379 21.5133C34.4465 23.0149 35.0291 24.6412 36.4164 25.223C37.7594 25.7861 39.3383 25.1746 39.6487 23.7518C40.1481 21.4625 40.0065 19.0683 39.2137 16.8244C38.1276 13.7506 35.8974 11.1797 32.9592 9.6145C30.0209 8.04927 26.5858 7.60219 23.3255 8.36066C20.0651 9.11913 17.2139 11.0286 15.3293 13.7158C13.4446 16.403 12.662 19.6747 13.1344 22.8913C13.6069 26.1079 15.3004 29.0382 17.8839 31.1092C20.4674 33.1802 23.7552 34.243 27.1045 34.09ZM37.2698 36.4119C35.9549 37.686 35.9498 39.7569 37.2589 41.0369C38.568 42.317 40.6956 42.3215 42.0105 41.0474C43.3254 39.7733 43.3304 37.7024 42.0213 36.4223C40.7122 35.1422 38.5847 35.1377 37.2698 36.4119Z" fill="#6A5AE0"/>
</mask>
<g mask="url(#mask1_199_1833)">
<path fill-rule="evenodd" clip-rule="evenodd" d="M31.2315 52.595L58.4613 26.0571L52.5737 20.5083L21.4189 51.1475L31.2315 52.595Z" fill="white"/>
<path fill-rule="evenodd" clip-rule="evenodd" d="M25.8824 45.525L52.287 20.3365L46.5779 15.0698L16.3672 44.1511L25.8824 45.525Z" fill="white"/>
<path fill-rule="evenodd" clip-rule="evenodd" d="M17.9409 44.4526L48.9689 14.1679L43.5305 8.50664L12.5025 38.7913L17.9409 44.4526Z" fill="white"/>
<path fill-rule="evenodd" clip-rule="evenodd" d="M12.3386 39.5429L43.3078 9.17262L35.2607 5.82471L7.94922 32.608L12.3386 39.5429Z" fill="white"/>
<path fill-rule="evenodd" clip-rule="evenodd" d="M7.94922 33.0168L36.0116 5.82471L20.9782 7.28143L7.94922 21.1203V33.0168Z" fill="white"/>
</g>
</svg>
