<svg width="27" height="20" viewBox="0 0 27 20" fill="none" xmlns="http://www.w3.org/2000/svg">
<mask id="mask0_80_5" style="mask-type:luminance" maskUnits="userSpaceOnUse" x="0" y="0" width="27" height="20">
<rect width="26.6667" height="20" rx="2" fill="white"/>
</mask>
<g mask="url(#mask0_80_5)">
<path fill-rule="evenodd" clip-rule="evenodd" d="M6.66699 0H26.667V20H6.66699V0Z" fill="#EF0000"/>
<path fill-rule="evenodd" clip-rule="evenodd" d="M0 0H10V20H0V0Z" fill="#2F8D00"/>
<mask id="mask1_80_5" style="mask-type:luminance" maskUnits="userSpaceOnUse" x="3" y="3" width="14" height="14">
<path fill-rule="evenodd" clip-rule="evenodd" d="M9.92076 16.5059C6.37036 16.5059 3.49219 13.5931 3.49219 9.99992C3.49219 6.40674 6.37036 3.4939 9.92076 3.4939C13.4712 3.4939 16.3493 6.40674 16.3493 9.99992C16.3493 13.5931 13.4712 16.5059 9.92076 16.5059Z" fill="white"/>
</mask>
<g mask="url(#mask1_80_5)">
<path fill-rule="evenodd" clip-rule="evenodd" d="M9.52441 3.33325H10.3577V5.58225H9.52441V3.33325Z" fill="#FFE017"/>
<path fill-rule="evenodd" clip-rule="evenodd" d="M9.52441 14.5781H10.3577V16.6665H9.52441V14.5781Z" fill="#FFE017"/>
<path d="M3.59529 10.3364L3.3623 9.73862C5.93329 8.71222 7.87376 8.05029 9.19042 7.75198C11.1222 7.31431 13.2447 6.99049 15.5582 6.78027L15.615 7.42027C13.3281 7.62807 11.2327 7.94774 9.32912 8.37903C8.05166 8.66846 6.13815 9.32119 3.59529 10.3364Z" fill="#FFE017"/>
<path d="M15.9513 6.38641L15.7622 6.99983C13.8191 6.3864 12.2363 6.12272 11.0196 6.2044L10.9775 5.56323C12.2839 5.47555 13.9398 5.7514 15.9513 6.38641Z" fill="#FFE017"/>
<path d="M16.6233 9.81628L16.2642 10.3462C15.2736 9.65842 14.0532 9.31298 12.5947 9.31298V8.67041C14.1759 8.67041 15.5215 9.05131 16.6233 9.81628Z" fill="#FFE017"/>
<path d="M16.0852 10.0088L16.2494 10.6295C14.1138 11.208 12.1089 11.5361 10.2343 11.6134C8.34688 11.6912 6.147 11.3619 3.63281 10.6278L3.8088 10.0105C6.26188 10.7266 8.39575 11.0461 10.2085 10.9714C12.0342 10.8961 13.9931 10.5755 16.0852 10.0088Z" fill="#FFE017"/>
<path d="M15.8431 13.0299L14.8395 14.0588C12.9323 12.1533 11.2532 10.7908 9.81252 9.97217C8.34727 9.13954 6.43644 8.29406 4.08301 7.43915L4.56563 6.07837C6.98847 6.9585 8.96958 7.83508 10.5119 8.71152C12.0789 9.60194 13.8525 11.0411 15.8431 13.0299Z" fill="#FFE017"/>
<path d="M4.54883 13.6127L4.16895 13.0979C4.22199 13.0578 4.31665 12.9909 4.44707 12.9062C4.6624 12.7663 4.90152 12.6267 5.15879 12.4961C5.86737 12.1367 6.57815 11.9123 7.25609 11.8917C7.28924 11.8906 7.32226 11.8901 7.35513 11.8901V12.5327C7.32865 12.5327 7.30199 12.5331 7.27515 12.5339C6.70385 12.5513 6.07646 12.7494 5.44329 13.0706C5.20729 13.1903 4.9874 13.3187 4.79005 13.447C4.72136 13.4916 4.66059 13.5328 4.60851 13.5696C4.57814 13.5911 4.55799 13.6058 4.54883 13.6127Z" fill="#FFE017"/>
<path d="M4.84375 13.8354L5.00364 13.2135C7.12041 13.771 8.75231 14.0488 9.89122 14.0488C11.0259 14.0488 12.7147 13.7211 14.9467 13.0635L15.1242 13.6804C12.8394 14.3536 11.0987 14.6913 9.89122 14.6913C8.68799 14.6913 7.00821 14.4054 4.84375 13.8354Z" fill="#FFE017"/>
<path d="M4.01855 8.07861L5.02445 7.052L6.49722 8.53003L5.49132 9.55665L4.01855 8.07861Z" fill="#FFE017"/>
<path d="M12.3633 13.2065L13.1115 11.9749L15.4478 13.4286L14.6996 14.6602L12.3633 13.2065Z" fill="#FFE017"/>
</g>
<path fill-rule="evenodd" clip-rule="evenodd" d="M3.49219 9.99992C3.49219 13.5931 6.37036 16.5059 9.92076 16.5059C13.4712 16.5059 16.3493 13.5931 16.3493 9.99992C16.3493 6.40674 13.4712 3.4939 9.92076 3.4939C6.37036 3.4939 3.49219 6.40674 3.49219 9.99992ZM15.5557 10.0802C15.5557 13.1855 13.0684 15.7027 10.0001 15.7027C6.9319 15.7027 4.44459 13.1855 4.44459 10.0802C4.44459 6.97503 6.9319 4.45776 10.0001 4.45776C13.0684 4.45776 15.5557 6.97503 15.5557 10.0802Z" fill="#F9E813"/>
<path d="M6.38086 5.98755V11.2048C6.7243 13.2699 7.88136 14.3024 9.85202 14.3024C11.8227 14.3024 12.9797 13.2699 13.3232 11.2048V5.98755H6.38086Z" fill="white"/>
<path d="M5.9043 5.50562H13.799V11.2451L13.7924 11.2848C13.411 13.5779 12.0591 14.7843 9.85164 14.7843C7.64424 14.7843 6.29227 13.5779 5.9109 11.2848L5.9043 11.2451V5.50562Z" fill="#C51918"/>
<path d="M7.70996 7.25879H11.9931V10.9595C11.9931 10.9595 11.6752 12.8706 9.85151 12.8706C8.0278 12.8706 7.70996 10.9595 7.70996 10.9595V7.25879Z" fill="#F7FCFF"/>
<path fill-rule="evenodd" clip-rule="evenodd" d="M6.66602 5.90332H7.26843V6.30493H6.66602V5.90332Z" fill="#F9E813"/>
<path fill-rule="evenodd" clip-rule="evenodd" d="M6.34863 6.06396H7.45974V6.26477H6.34863V6.06396Z" fill="#060101"/>
<path fill-rule="evenodd" clip-rule="evenodd" d="M6.34863 6.22461H6.95104V6.42541H6.34863V6.22461Z" fill="#F9E813"/>
<path fill-rule="evenodd" clip-rule="evenodd" d="M6.9834 6.22461H7.58581V6.42541H6.9834V6.22461Z" fill="#F9E813"/>
<path fill-rule="evenodd" clip-rule="evenodd" d="M6.34863 6.70654H6.75024V7.30895H6.34863V6.70654Z" fill="#F9E813"/>
<path fill-rule="evenodd" clip-rule="evenodd" d="M7.14258 6.70654H7.54418V7.30895H7.14258V6.70654Z" fill="#F9E813"/>
<path fill-rule="evenodd" clip-rule="evenodd" d="M6.8252 6.70654H7.026V7.30895H6.8252V6.70654Z" fill="#F9E813"/>
<path fill-rule="evenodd" clip-rule="evenodd" d="M6.34863 6.5459H7.45974V6.7467H6.34863V6.5459Z" fill="#060101"/>
<path fill-rule="evenodd" clip-rule="evenodd" d="M6.34863 7.02783H7.45974V7.22864H6.34863V7.02783Z" fill="#060101"/>
<path fill-rule="evenodd" clip-rule="evenodd" d="M6.50781 6.38525H6.70862V6.58606H6.50781V6.38525Z" fill="#F9E813"/>
<path fill-rule="evenodd" clip-rule="evenodd" d="M7.14258 6.38525H7.34338V6.58606H7.14258V6.38525Z" fill="#F9E813"/>
<path fill-rule="evenodd" clip-rule="evenodd" d="M6.8252 6.22461H7.026V6.62622H6.8252V6.22461Z" fill="#F9E813"/>
<path fill-rule="evenodd" clip-rule="evenodd" d="M9.68164 5.90332H10.284V6.30493H9.68164V5.90332Z" fill="#F9E813"/>
<path fill-rule="evenodd" clip-rule="evenodd" d="M9.36426 6.06396H10.4754V6.26477H9.36426V6.06396Z" fill="#060101"/>
<path fill-rule="evenodd" clip-rule="evenodd" d="M9.36426 6.22461H9.96667V6.42541H9.36426V6.22461Z" fill="#F9E813"/>
<path fill-rule="evenodd" clip-rule="evenodd" d="M9.99902 6.22461H10.6014V6.42541H9.99902V6.22461Z" fill="#F9E813"/>
<path fill-rule="evenodd" clip-rule="evenodd" d="M9.36426 6.70654H9.76586V7.30895H9.36426V6.70654Z" fill="#F9E813"/>
<path fill-rule="evenodd" clip-rule="evenodd" d="M10.1582 6.70654H10.5598V7.30895H10.1582V6.70654Z" fill="#F9E813"/>
<path fill-rule="evenodd" clip-rule="evenodd" d="M9.84082 6.70654H10.0416V7.30895H9.84082V6.70654Z" fill="#F9E813"/>
<path fill-rule="evenodd" clip-rule="evenodd" d="M9.36426 6.5459H10.4754V6.7467H9.36426V6.5459Z" fill="#060101"/>
<path fill-rule="evenodd" clip-rule="evenodd" d="M9.36426 7.02783H10.4754V7.22864H9.36426V7.02783Z" fill="#060101"/>
<path fill-rule="evenodd" clip-rule="evenodd" d="M9.52344 6.38525H9.72424V6.58606H9.52344V6.38525Z" fill="#F9E813"/>
<path fill-rule="evenodd" clip-rule="evenodd" d="M10.1582 6.38525H10.359V6.58606H10.1582V6.38525Z" fill="#F9E813"/>
<path fill-rule="evenodd" clip-rule="evenodd" d="M9.84082 6.22461H10.0416V6.62622H9.84082V6.22461Z" fill="#F9E813"/>
<path fill-rule="evenodd" clip-rule="evenodd" d="M12.5391 5.90332H13.1415V6.30493H12.5391V5.90332Z" fill="#F9E813"/>
<path fill-rule="evenodd" clip-rule="evenodd" d="M12.2217 6.06396H13.3328V6.26477H12.2217V6.06396Z" fill="#060101"/>
<path fill-rule="evenodd" clip-rule="evenodd" d="M12.2217 6.22461H12.8241V6.42541H12.2217V6.22461Z" fill="#F9E813"/>
<path fill-rule="evenodd" clip-rule="evenodd" d="M12.8564 6.22461H13.4589V6.42541H12.8564V6.22461Z" fill="#F9E813"/>
<path fill-rule="evenodd" clip-rule="evenodd" d="M12.2217 6.70654H12.6233V7.30895H12.2217V6.70654Z" fill="#F9E813"/>
<path fill-rule="evenodd" clip-rule="evenodd" d="M13.0156 6.70654H13.4172V7.30895H13.0156V6.70654Z" fill="#F9E813"/>
<path fill-rule="evenodd" clip-rule="evenodd" d="M12.6982 6.70654H12.899V7.30895H12.6982V6.70654Z" fill="#F9E813"/>
<path fill-rule="evenodd" clip-rule="evenodd" d="M12.2217 6.5459H13.3328V6.7467H12.2217V6.5459Z" fill="#060101"/>
<path fill-rule="evenodd" clip-rule="evenodd" d="M12.2217 7.02783H13.3328V7.22864H12.2217V7.02783Z" fill="#060101"/>
<path fill-rule="evenodd" clip-rule="evenodd" d="M12.3809 6.38525H12.5817V6.58606H12.3809V6.38525Z" fill="#F9E813"/>
<path fill-rule="evenodd" clip-rule="evenodd" d="M13.0156 6.38525H13.2164V6.58606H13.0156V6.38525Z" fill="#F9E813"/>
<path fill-rule="evenodd" clip-rule="evenodd" d="M12.6982 6.22461H12.899V6.62622H12.6982V6.22461Z" fill="#F9E813"/>
<path fill-rule="evenodd" clip-rule="evenodd" d="M12.5391 8.79492H13.1415V9.19653H12.5391V8.79492Z" fill="#F9E813"/>
<path fill-rule="evenodd" clip-rule="evenodd" d="M12.2217 8.95557H13.3328V9.15637H12.2217V8.95557Z" fill="#060101"/>
<path fill-rule="evenodd" clip-rule="evenodd" d="M12.2217 9.11621H12.8241V9.31701H12.2217V9.11621Z" fill="#F9E813"/>
<path fill-rule="evenodd" clip-rule="evenodd" d="M12.8564 9.11621H13.4589V9.31701H12.8564V9.11621Z" fill="#F9E813"/>
<path fill-rule="evenodd" clip-rule="evenodd" d="M12.2217 9.59814H12.6233V10.2006H12.2217V9.59814Z" fill="#F9E813"/>
<path fill-rule="evenodd" clip-rule="evenodd" d="M13.0156 9.59814H13.4172V10.2006H13.0156V9.59814Z" fill="#F9E813"/>
<path fill-rule="evenodd" clip-rule="evenodd" d="M12.6982 9.59814H12.899V10.2006H12.6982V9.59814Z" fill="#F9E813"/>
<path fill-rule="evenodd" clip-rule="evenodd" d="M12.2217 9.4375H13.3328V9.6383H12.2217V9.4375Z" fill="#060101"/>
<path fill-rule="evenodd" clip-rule="evenodd" d="M12.2217 9.91943H13.3328V10.1202H12.2217V9.91943Z" fill="#060101"/>
<path fill-rule="evenodd" clip-rule="evenodd" d="M12.3809 9.27686H12.5817V9.47766H12.3809V9.27686Z" fill="#F9E813"/>
<path fill-rule="evenodd" clip-rule="evenodd" d="M13.0156 9.27686H13.2164V9.47766H13.0156V9.27686Z" fill="#F9E813"/>
<path fill-rule="evenodd" clip-rule="evenodd" d="M12.6982 9.11621H12.899V9.51782H12.6982V9.11621Z" fill="#F9E813"/>
<path fill-rule="evenodd" clip-rule="evenodd" d="M6.66602 8.79492H7.26843V9.19653H6.66602V8.79492Z" fill="#F9E813"/>
<path fill-rule="evenodd" clip-rule="evenodd" d="M6.34863 8.95557H7.45974V9.15637H6.34863V8.95557Z" fill="#060101"/>
<path fill-rule="evenodd" clip-rule="evenodd" d="M6.34863 9.11621H6.95104V9.31701H6.34863V9.11621Z" fill="#F9E813"/>
<path fill-rule="evenodd" clip-rule="evenodd" d="M6.9834 9.11621H7.58581V9.31701H6.9834V9.11621Z" fill="#F9E813"/>
<path fill-rule="evenodd" clip-rule="evenodd" d="M6.34863 9.59814H6.75024V10.2006H6.34863V9.59814Z" fill="#F9E813"/>
<path fill-rule="evenodd" clip-rule="evenodd" d="M7.14258 9.59814H7.54418V10.2006H7.14258V9.59814Z" fill="#F9E813"/>
<path fill-rule="evenodd" clip-rule="evenodd" d="M6.8252 9.59814H7.026V10.2006H6.8252V9.59814Z" fill="#F9E813"/>
<path fill-rule="evenodd" clip-rule="evenodd" d="M6.34863 9.4375H7.45974V9.6383H6.34863V9.4375Z" fill="#060101"/>
<path fill-rule="evenodd" clip-rule="evenodd" d="M6.34863 9.91943H7.45974V10.1202H6.34863V9.91943Z" fill="#060101"/>
<path fill-rule="evenodd" clip-rule="evenodd" d="M6.50781 9.27686H6.70862V9.47766H6.50781V9.27686Z" fill="#F9E813"/>
<path fill-rule="evenodd" clip-rule="evenodd" d="M7.14258 9.27686H7.34338V9.47766H7.14258V9.27686Z" fill="#F9E813"/>
<path fill-rule="evenodd" clip-rule="evenodd" d="M6.8252 9.11621H7.026V9.51782H6.8252V9.11621Z" fill="#F9E813"/>
<path fill-rule="evenodd" clip-rule="evenodd" d="M7.05273 12.4197L7.43996 11.9582L7.7476 12.2164L7.36038 12.6778L7.05273 12.4197Z" fill="#F9E813"/>
<path fill-rule="evenodd" clip-rule="evenodd" d="M6.97168 12.7661L7.68589 11.915L7.83971 12.044L7.1255 12.8952L6.97168 12.7661Z" fill="#060101"/>
<path fill-rule="evenodd" clip-rule="evenodd" d="M7.09473 12.8694L7.48195 12.4079L7.63577 12.537L7.24855 12.9985L7.09473 12.8694Z" fill="#F9E813"/>
<path fill-rule="evenodd" clip-rule="evenodd" d="M7.50293 12.3831L7.89015 11.9216L8.04397 12.0507L7.65675 12.5121L7.50293 12.3831Z" fill="#F9E813"/>
<path fill-rule="evenodd" clip-rule="evenodd" d="M7.46387 13.1792L7.72201 12.8716L8.18349 13.2588L7.92534 13.5664L7.46387 13.1792Z" fill="#F9E813"/>
<path fill-rule="evenodd" clip-rule="evenodd" d="M7.97363 12.571L8.23178 12.2634L8.69325 12.6506L8.43511 12.9583L7.97363 12.571Z" fill="#F9E813"/>
<path fill-rule="evenodd" clip-rule="evenodd" d="M7.76953 12.8145L7.89861 12.6606L8.36008 13.0479L8.231 13.2017L7.76953 12.8145Z" fill="#F9E813"/>
<path fill-rule="evenodd" clip-rule="evenodd" d="M7.34082 13.0759L8.05503 12.2248L8.20885 12.3538L7.49464 13.205L7.34082 13.0759Z" fill="#060101"/>
<path fill-rule="evenodd" clip-rule="evenodd" d="M7.70996 13.3857L8.42417 12.5346L8.57799 12.6637L7.86379 13.5148L7.70996 13.3857Z" fill="#060101"/>
<path fill-rule="evenodd" clip-rule="evenodd" d="M7.32031 12.8511L7.44939 12.6973L7.60321 12.8263L7.47414 12.9801L7.32031 12.8511Z" fill="#F9E813"/>
<path fill-rule="evenodd" clip-rule="evenodd" d="M7.72754 12.3647L7.85661 12.2109L8.01044 12.34L7.88136 12.4938L7.72754 12.3647Z" fill="#F9E813"/>
<path fill-rule="evenodd" clip-rule="evenodd" d="M7.40039 12.5046L7.52946 12.3508L7.83711 12.609L7.70804 12.7628L7.40039 12.5046Z" fill="#F9E813"/>
<path fill-rule="evenodd" clip-rule="evenodd" d="M12.4814 12.0549L12.8687 12.5164L12.561 12.7746L12.1738 12.3131L12.4814 12.0549Z" fill="#F9E813"/>
<path fill-rule="evenodd" clip-rule="evenodd" d="M12.1543 11.915L12.8685 12.7662L12.7147 12.8953L12.0005 12.0441L12.1543 11.915Z" fill="#060101"/>
<path fill-rule="evenodd" clip-rule="evenodd" d="M12.0312 12.0183L12.4185 12.4798L12.2646 12.6089L11.8774 12.1474L12.0312 12.0183Z" fill="#F9E813"/>
<path fill-rule="evenodd" clip-rule="evenodd" d="M12.4395 12.5046L12.8267 12.9661L12.6729 13.0952L12.2856 12.6337L12.4395 12.5046Z" fill="#F9E813"/>
<path fill-rule="evenodd" clip-rule="evenodd" d="M11.6621 12.3281L11.9203 12.6358L11.4588 13.023L11.2006 12.7153L11.6621 12.3281Z" fill="#F9E813"/>
<path fill-rule="evenodd" clip-rule="evenodd" d="M12.1719 12.936L12.43 13.2437L11.9686 13.6309L11.7104 13.3233L12.1719 12.936Z" fill="#F9E813"/>
<path fill-rule="evenodd" clip-rule="evenodd" d="M11.9678 12.6929L12.0968 12.8467L11.6354 13.2339L11.5063 13.0801L11.9678 12.6929Z" fill="#F9E813"/>
<path fill-rule="evenodd" clip-rule="evenodd" d="M11.7852 12.2249L12.4994 13.076L12.3455 13.2051L11.6313 12.3539L11.7852 12.2249Z" fill="#060101"/>
<path fill-rule="evenodd" clip-rule="evenodd" d="M11.416 12.5347L12.1302 13.3858L11.9764 13.5149L11.2622 12.6637L11.416 12.5347Z" fill="#060101"/>
<path fill-rule="evenodd" clip-rule="evenodd" d="M12.0098 12.2432L12.1388 12.397L11.985 12.5261L11.8559 12.3722L12.0098 12.2432Z" fill="#F9E813"/>
<path fill-rule="evenodd" clip-rule="evenodd" d="M12.418 12.7295L12.547 12.8833L12.3932 13.0124L12.2641 12.8586L12.418 12.7295Z" fill="#F9E813"/>
<path fill-rule="evenodd" clip-rule="evenodd" d="M12.3369 12.3831L12.466 12.5369L12.1583 12.795L12.0293 12.6412L12.3369 12.3831Z" fill="#F9E813"/>
<path fill-rule="evenodd" clip-rule="evenodd" d="M10.4655 7.67041H9.36523V8.47164C9.36523 8.47164 9.44688 8.88539 9.91537 8.88539C10.3839 8.88539 10.4655 8.47164 10.4655 8.47164V7.67041ZM9.84145 7.9917C9.84145 8.08042 9.77039 8.15234 9.68272 8.15234C9.59506 8.15234 9.524 8.08042 9.524 7.9917C9.524 7.90298 9.59506 7.83105 9.68272 7.83105C9.77039 7.83105 9.84145 7.90298 9.84145 7.9917ZM9.68272 8.79491C9.77039 8.79491 9.84145 8.72299 9.84145 8.63427C9.84145 8.54555 9.77039 8.47363 9.68272 8.47363C9.59506 8.47363 9.524 8.54555 9.524 8.63427C9.524 8.72299 9.59506 8.79491 9.68272 8.79491ZM10.3176 8.63427C10.3176 8.72299 10.2465 8.79491 10.1588 8.79491C10.0712 8.79491 10.0001 8.72299 10.0001 8.63427C10.0001 8.54555 10.0712 8.47363 10.1588 8.47363C10.2465 8.47363 10.3176 8.54555 10.3176 8.63427ZM9.92079 8.47362C10.0084 8.47362 10.0795 8.4017 10.0795 8.31298C10.0795 8.22426 10.0084 8.15234 9.92079 8.15234C9.83312 8.15234 9.76206 8.22426 9.76206 8.31298C9.76206 8.4017 9.83312 8.47362 9.92079 8.47362ZM10.3176 7.9917C10.3176 8.08042 10.2465 8.15234 10.1588 8.15234C10.0712 8.15234 10.0001 8.08042 10.0001 7.9917C10.0001 7.90298 10.0712 7.83105 10.1588 7.83105C10.2465 7.83105 10.3176 7.90298 10.3176 7.9917Z" fill="#013399"/>
<path fill-rule="evenodd" clip-rule="evenodd" d="M10.4655 9.4375H9.36523V10.2387C9.36523 10.2387 9.44688 10.6525 9.91537 10.6525C10.3839 10.6525 10.4655 10.2387 10.4655 10.2387V9.4375ZM9.84145 9.75879C9.84145 9.84751 9.77039 9.91943 9.68272 9.91943C9.59506 9.91943 9.524 9.84751 9.524 9.75879C9.524 9.67006 9.59506 9.59814 9.68272 9.59814C9.77039 9.59814 9.84145 9.67006 9.84145 9.75879ZM9.68272 10.562C9.77039 10.562 9.84145 10.4901 9.84145 10.4014C9.84145 10.3126 9.77039 10.2407 9.68272 10.2407C9.59506 10.2407 9.524 10.3126 9.524 10.4014C9.524 10.4901 9.59506 10.562 9.68272 10.562ZM10.3176 10.4014C10.3176 10.4901 10.2465 10.562 10.1588 10.562C10.0712 10.562 10.0001 10.4901 10.0001 10.4014C10.0001 10.3126 10.0712 10.2407 10.1588 10.2407C10.2465 10.2407 10.3176 10.3126 10.3176 10.4014ZM9.92079 10.2407C10.0084 10.2407 10.0795 10.1688 10.0795 10.0801C10.0795 9.99135 10.0084 9.91943 9.92079 9.91943C9.83312 9.91943 9.76206 9.99135 9.76206 10.0801C9.76206 10.1688 9.83312 10.2407 9.92079 10.2407ZM10.3176 9.75879C10.3176 9.84751 10.2465 9.91943 10.1588 9.91943C10.0712 9.91943 10.0001 9.84751 10.0001 9.75879C10.0001 9.67006 10.0712 9.59814 10.1588 9.59814C10.2465 9.59814 10.3176 9.67006 10.3176 9.75879Z" fill="#013399"/>
<path fill-rule="evenodd" clip-rule="evenodd" d="M11.8942 9.4375H10.7939V10.2387C10.7939 10.2387 10.8756 10.6525 11.3441 10.6525C11.8126 10.6525 11.8942 10.2387 11.8942 10.2387V9.4375ZM11.2702 9.75879C11.2702 9.84751 11.1991 9.91943 11.1114 9.91943C11.0238 9.91943 10.9527 9.84751 10.9527 9.75879C10.9527 9.67006 11.0238 9.59814 11.1114 9.59814C11.1991 9.59814 11.2702 9.67006 11.2702 9.75879ZM11.1114 10.562C11.1991 10.562 11.2702 10.4901 11.2702 10.4014C11.2702 10.3126 11.1991 10.2407 11.1114 10.2407C11.0238 10.2407 10.9527 10.3126 10.9527 10.4014C10.9527 10.4901 11.0238 10.562 11.1114 10.562ZM11.7463 10.4014C11.7463 10.4901 11.6752 10.562 11.5876 10.562C11.4999 10.562 11.4288 10.4901 11.4288 10.4014C11.4288 10.3126 11.4999 10.2407 11.5876 10.2407C11.6752 10.2407 11.7463 10.3126 11.7463 10.4014ZM11.3495 10.2407C11.4372 10.2407 11.5082 10.1688 11.5082 10.0801C11.5082 9.99135 11.4372 9.91943 11.3495 9.91943C11.2618 9.91943 11.1908 9.99135 11.1908 10.0801C11.1908 10.1688 11.2618 10.2407 11.3495 10.2407ZM11.7463 9.75879C11.7463 9.84751 11.6752 9.91943 11.5876 9.91943C11.4999 9.91943 11.4288 9.84751 11.4288 9.75879C11.4288 9.67006 11.4999 9.59814 11.5876 9.59814C11.6752 9.59814 11.7463 9.67006 11.7463 9.75879Z" fill="#013399"/>
<path fill-rule="evenodd" clip-rule="evenodd" d="M9.0368 9.4375H7.93652V10.2387C7.93652 10.2387 8.01817 10.6525 8.48666 10.6525C8.95515 10.6525 9.0368 10.2387 9.0368 10.2387V9.4375ZM8.41274 9.75879C8.41274 9.84751 8.34168 9.91943 8.25401 9.91943C8.16635 9.91943 8.09528 9.84751 8.09528 9.75879C8.09528 9.67006 8.16635 9.59814 8.25401 9.59814C8.34168 9.59814 8.41274 9.67006 8.41274 9.75879ZM8.25401 10.562C8.34168 10.562 8.41274 10.4901 8.41274 10.4014C8.41274 10.3126 8.34168 10.2407 8.25401 10.2407C8.16635 10.2407 8.09528 10.3126 8.09528 10.4014C8.09528 10.4901 8.16635 10.562 8.25401 10.562ZM8.88887 10.4014C8.88887 10.4901 8.8178 10.562 8.73014 10.562C8.64247 10.562 8.57141 10.4901 8.57141 10.4014C8.57141 10.3126 8.64247 10.2407 8.73014 10.2407C8.8178 10.2407 8.88887 10.3126 8.88887 10.4014ZM8.49208 10.2407C8.57974 10.2407 8.65081 10.1688 8.65081 10.0801C8.65081 9.99135 8.57974 9.91943 8.49208 9.91943C8.40441 9.91943 8.33335 9.99135 8.33335 10.0801C8.33335 10.1688 8.40441 10.2407 8.49208 10.2407ZM8.88887 9.75879C8.88887 9.84751 8.8178 9.91943 8.73014 9.91943C8.64247 9.91943 8.57141 9.84751 8.57141 9.75879C8.57141 9.67006 8.64247 9.59814 8.73014 9.59814C8.8178 9.59814 8.88887 9.67006 8.88887 9.75879Z" fill="#013399"/>
<path fill-rule="evenodd" clip-rule="evenodd" d="M10.4655 11.2046H9.36523V12.0058C9.36523 12.0058 9.44688 12.4196 9.91537 12.4196C10.3839 12.4196 10.4655 12.0058 10.4655 12.0058V11.2046ZM9.84145 11.5259C9.84145 11.6146 9.77039 11.6865 9.68272 11.6865C9.59506 11.6865 9.524 11.6146 9.524 11.5259C9.524 11.4372 9.59506 11.3652 9.68272 11.3652C9.77039 11.3652 9.84145 11.4372 9.84145 11.5259ZM9.68272 12.3291C9.77039 12.3291 9.84145 12.2572 9.84145 12.1684C9.84145 12.0797 9.77039 12.0078 9.68272 12.0078C9.59506 12.0078 9.524 12.0797 9.524 12.1684C9.524 12.2572 9.59506 12.3291 9.68272 12.3291ZM10.3176 12.1684C10.3176 12.2572 10.2465 12.3291 10.1588 12.3291C10.0712 12.3291 10.0001 12.2572 10.0001 12.1684C10.0001 12.0797 10.0712 12.0078 10.1588 12.0078C10.2465 12.0078 10.3176 12.0797 10.3176 12.1684ZM9.92079 12.0078C10.0084 12.0078 10.0795 11.9359 10.0795 11.8472C10.0795 11.7584 10.0084 11.6865 9.92079 11.6865C9.83312 11.6865 9.76206 11.7584 9.76206 11.8472C9.76206 11.9359 9.83312 12.0078 9.92079 12.0078ZM10.3176 11.5259C10.3176 11.6146 10.2465 11.6865 10.1588 11.6865C10.0712 11.6865 10.0001 11.6146 10.0001 11.5259C10.0001 11.4372 10.0712 11.3652 10.1588 11.3652C10.2465 11.3652 10.3176 11.4372 10.3176 11.5259Z" fill="#013399"/>
</g>
<rect width="26.6667" height="20" rx="2" fill="url(#paint0_linear_80_5)" style="mix-blend-mode:overlay"/>
<defs>
<linearGradient id="paint0_linear_80_5" x1="13.3333" y1="0" x2="13.3333" y2="20" gradientUnits="userSpaceOnUse">
<stop stop-color="white" stop-opacity="0.7"/>
<stop offset="1" stop-opacity="0.3"/>
</linearGradient>
</defs>
</svg>
