<svg width="24" height="24" viewBox="0 0 24 24" fill="none" xmlns="http://www.w3.org/2000/svg">
<g clip-path="url(#clip0_72_335)">
<path d="M3 3L21 21" stroke="#0C092A" stroke-width="2" stroke-linecap="round" stroke-linejoin="round"/>
<path d="M10.5845 10.5869C10.2092 10.9619 9.99823 11.4707 9.99805 12.0012C9.99786 12.5317 10.2084 13.0406 10.5835 13.4159C10.9585 13.7912 11.4672 14.0021 11.9977 14.0023C12.5283 14.0025 13.0372 13.7919 13.4125 13.4169" stroke="#0C092A" stroke-width="2" stroke-linecap="round" stroke-linejoin="round"/>
<path d="M17.357 17.3491C15.726 18.4491 13.942 19.0001 12 19.0001C8 19.0001 4.667 16.6671 2 12.0001C3.369 9.60506 4.913 7.82506 6.632 6.65906M9.363 5.36506C10.2204 5.11978 11.1082 4.9969 12 5.00006C16 5.00006 19.333 7.33306 22 12.0001C21.222 13.3611 20.388 14.5241 19.497 15.4881L9.363 5.36506Z" stroke="#0C092A" stroke-width="2" stroke-linecap="round" stroke-linejoin="round"/>
</g>
<defs>
<clipPath id="clip0_72_335">
<rect width="24" height="24" fill="white"/>
</clipPath>
</defs>
</svg>
