<svg width="51" height="54" viewBox="0 0 51 54" fill="none" xmlns="http://www.w3.org/2000/svg">
<path fill-rule="evenodd" clip-rule="evenodd" d="M25.4574 6.94293C19.4927 6.94293 14.6574 11.7783 14.6574 17.7429V18.9321C13.5629 19.1157 12.7288 20.0676 12.7288 21.2144V23.9144C12.7288 25.0816 13.5929 26.0469 14.7163 26.2057C15.1149 30.0254 17.5045 33.2529 20.8288 34.8322V38.4078C12.6505 38.9058 6.17171 45.6963 6.17171 53.9999H44.7431C44.7431 45.6963 38.2643 38.9059 30.086 38.4078V34.8322C33.4103 33.2529 35.7999 30.0254 36.1985 26.2057C37.3219 26.0469 38.186 25.0816 38.186 23.9144V21.2144C38.186 20.0676 37.3519 19.1157 36.2574 18.9321V17.7429C36.2574 11.7782 31.4221 6.94293 25.4574 6.94293Z" fill="#D0C6AC"/>
<mask id="mask0_199_3175" style="mask-type:luminance" maskUnits="userSpaceOnUse" x="6" y="6" width="39" height="48">
<path fill-rule="evenodd" clip-rule="evenodd" d="M25.4574 6.94293C19.4927 6.94293 14.6574 11.7783 14.6574 17.7429V18.9321C13.5629 19.1157 12.7288 20.0676 12.7288 21.2144V23.9144C12.7288 25.0816 13.5929 26.0469 14.7163 26.2057C15.1149 30.0254 17.5045 33.2529 20.8288 34.8322V38.4078C12.6505 38.9058 6.17171 45.6963 6.17171 53.9999H44.7431C44.7431 45.6963 38.2643 38.9059 30.086 38.4078V34.8322C33.4103 33.2529 35.7999 30.0254 36.1985 26.2057C37.3219 26.0469 38.186 25.0816 38.186 23.9144V21.2144C38.186 20.0676 37.3519 19.1157 36.2574 18.9321V17.7429C36.2574 11.7782 31.4221 6.94293 25.4574 6.94293Z" fill="white"/>
</mask>
<g mask="url(#mask0_199_3175)">
<rect y="6.94293" width="50.9142" height="47.0571" fill="#FFCCD7"/>
<path fill-rule="evenodd" clip-rule="evenodd" d="M14.6578 25.0716V26.6146C14.6578 32.5793 19.4931 37.4146 25.4578 37.4146C31.4225 37.4146 36.2578 32.5793 36.2578 26.6146V25.0716C36.2578 31.0363 31.4225 35.8716 25.4578 35.8716C19.4931 35.8716 14.6578 31.0363 14.6578 25.0716Z" fill="black" fill-opacity="0.1"/>
</g>
<path fill-rule="evenodd" clip-rule="evenodd" d="M25.4574 43.7887C28.3332 43.7887 30.6645 41.63 30.6645 38.9672C30.6645 38.796 30.6549 38.6269 30.6361 38.4602C38.5522 39.2172 44.7431 45.8857 44.7431 54.0001H6.17171C6.17171 45.8857 12.3626 39.2172 20.2787 38.4602C20.2599 38.6269 20.2503 38.796 20.2503 38.9672C20.2503 41.63 22.5816 43.7887 25.4574 43.7887Z" fill="#909292"/>
<mask id="mask1_199_3175" style="mask-type:luminance" maskUnits="userSpaceOnUse" x="6" y="38" width="39" height="16">
<path fill-rule="evenodd" clip-rule="evenodd" d="M25.4574 43.7887C28.3332 43.7887 30.6645 41.63 30.6645 38.9672C30.6645 38.796 30.6549 38.6269 30.6361 38.4602C38.5522 39.2172 44.7431 45.8857 44.7431 54.0001H6.17171C6.17171 45.8857 12.3626 39.2172 20.2787 38.4602C20.2599 38.6269 20.2503 38.796 20.2503 38.9672C20.2503 41.63 22.5816 43.7887 25.4574 43.7887Z" fill="white"/>
</mask>
<g mask="url(#mask1_199_3175)">
<rect y="32.7857" width="50.9142" height="21.2143" fill="#909292"/>
</g>
<path fill-rule="evenodd" clip-rule="evenodd" d="M31.5591 54C32.215 51.6703 32.5931 48.9296 32.5931 45.9965C32.5931 43.3154 32.2772 40.7951 31.722 38.6025C39.1111 39.8364 44.7431 46.2605 44.7431 54H31.5591ZM19.5486 54H6.17171C6.17171 46.1904 11.9061 39.7202 19.3939 38.5702C18.8336 40.7704 18.5146 43.3023 18.5146 45.9965C18.5146 48.9296 18.8927 51.6703 19.5486 54Z" fill="#0C1626"/>
<path fill-rule="evenodd" clip-rule="evenodd" d="M34.9073 49.3714L35.4624 48.955C36.501 48.1761 37.9325 48.1886 38.9572 48.9857L34.9073 49.3714Z" fill="#E6E6E6"/>
<path fill-rule="evenodd" clip-rule="evenodd" d="M19.4792 38.1857C18.3221 43.7786 20.4435 54 20.4435 54H17.3578L14.6578 47.0572L15.815 45.3214L14.6578 44.1643L18.3221 38.3786C18.3221 38.3786 18.9087 38.1961 19.4792 38.1857Z" fill="#0C092A"/>
<path fill-rule="evenodd" clip-rule="evenodd" d="M31.4364 38.1857C32.5935 43.7786 30.4721 54 30.4721 54H33.5578L36.2578 47.0572L35.1007 45.3214L36.2578 44.1643L32.5935 38.3786C32.5935 38.3786 32.007 38.1961 31.4364 38.1857Z" fill="#0C092A"/>
<path fill-rule="evenodd" clip-rule="evenodd" d="M20.8289 36.9398C19.5228 37.8263 18.7075 39.0838 18.7075 40.4785C18.7075 41.9058 19.5615 43.1894 20.9215 44.0788L22.0672 43.1762L22.9504 43.2401L22.7575 42.6324L22.7725 42.6206C21.596 42.0146 20.8289 41.0209 20.8289 39.8978C20.8289 39.8978 20.8289 39.8977 20.8289 39.8977V36.9398ZM30.0861 39.8977C30.0861 39.8977 30.0861 39.8978 30.0861 39.8978C30.086 41.0209 29.319 42.0146 28.1425 42.6206L28.1575 42.6324L27.9646 43.2401L28.8478 43.1762L29.9936 44.0788C31.3535 43.1894 32.2075 41.9058 32.2075 40.4785C32.2075 39.0838 31.3922 37.8263 30.0861 36.9397V39.8977Z" fill="#0C092A"/>
<path d="M22.7572 28.9286C22.7572 29.9646 23.9448 30.6644 25.4572 30.6644C26.9695 30.6644 28.1572 29.9646 28.1572 28.9286C28.1572 28.7156 27.974 28.5429 27.7715 28.5429C27.5222 28.5429 27.4109 28.7175 27.3858 28.9286C27.1462 29.4952 26.5532 29.8382 25.4572 29.8929C24.3611 29.8382 23.7682 29.4952 23.5286 28.9286C23.5035 28.7175 23.3922 28.5429 23.1429 28.5429C22.9404 28.5429 22.7572 28.7156 22.7572 28.9286Z" fill="#0C092A"/>
<path fill-rule="evenodd" clip-rule="evenodd" d="M23.1429 25.0716C23.1429 25.9237 24.1791 26.6144 25.4572 26.6144C26.7354 26.6144 27.7715 25.9237 27.7715 25.0716" fill="black" fill-opacity="0.16"/>
<ellipse cx="20.4428" cy="21.5999" rx="1.15714" ry="1.15714" fill="#0C092A"/>
<ellipse cx="30.4708" cy="21.5999" rx="1.15714" ry="1.15714" fill="#0C092A"/>
<path d="M17.6714 19.1234C18.4264 18.061 20.4963 17.4653 22.2793 17.9031C22.4861 17.9539 22.695 17.8274 22.7458 17.6205C22.7966 17.4137 22.6701 17.2048 22.4632 17.154C20.3926 16.6455 17.9957 17.3353 17.0426 18.6765C16.9192 18.8502 16.9599 19.091 17.1335 19.2144C17.3072 19.3378 17.548 19.2971 17.6714 19.1234Z" fill="#0C092A"/>
<path d="M33.2423 19.1234C32.4873 18.061 30.4174 17.4653 28.6344 17.9031C28.4275 17.9539 28.2186 17.8274 28.1678 17.6205C28.117 17.4137 28.2435 17.2048 28.4504 17.154C30.5211 16.6455 32.9179 17.3353 33.8711 18.6765C33.9945 18.8502 33.9538 19.091 33.7801 19.2144C33.6065 19.3378 33.3657 19.2971 33.2423 19.1234Z" fill="#0C092A"/>
<mask id="mask2_199_3175" style="mask-type:luminance" maskUnits="userSpaceOnUse" x="0" y="0" width="51" height="54">
<rect width="50.9142" height="54" fill="white"/>
</mask>
<g mask="url(#mask2_199_3175)">
<path fill-rule="evenodd" clip-rule="evenodd" d="M25.5546 31.9837C23.3346 32.0566 22.3443 33.1178 21.5985 32.0394C21.0387 31.2299 21.2729 29.8686 21.796 29.1028C22.5402 28.0128 23.5498 28.54 24.6787 28.4157C24.9856 28.3819 25.294 28.2966 25.5546 28.1572C25.8153 28.2966 26.1236 28.3819 26.4306 28.4157C27.5595 28.54 28.569 28.0128 29.3133 29.1028C29.8363 29.8686 30.0705 31.2299 29.5107 32.0394C28.7649 33.1178 27.7747 31.9108 25.5546 31.9837ZM36.3327 18.9001C35.6722 21.6146 35.3688 24.3838 34.8899 27.1296C34.7901 27.7019 34.6809 28.2723 34.5649 28.8418C34.5405 28.9614 34.5165 29.4055 34.3987 29.4618C34.0417 29.6323 33.3141 28.7256 33.1196 28.5208C32.631 28.0067 32.1465 27.4879 31.5515 27.0844C30.3491 26.2692 28.9413 25.7872 27.4765 25.6728C26.8636 25.6249 26.0349 25.7085 25.4573 26.0571C24.8797 25.7085 24.051 25.6249 23.438 25.6728C21.9732 25.7872 20.5655 26.2692 19.3631 27.0844C18.768 27.4879 18.2836 28.0067 17.795 28.5208C17.6004 28.7256 16.8729 29.6323 16.5159 29.4618C16.398 29.4055 16.374 28.9614 16.3497 28.8418C16.2337 28.2723 16.1244 27.7019 16.0246 27.1296C15.5458 24.3838 15.2424 21.6146 14.5819 18.9001C14.3898 18.9001 14.2211 22.5158 14.1997 22.8526C14.1124 24.2209 14.0105 25.5586 14.1408 26.928C14.3653 29.2903 14.5993 32.2524 16.3993 34.0563C18.0257 35.6863 20.3871 36.0271 22.4239 37.0559C22.6861 37.1884 23.034 37.352 23.4091 37.486C23.8043 37.7874 24.588 37.993 25.4909 37.993C26.4379 37.993 27.2538 37.7668 27.6277 37.441C27.9557 37.3165 28.2572 37.1739 28.4906 37.0559C30.5273 36.0268 32.8888 35.6863 34.5152 34.0563C36.3152 32.2524 36.5493 29.2903 36.7739 26.928C36.904 25.5586 36.8021 24.2209 36.7149 22.8526C36.6934 22.5158 36.5248 18.9001 36.3327 18.9001Z" fill="#0C092A"/>
<mask id="mask3_199_3175" style="mask-type:luminance" maskUnits="userSpaceOnUse" x="14" y="18" width="23" height="20">
<path fill-rule="evenodd" clip-rule="evenodd" d="M25.5546 31.9837C23.3346 32.0566 22.3443 33.1178 21.5985 32.0394C21.0387 31.2299 21.2729 29.8686 21.796 29.1028C22.5402 28.0128 23.5498 28.54 24.6787 28.4157C24.9856 28.3819 25.294 28.2966 25.5546 28.1572C25.8153 28.2966 26.1236 28.3819 26.4306 28.4157C27.5595 28.54 28.569 28.0128 29.3133 29.1028C29.8363 29.8686 30.0705 31.2299 29.5107 32.0394C28.7649 33.1178 27.7747 31.9108 25.5546 31.9837ZM36.3327 18.9001C35.6722 21.6146 35.3688 24.3838 34.8899 27.1296C34.7901 27.7019 34.6809 28.2723 34.5649 28.8418C34.5405 28.9614 34.5165 29.4055 34.3987 29.4618C34.0417 29.6323 33.3141 28.7256 33.1196 28.5208C32.631 28.0067 32.1465 27.4879 31.5515 27.0844C30.3491 26.2692 28.9413 25.7872 27.4765 25.6728C26.8636 25.6249 26.0349 25.7085 25.4573 26.0571C24.8797 25.7085 24.051 25.6249 23.438 25.6728C21.9732 25.7872 20.5655 26.2692 19.3631 27.0844C18.768 27.4879 18.2836 28.0067 17.795 28.5208C17.6004 28.7256 16.8729 29.6323 16.5159 29.4618C16.398 29.4055 16.374 28.9614 16.3497 28.8418C16.2337 28.2723 16.1244 27.7019 16.0246 27.1296C15.5458 24.3838 15.2424 21.6146 14.5819 18.9001C14.3898 18.9001 14.2211 22.5158 14.1997 22.8526C14.1124 24.2209 14.0105 25.5586 14.1408 26.928C14.3653 29.2903 14.5993 32.2524 16.3993 34.0563C18.0257 35.6863 20.3871 36.0271 22.4239 37.0559C22.6861 37.1884 23.034 37.352 23.4091 37.486C23.8043 37.7874 24.588 37.993 25.4909 37.993C26.4379 37.993 27.2538 37.7668 27.6277 37.441C27.9557 37.3165 28.2572 37.1739 28.4906 37.0559C30.5273 36.0268 32.8888 35.6863 34.5152 34.0563C36.3152 32.2524 36.5493 29.2903 36.7739 26.928C36.904 25.5586 36.8021 24.2209 36.7149 22.8526C36.6934 22.5158 36.5248 18.9001 36.3327 18.9001Z" fill="white"/>
</mask>
<g mask="url(#mask3_199_3175)">
<rect x="9.25757" y="13.8859" width="32.4" height="29.3143" fill="#0C092A"/>
</g>
<path fill-rule="evenodd" clip-rule="evenodd" d="M17.9852 10.0326C18.0089 10.0221 17.95 10.018 17.8085 10.0205C17.9805 10.0201 18.0394 10.0242 17.9852 10.0326ZM16.4162 7.00078C16.4158 6.997 16.4194 7.02992 16.4162 7.00078V7.00078ZM37.1767 13.6475C37.1258 13.0078 37.0355 12.372 36.8839 11.747C36.7635 11.2502 36.5989 10.7762 36.4043 10.3023C36.2868 10.0159 36.0124 9.62265 35.9801 9.31376C35.9483 9.00951 36.1857 8.67245 36.2364 8.31821C36.2856 7.97346 36.2772 7.61098 36.2065 7.26936C36.0458 6.49353 35.5134 5.77205 34.6912 5.56982C34.5077 5.52465 34.1196 5.58031 33.9899 5.47342C33.8412 5.35084 33.7377 4.93325 33.603 4.76575C33.2191 4.28824 32.6204 3.98074 31.989 4.08794C31.5241 4.16685 31.7911 4.263 31.4425 3.98936C31.2487 3.83723 31.1039 3.60494 30.9156 3.44025C30.6327 3.19285 30.308 2.98105 29.9722 2.80725C29.0934 2.35248 28.0911 2.02192 27.1094 1.86079C25.3187 1.56684 23.4075 1.82312 21.6717 2.28882C20.808 2.52054 19.9385 2.81462 19.1363 3.20353C18.7924 3.37028 18.5938 3.5086 18.2352 3.55227C17.6703 3.62106 17.192 3.61762 16.657 3.85716C15.0107 4.59425 14.2692 6.30429 14.9098 7.94073C15.0386 8.26985 15.2131 8.55886 15.4536 8.8247C15.7469 9.14883 15.853 9.08504 15.6004 9.45777C15.2227 10.0151 14.9042 10.6095 14.6449 11.2266C13.9643 12.8469 13.8504 14.6718 13.8948 16.3999C13.9103 17.0048 13.9362 17.6172 14.0316 18.2164C14.0728 18.4757 14.0844 18.9633 14.2789 19.1558C14.3776 19.2533 14.5182 19.3078 14.6585 19.2689C14.9882 19.1776 14.8748 18.9343 14.8825 18.7084C14.921 17.5737 14.869 16.5699 15.1388 15.4489C15.3382 14.6207 15.6704 13.8685 16.1009 13.1279C16.6483 12.1859 17.2393 11.3587 17.9922 10.5521C18.1692 10.3624 18.2079 10.282 18.4452 10.2683C18.6249 10.2579 18.8879 10.381 19.0626 10.4236C19.4479 10.5175 19.8339 10.6103 20.2262 10.6736C20.9475 10.7898 21.6617 10.7976 22.3894 10.7748C23.8217 10.73 25.26 10.6296 26.6487 10.2689C27.5709 10.0294 28.3885 9.59953 29.2719 9.2844C29.2876 9.27878 29.509 9.12103 29.5478 9.12746C29.602 9.13639 29.9291 9.47958 29.9843 9.52281C30.4135 9.85943 30.8844 10.0008 31.3479 10.2614C31.9194 10.5828 31.3659 10.1229 31.6812 10.5234C31.773 10.6401 31.8201 10.8564 31.8938 10.9885C32.1283 11.4095 32.4545 11.7794 32.8448 12.073C33.2218 12.3567 33.7885 12.4937 33.9807 12.8628C34.129 13.1477 34.1789 13.5348 34.2986 13.8389C34.6124 14.6364 35.0269 15.3801 35.4414 16.1312C35.7753 16.7366 36.1406 17.2654 36.1777 17.9571C36.1906 18.1979 35.9615 19.6422 36.5196 19.2029C36.6023 19.1378 36.7807 18.4014 36.8173 18.2765C36.966 17.7687 37.0189 17.2387 37.0863 16.717C37.2202 15.6795 37.2642 14.6924 37.1767 13.6475Z" fill="#28354B"/>
<mask id="mask4_199_3175" style="mask-type:luminance" maskUnits="userSpaceOnUse" x="13" y="1" width="25" height="19">
<path fill-rule="evenodd" clip-rule="evenodd" d="M17.9852 10.0326C18.0089 10.0221 17.95 10.018 17.8085 10.0205C17.9805 10.0201 18.0394 10.0242 17.9852 10.0326ZM16.4162 7.00078C16.4158 6.997 16.4194 7.02992 16.4162 7.00078V7.00078ZM37.1767 13.6475C37.1258 13.0078 37.0355 12.372 36.8839 11.747C36.7635 11.2502 36.5989 10.7762 36.4043 10.3023C36.2868 10.0159 36.0124 9.62265 35.9801 9.31376C35.9483 9.00951 36.1857 8.67245 36.2364 8.31821C36.2856 7.97346 36.2772 7.61098 36.2065 7.26936C36.0458 6.49353 35.5134 5.77205 34.6912 5.56982C34.5077 5.52465 34.1196 5.58031 33.9899 5.47342C33.8412 5.35084 33.7377 4.93325 33.603 4.76575C33.2191 4.28824 32.6204 3.98074 31.989 4.08794C31.5241 4.16685 31.7911 4.263 31.4425 3.98936C31.2487 3.83723 31.1039 3.60494 30.9156 3.44025C30.6327 3.19285 30.308 2.98105 29.9722 2.80725C29.0934 2.35248 28.0911 2.02192 27.1094 1.86079C25.3187 1.56684 23.4075 1.82312 21.6717 2.28882C20.808 2.52054 19.9385 2.81462 19.1363 3.20353C18.7924 3.37028 18.5938 3.5086 18.2352 3.55227C17.6703 3.62106 17.192 3.61762 16.657 3.85716C15.0107 4.59425 14.2692 6.30429 14.9098 7.94073C15.0386 8.26985 15.2131 8.55886 15.4536 8.8247C15.7469 9.14883 15.853 9.08504 15.6004 9.45777C15.2227 10.0151 14.9042 10.6095 14.6449 11.2266C13.9643 12.8469 13.8504 14.6718 13.8948 16.3999C13.9103 17.0048 13.9362 17.6172 14.0316 18.2164C14.0728 18.4757 14.0844 18.9633 14.2789 19.1558C14.3776 19.2533 14.5182 19.3078 14.6585 19.2689C14.9882 19.1776 14.8748 18.9343 14.8825 18.7084C14.921 17.5737 14.869 16.5699 15.1388 15.4489C15.3382 14.6207 15.6704 13.8685 16.1009 13.1279C16.6483 12.1859 17.2393 11.3587 17.9922 10.5521C18.1692 10.3624 18.2079 10.282 18.4452 10.2683C18.6249 10.2579 18.8879 10.381 19.0626 10.4236C19.4479 10.5175 19.8339 10.6103 20.2262 10.6736C20.9475 10.7898 21.6617 10.7976 22.3894 10.7748C23.8217 10.73 25.26 10.6296 26.6487 10.2689C27.5709 10.0294 28.3885 9.59953 29.2719 9.2844C29.2876 9.27878 29.509 9.12103 29.5478 9.12746C29.602 9.13639 29.9291 9.47958 29.9843 9.52281C30.4135 9.85943 30.8844 10.0008 31.3479 10.2614C31.9194 10.5828 31.3659 10.1229 31.6812 10.5234C31.773 10.6401 31.8201 10.8564 31.8938 10.9885C32.1283 11.4095 32.4545 11.7794 32.8448 12.073C33.2218 12.3567 33.7885 12.4937 33.9807 12.8628C34.129 13.1477 34.1789 13.5348 34.2986 13.8389C34.6124 14.6364 35.0269 15.3801 35.4414 16.1312C35.7753 16.7366 36.1406 17.2654 36.1777 17.9571C36.1906 18.1979 35.9615 19.6422 36.5196 19.2029C36.6023 19.1378 36.7807 18.4014 36.8173 18.2765C36.966 17.7687 37.0189 17.2387 37.0863 16.717C37.2202 15.6795 37.2642 14.6924 37.1767 13.6475Z" fill="white"/>
</mask>
<g mask="url(#mask4_199_3175)">
<rect x="0.000986527" width="50.9142" height="54" fill="#0C092A"/>
</g>
</g>
</svg>
