<svg width="60" height="60" viewBox="0 0 60 60" fill="none" xmlns="http://www.w3.org/2000/svg">
<circle cx="28" cy="28" r="28" fill="#C4D0FB"/>
<mask id="mask0_199_520" style="mask-type:alpha" maskUnits="userSpaceOnUse" x="0" y="0" width="56" height="56">
<circle cx="28" cy="28" r="28" fill="#C4C4C4"/>
</mask>
<g mask="url(#mask0_199_520)">
<path fill-rule="evenodd" clip-rule="evenodd" d="M28.0002 14.4961C22.3769 14.4961 17.8184 19.0546 17.8184 24.6779V25.7142C16.7865 25.8874 16.0002 26.7848 16.0002 27.8659V30.3594C16.0002 31.4624 16.8186 32.3742 17.8813 32.5207C18.2787 36.0914 20.5226 39.1047 23.6365 40.5839V43.9311C15.9353 44.3456 9.81836 50.7215 9.81836 58.5262H46.182C46.182 50.7215 40.065 44.3456 32.3638 43.9311V40.5839C35.4777 39.1047 37.7217 36.0914 38.119 32.5207C39.1817 32.3742 40.0002 31.4624 40.0002 30.3594V27.8659C40.0002 26.7848 39.2139 25.8874 38.182 25.7142V24.6779C38.182 19.0546 33.6234 14.4961 28.0002 14.4961Z" fill="#D0C6AC"/>
<mask id="mask1_199_520" style="mask-type:luminance" maskUnits="userSpaceOnUse" x="9" y="14" width="38" height="45">
<path fill-rule="evenodd" clip-rule="evenodd" d="M28.0002 14.4961C22.3769 14.4961 17.8184 19.0546 17.8184 24.6779V25.7142C16.7865 25.8874 16.0002 26.7848 16.0002 27.8659V30.3594C16.0002 31.4624 16.8186 32.3742 17.8813 32.5207C18.2787 36.0914 20.5226 39.1047 23.6365 40.5839V43.9311C15.9353 44.3456 9.81836 50.7215 9.81836 58.5262H46.182C46.182 50.7215 40.065 44.3456 32.3638 43.9311V40.5839C35.4777 39.1047 37.7217 36.0914 38.119 32.5207C39.1817 32.3742 40.0002 31.4624 40.0002 30.3594V27.8659C40.0002 26.7848 39.2139 25.8874 38.182 25.7142V24.6779C38.182 19.0546 33.6234 14.4961 28.0002 14.4961Z" fill="white"/>
</mask>
<g mask="url(#mask1_199_520)">
<rect x="4" y="14.4961" width="48" height="44.0301" fill="#D08B5B"/>
<path fill-rule="evenodd" clip-rule="evenodd" d="M17.8184 31.3818V32.8254C17.8184 38.4487 22.3769 43.0073 28.0002 43.0073C33.6234 43.0073 38.182 38.4487 38.182 32.8254V31.3818C38.182 37.0051 33.6234 41.5637 28.0002 41.5637C22.3769 41.5637 17.8184 37.0051 17.8184 31.3818Z" fill="black" fill-opacity="0.1"/>
</g>
<path fill-rule="evenodd" clip-rule="evenodd" d="M28.0911 48.0291C31.455 48.0291 34.182 46.2937 34.182 44.153C34.182 44.1524 34.182 44.1518 34.182 44.1512C41.0054 45.3806 46.182 51.349 46.182 58.5264H9.81836C9.81836 51.2853 15.0873 45.2748 22.0004 44.1196C22.0003 44.1308 22.0002 44.1419 22.0002 44.153C22.0002 46.2937 24.7272 48.0291 28.0911 48.0291Z" fill="#E6E6E6"/>
<mask id="mask2_199_520" style="mask-type:luminance" maskUnits="userSpaceOnUse" x="9" y="44" width="38" height="15">
<path fill-rule="evenodd" clip-rule="evenodd" d="M28.0911 48.0291C31.455 48.0291 34.182 46.2937 34.182 44.153C34.182 44.1524 34.182 44.1518 34.182 44.1512C41.0054 45.3806 46.182 51.349 46.182 58.5264H9.81836C9.81836 51.2853 15.0873 45.2748 22.0004 44.1196C22.0003 44.1308 22.0002 44.1419 22.0002 44.153C22.0002 46.2937 24.7272 48.0291 28.0911 48.0291Z" fill="white"/>
</mask>
<g mask="url(#mask2_199_520)">
<rect x="4" y="38.6768" width="48" height="19.8496" fill="#555FA8"/>
<g opacity="0.6">
<ellipse cx="28.0911" cy="44.4235" rx="7.20638" ry="4.85663" fill="black" fill-opacity="0.16"/>
</g>
</g>
<path d="M25.4551 35.0674C25.4551 36.0368 26.5747 36.6915 28.0005 36.6915C29.4263 36.6915 30.546 36.0368 30.546 35.0674C30.546 34.8681 30.3733 34.7065 30.1824 34.7065C29.9473 34.7065 29.8424 34.8699 29.8187 35.0674C29.5928 35.5976 29.0339 35.9185 28.0005 35.9697C26.9672 35.9185 26.4082 35.5976 26.1824 35.0674C26.1587 34.8699 26.0538 34.7065 25.8187 34.7065C25.6278 34.7065 25.4551 34.8681 25.4551 35.0674Z" fill="black" fill-opacity="0.6"/>
<path fill-rule="evenodd" clip-rule="evenodd" d="M25.8184 31.459C25.8184 32.2563 26.7952 32.9026 28.0002 32.9026C29.2052 32.9026 30.182 32.2563 30.182 31.459" fill="black" fill-opacity="0.16"/>
<ellipse cx="23.273" cy="28.2101" rx="1.09091" ry="1.08271" fill="black" fill-opacity="0.6"/>
<ellipse cx="32.7276" cy="28.2101" rx="1.09091" ry="1.08271" fill="black" fill-opacity="0.6"/>
<path d="M20.6601 25.893C21.3719 24.899 23.3233 24.3415 25.0042 24.7512C25.1993 24.7988 25.3962 24.6804 25.4441 24.4868C25.492 24.2932 25.3727 24.0978 25.1777 24.0503C23.2255 23.5745 20.9659 24.2199 20.0673 25.4749C19.9509 25.6374 19.9893 25.8627 20.153 25.9781C20.3167 26.0936 20.5437 26.0555 20.6601 25.893Z" fill="black" fill-opacity="0.6"/>
<path d="M35.3399 25.893C34.6281 24.899 32.6767 24.3415 30.9958 24.7512C30.8008 24.7988 30.6038 24.6804 30.5559 24.4868C30.508 24.2932 30.6273 24.0978 30.8223 24.0503C32.7745 23.5745 35.0341 24.2199 35.9327 25.4749C36.0491 25.6374 36.0107 25.8627 35.847 25.9781C35.6833 26.0936 35.4563 26.0555 35.3399 25.893Z" fill="black" fill-opacity="0.6"/>
<mask id="mask3_199_520" style="mask-type:luminance" maskUnits="userSpaceOnUse" x="4" y="8" width="48" height="51">
<rect x="4" y="8" width="48" height="50.5263" fill="white"/>
</mask>
<g mask="url(#mask3_199_520)">
<path fill-rule="evenodd" clip-rule="evenodd" d="M18.0001 25.6842C17.9406 25.9048 17.6995 25.9528 17.6364 25.6842C17.5057 23.8259 17.6364 14.4467 28.0001 14.3158C38.3637 14.1848 38.4945 23.8259 38.3637 25.6842C38.3006 25.9528 38.0596 25.9048 38.0001 25.6842C38.0842 25.4037 37.4008 20.4959 35.6364 19.188C35.3166 18.9672 34.3188 18.7567 32.9745 18.5995L33.6365 17.0225L32.3671 18.5345C31.0885 18.4093 29.5742 18.3311 28.0569 18.33C24.547 18.3275 21.0216 18.7338 20.3637 19.188C18.5993 20.4959 17.9159 25.4037 18.0001 25.6842Z" fill="#28354B"/>
<mask id="mask4_199_520" style="mask-type:luminance" maskUnits="userSpaceOnUse" x="17" y="14" width="22" height="12">
<path fill-rule="evenodd" clip-rule="evenodd" d="M18.0001 25.6842C17.9406 25.9048 17.6995 25.9528 17.6364 25.6842C17.5057 23.8259 17.6364 14.4467 28.0001 14.3158C38.3637 14.1848 38.4945 23.8259 38.3637 25.6842C38.3006 25.9528 38.0596 25.9048 38.0001 25.6842C38.0842 25.4037 37.4008 20.4959 35.6364 19.188C35.3166 18.9672 34.3188 18.7567 32.9745 18.5995L33.6365 17.0225L32.3671 18.5345C31.0885 18.4093 29.5742 18.3311 28.0569 18.33C24.547 18.3275 21.0216 18.7338 20.3637 19.188C18.5993 20.4959 17.9159 25.4037 18.0001 25.6842Z" fill="white"/>
</mask>
<g mask="url(#mask4_199_520)">
<rect x="4" y="8" width="48" height="50.5263" fill="#2C1B18"/>
</g>
<g filter="url(#filter0_d_199_520)">
<path fill-rule="evenodd" clip-rule="evenodd" d="M24.9545 26.0951C25.3857 26.0991 25.5896 26.1703 25.663 26.6166C25.7375 27.0687 25.6651 27.5769 25.5793 28.0222C25.4483 28.7022 25.2304 29.3683 24.7234 29.8653C24.4562 30.127 24.1304 30.3356 23.7839 30.4781C23.5999 30.5537 23.4056 30.6083 23.2113 30.6498C23.1545 30.6619 22.6696 30.7282 22.967 30.6945C22.273 30.7731 21.5202 30.77 20.9406 30.3316C20.2983 29.8458 19.8584 29.077 19.665 28.3112C19.5518 27.8631 19.314 26.7915 19.7485 26.4332C20.2462 26.0228 24.9545 26.0951 24.9545 26.0951ZM20.5853 24.8708C19.5962 24.9046 18.936 25.0771 18.4482 26.0579C17.554 27.8554 19.0844 30.5511 20.7916 31.2856C22.7874 32.1445 25.017 31.194 26.0722 29.4751C26.631 28.5649 26.9135 27.1865 26.8953 26.1363C26.8721 24.7961 25.9288 24.7589 24.8201 24.7884L20.5853 24.8708Z" fill="#44509F"/>
<path fill-rule="evenodd" clip-rule="evenodd" d="M31.0334 26.0945C30.6022 26.0986 30.3984 26.1697 30.3249 26.6161C30.2505 27.0681 30.3228 27.5764 30.4086 28.0217C30.5397 28.7016 30.7575 29.3678 31.2646 29.8648C31.5317 30.1265 31.8575 30.3351 32.2041 30.4776C32.3881 30.5532 32.5824 30.6078 32.7767 30.6493C32.8335 30.6613 33.3183 30.7277 33.0209 30.6939C33.7149 30.7726 34.4678 30.7694 35.0474 30.3311C35.6897 29.8452 36.1296 29.0765 36.323 28.3107C36.4362 27.8626 36.6739 26.791 36.2395 26.4327C35.7418 26.0222 31.0334 26.0945 31.0334 26.0945ZM35.4026 24.8703C36.3918 24.9041 37.0519 25.0766 37.5398 26.0574C38.4338 27.8549 36.9035 30.5506 35.1963 31.2852C33.2005 32.144 30.9709 31.1935 29.9157 29.4746C29.357 28.5644 29.0745 27.1859 29.0926 26.1358C29.1158 24.7955 30.0591 24.7584 31.1678 24.7879L35.4026 24.8703Z" fill="#44509F"/>
<path fill-rule="evenodd" clip-rule="evenodd" d="M18.9453 25.6713C18.325 25.7059 17.6161 25.7142 17.035 25.9804C16.4196 26.2622 16.3245 26.9005 17.1003 26.9885C17.4497 27.0281 17.7995 26.9626 18.1436 26.9017C18.4253 26.8518 18.8081 26.8679 19.0744 26.7611C19.5705 26.562 19.5387 25.6376 18.9453 25.6713Z" fill="#44509F"/>
<path fill-rule="evenodd" clip-rule="evenodd" d="M37.0432 25.6713C37.6636 25.7059 38.3725 25.7142 38.9536 25.9804C39.5689 26.2622 39.664 26.9005 38.8882 26.9885C38.5388 27.0281 38.189 26.9626 37.845 26.9017C37.5632 26.8518 37.1805 26.8679 36.9142 26.7611C36.4179 26.562 36.4499 25.6376 37.0432 25.6713Z" fill="#44509F"/>
<path fill-rule="evenodd" clip-rule="evenodd" d="M29.8382 26.0477C29.4843 25.6327 28.5622 25.3931 27.9804 25.3931C27.3986 25.3931 26.5034 25.6327 26.1496 26.0477C25.9712 26.257 25.9651 26.537 26.2744 26.6682C26.6594 26.8316 27.0033 26.5353 27.3115 26.3803C27.7058 26.182 28.3114 26.2038 28.6763 26.3803C28.9869 26.5305 29.3283 26.8316 29.7135 26.6682C30.0227 26.537 30.0167 26.257 29.8382 26.0477Z" fill="#44509F"/>
</g>
</g>
</g>
<mask id="mask5_199_520" style="mask-type:alpha" maskUnits="userSpaceOnUse" x="40" y="40" width="20" height="20">
<rect x="40" y="40" width="20" height="20" rx="4" fill="#C4C4C4"/>
</mask>
<g mask="url(#mask5_199_520)">
<g filter="url(#filter1_d_199_520)">
<g clip-path="url(#clip0_199_520)">
<mask id="mask6_199_520" style="mask-type:luminance" maskUnits="userSpaceOnUse" x="37" y="40" width="27" height="20">
<rect x="37" y="40" width="26.6667" height="20" fill="white"/>
</mask>
<g mask="url(#mask6_199_520)">
<path fill-rule="evenodd" clip-rule="evenodd" d="M37 40V60H63.6667V40H37Z" fill="#E31D1C"/>
<mask id="mask7_199_520" style="mask-type:luminance" maskUnits="userSpaceOnUse" x="37" y="40" width="27" height="20">
<path fill-rule="evenodd" clip-rule="evenodd" d="M37 40V60H63.6667V40H37Z" fill="white"/>
</mask>
<g mask="url(#mask7_199_520)">
<path fill-rule="evenodd" clip-rule="evenodd" d="M37 38.3335V50.0002H63.6667V38.3335H37Z" fill="#F7FCFF"/>
</g>
<path fill-rule="evenodd" clip-rule="evenodd" d="M37 40V60L52 50L37 40Z" fill="#3D58DB"/>
<mask id="mask8_199_520" style="mask-type:luminance" maskUnits="userSpaceOnUse" x="37" y="40" width="15" height="20">
<path fill-rule="evenodd" clip-rule="evenodd" d="M37 40V60L52 50L37 40Z" fill="white"/>
</mask>
<g mask="url(#mask8_199_520)">
</g>
</g>
<rect x="37" y="40" width="26.6667" height="20" fill="url(#paint0_linear_199_520)" style="mix-blend-mode:overlay"/>
</g>
</g>
</g>
<defs>
<filter id="filter0_d_199_520" x="16.5459" y="24.7822" width="22.897" height="8.82471" filterUnits="userSpaceOnUse" color-interpolation-filters="sRGB">
<feFlood flood-opacity="0" result="BackgroundImageFix"/>
<feColorMatrix in="SourceAlpha" type="matrix" values="0 0 0 0 0 0 0 0 0 0 0 0 0 0 0 0 0 0 127 0" result="hardAlpha"/>
<feOffset dy="2"/>
<feColorMatrix type="matrix" values="0 0 0 0 0 0 0 0 0 0 0 0 0 0 0 0 0 0 0.1 0"/>
<feBlend mode="normal" in2="BackgroundImageFix" result="effect1_dropShadow_199_520"/>
<feBlend mode="normal" in="SourceGraphic" in2="effect1_dropShadow_199_520" result="shape"/>
</filter>
<filter id="filter1_d_199_520" x="34" y="39" width="32.6665" height="26" filterUnits="userSpaceOnUse" color-interpolation-filters="sRGB">
<feFlood flood-opacity="0" result="BackgroundImageFix"/>
<feColorMatrix in="SourceAlpha" type="matrix" values="0 0 0 0 0 0 0 0 0 0 0 0 0 0 0 0 0 0 127 0" result="hardAlpha"/>
<feOffset dy="2"/>
<feGaussianBlur stdDeviation="1.5"/>
<feColorMatrix type="matrix" values="0 0 0 0 0 0 0 0 0 0 0 0 0 0 0 0 0 0 0.1 0"/>
<feBlend mode="normal" in2="BackgroundImageFix" result="effect1_dropShadow_199_520"/>
<feBlend mode="normal" in="SourceGraphic" in2="effect1_dropShadow_199_520" result="shape"/>
</filter>
<linearGradient id="paint0_linear_199_520" x1="50.3333" y1="40" x2="50.3333" y2="60" gradientUnits="userSpaceOnUse">
<stop stop-color="white" stop-opacity="0.7"/>
<stop offset="1" stop-opacity="0.3"/>
</linearGradient>
<clipPath id="clip0_199_520">
<rect x="37" y="40" width="26.6667" height="20" rx="2" fill="white"/>
</clipPath>
</defs>
</svg>
