<svg width="54" height="63" viewBox="0 0 54 63" fill="none" xmlns="http://www.w3.org/2000/svg">
<mask id="mask0_199_1644" style="mask-type:alpha" maskUnits="userSpaceOnUse" x="0" y="0" width="54" height="63">
<path fill-rule="evenodd" clip-rule="evenodd" d="M25.3243 48.3432C27.19 48.2552 29.0246 47.9524 30.7951 47.4493L33.2936 49.9706C35.6441 52.3425 39.4637 52.3512 41.8249 49.99C44.1861 47.6288 44.1948 43.7918 41.8443 41.4199L39.007 38.5568C38.4575 38.0023 37.8276 37.5769 37.1549 37.2808C35.2691 36.0142 32.6443 36.2087 30.5237 37.2384C28.7704 38.0898 26.8486 38.5866 24.8686 38.68C21.2605 38.8501 17.7186 37.6684 14.9354 35.366C12.1522 33.0635 10.3278 29.8058 9.81884 26.2297C9.30988 22.6536 10.153 19.0162 12.1833 16.0287C14.2136 13.0411 17.2852 10.9182 20.7976 10.075C24.3099 9.23175 28.0105 9.7288 31.1758 11.469C34.3412 13.2091 36.7437 16.0673 37.9137 19.4847C38.5558 21.36 38.8014 23.3297 38.6552 25.2733C38.4549 27.9372 39.4901 30.8081 41.9418 31.8691C44.3935 32.93 47.2942 31.8024 47.8469 29.1888C48.7439 24.9464 48.4899 20.5095 47.0662 16.3511C45.1161 10.6554 41.1119 5.89184 35.8363 2.99157C30.5607 0.0912984 24.3931 -0.737116 18.5392 0.668282C12.6853 2.07368 7.566 5.61184 4.18213 10.5911C0.79825 15.5703 -0.606912 21.6326 0.241348 27.5928C1.08961 33.5529 4.1303 38.9825 8.76897 42.8199C13.4076 46.6574 19.3108 48.6268 25.3243 48.3432ZM43.576 52.6454C41.2148 55.0066 41.2061 58.8435 43.5566 61.2154C45.907 63.5873 49.7266 63.596 52.0878 61.2348C54.449 58.8736 54.4577 55.0366 52.1073 52.6647C49.7568 50.2929 45.9372 50.2842 43.576 52.6454Z" fill="white"/>
</mask>
<g mask="url(#mask0_199_1644)">
<path fill-rule="evenodd" clip-rule="evenodd" d="M32.7338 82.6321L81.6244 33.459L71.0535 23.1773L15.1156 79.9499L32.7338 82.6321Z" fill="white"/>
<path fill-rule="evenodd" clip-rule="evenodd" d="M23.1306 69.5319L70.5396 22.8591L60.289 13.1002L6.04625 66.9861L23.1306 69.5319Z" fill="white"/>
<path fill-rule="evenodd" clip-rule="evenodd" d="M8.87099 67.5443L64.5811 11.4286L54.8165 0.938601L-0.893621 57.0543L8.87099 67.5443Z" fill="white"/>
<path fill-rule="evenodd" clip-rule="evenodd" d="M-1.1884 58.4471L54.4163 2.17265L39.9678 -4.03083L-9.06938 45.597L-1.1884 58.4471Z" fill="white"/>
<path fill-rule="evenodd" clip-rule="evenodd" d="M-9.06938 46.3546L41.3161 -4.03083L14.3239 -1.33162L-9.06938 24.311V46.3546Z" fill="white"/>
</g>
</svg>
