<svg width="29" height="29" viewBox="0 0 29 29" fill="none" xmlns="http://www.w3.org/2000/svg">
<g clip-path="url(#clip0_81_2148)">
<path d="M14.4997 25.3753C13.0716 25.3753 11.6574 25.094 10.338 24.5475C9.01857 24.0009 7.81971 23.1999 6.80987 22.19C5.80002 21.1802 4.99897 19.9813 4.45245 18.6619C3.90592 17.3425 3.62463 15.9283 3.62463 14.5002C3.62463 13.0721 3.90592 11.6579 4.45245 10.3385C4.99897 9.01906 5.80002 7.8202 6.80987 6.81036C7.81971 5.80051 9.01857 4.99946 10.338 4.45294C11.6574 3.90641 13.0716 3.62512 14.4997 3.62512C17.384 3.62512 20.1501 4.64358 22.1895 6.45644C24.229 8.26931 25.3748 10.7281 25.3748 13.2919C25.3748 14.5737 24.8019 15.8031 23.7822 16.7096C22.7624 17.616 21.3794 18.1252 19.9372 18.1252H16.9164C16.3773 18.1165 15.8508 18.2884 15.4206 18.6134C14.9904 18.9384 14.6813 19.3979 14.5424 19.9189C14.4034 20.4399 14.4427 20.9923 14.6539 21.4884C14.8652 21.9844 15.2362 22.3956 15.708 22.6565C15.9493 22.8791 16.1148 23.1717 16.1812 23.4932C16.2476 23.8147 16.2116 24.1489 16.0782 24.4489C15.9449 24.7489 15.7209 24.9996 15.4378 25.1658C15.1547 25.3319 14.8266 25.4052 14.4997 25.3753" stroke="white" stroke-width="2" stroke-linecap="round" stroke-linejoin="round"/>
<path d="M9.06295 13.2918C9.39663 13.2918 9.66713 13.0213 9.66713 12.6876C9.66713 12.3539 9.39663 12.0834 9.06295 12.0834C8.72928 12.0834 8.45878 12.3539 8.45878 12.6876C8.45878 13.0213 8.72928 13.2918 9.06295 13.2918Z" fill="white" stroke="white" stroke-width="2" stroke-linecap="round" stroke-linejoin="round"/>
<path d="M14.4999 9.66663C14.8336 9.66663 15.1041 9.39614 15.1041 9.06246C15.1041 8.72879 14.8336 8.45829 14.4999 8.45829C14.1662 8.45829 13.8957 8.72879 13.8957 9.06246C13.8957 9.39614 14.1662 9.66663 14.4999 9.66663Z" fill="white" stroke="white" stroke-width="2" stroke-linecap="round" stroke-linejoin="round"/>
<path d="M19.9378 13.2918C20.2715 13.2918 20.542 13.0213 20.542 12.6876C20.542 12.3539 20.2715 12.0834 19.9378 12.0834C19.6042 12.0834 19.3337 12.3539 19.3337 12.6876C19.3337 13.0213 19.6042 13.2918 19.9378 13.2918Z" fill="white" stroke="white" stroke-width="2" stroke-linecap="round" stroke-linejoin="round"/>
</g>
<defs>
<clipPath id="clip0_81_2148">
<rect width="28.8" height="28.8" fill="white" transform="scale(1.00695)"/>
</clipPath>
</defs>
</svg>
