<svg width="64" height="64" viewBox="0 0 64 64" fill="none" xmlns="http://www.w3.org/2000/svg">
<g clip-path="url(#clip0_199_2236)">
<rect width="64" height="64" rx="20" fill="#FFC2CD"/>
<rect x="8" y="16" width="48" height="66" rx="8" fill="white"/>
<path d="M19.333 24L16.9997 24C16.4474 24 15.9997 24.4477 15.9997 25L15.9997 55C15.9997 55.5523 16.4474 56 16.9997 56L19.333 56" stroke="#FFC2CC" stroke-width="3" stroke-linecap="round"/>
<rect x="23" y="30.6667" width="6" height="6" rx="3" fill="#FFD6DD"/>
<rect x="23" y="42.6667" width="6" height="6" rx="3" fill="#FFD6DD"/>
<rect x="35" y="30.6667" width="6" height="6" rx="3" fill="#FFD6DD"/>
<rect x="35" y="42.6667" width="6" height="6" rx="3" fill="#FFD6DD"/>
<path d="M44.6667 24L47 24C47.5523 24 48 24.4477 48 25L48 55C48 55.5523 47.5523 56 47 56L44.6667 56" stroke="#FFC2CC" stroke-width="3" stroke-linecap="round"/>
</g>
<defs>
<clipPath id="clip0_199_2236">
<rect width="64" height="64" rx="20" fill="white"/>
</clipPath>
</defs>
</svg>
