<svg width="43" height="93" viewBox="0 0 43 93" fill="none" xmlns="http://www.w3.org/2000/svg">
<path d="M43 30.95C43 31.8643 42.9864 32.7786 42.9591 33.6792C42.9455 34.266 42.9182 34.8392 42.8909 35.426C42.7819 37.7731 42.5774 40.1067 42.2774 42.4266C42.2093 43.027 42.1275 43.6138 42.032 44.2006C41.9366 44.9238 41.8139 45.6335 41.6912 46.3567C41.5821 47.039 41.4594 47.7077 41.3231 48.39C41.2958 48.5538 41.2549 48.7175 41.2276 48.8813C41.1186 49.4408 40.9959 50.0139 40.8732 50.5734C40.2328 53.4818 39.4456 56.3557 38.5146 59.1843C38.3373 59.7438 38.1465 60.2897 37.9556 60.8219C37.939 60.8875 37.9162 60.9515 37.8874 61.0129C37.6966 61.5724 37.5057 62.1046 37.3012 62.6505C37.2467 62.8142 37.1785 62.9916 37.1103 63.169C36.8922 63.7558 36.6604 64.329 36.4287 64.9021C36.1696 65.5572 35.897 66.2122 35.6107 66.8536C35.3244 67.5222 35.0244 68.1909 34.7245 68.8596C34.4382 69.4737 34.1382 70.0877 33.8519 70.6882C33.5384 71.3296 33.2248 71.9573 32.8976 72.5714C32.5704 73.1855 32.2432 73.8132 31.9023 74.4273C31.5615 75.0414 31.2207 75.6555 30.8798 76.2559C30.539 76.8563 30.1709 77.4704 29.8028 78.0709C29.4347 78.6713 29.0666 79.2581 28.6848 79.8449C27.935 81.0185 27.1579 82.1784 26.3535 83.3111C25.5491 84.4437 24.7039 85.5627 23.8586 86.6681C22.577 88.292 21.2501 89.875 19.8776 91.417H19.864C19.8503 91.4307 19.8503 91.4307 19.8503 91.4443C19.8503 91.4479 19.849 91.4514 19.8464 91.454C19.8438 91.4565 19.8404 91.458 19.8367 91.458C19.3732 91.9765 18.896 92.4951 18.4188 93C16.2707 91.1523 14.2738 89.1352 12.4474 86.9683C12.4336 86.9424 12.4151 86.9193 12.3929 86.9001C4.37516 77.3821 -0.0153764 65.3294 4.04629e-05 52.8797V0H37.5875C37.8874 0.818782 38.1737 1.63756 38.4328 2.46999L38.4464 2.48361C38.4476 2.50689 38.4523 2.52991 38.46 2.55187H38.4737V2.5928C38.4729 2.60021 38.4735 2.60771 38.4759 2.61479C38.4783 2.62186 38.4823 2.62835 38.4873 2.63374H38.5009C38.5131 2.68578 38.5314 2.73616 38.5555 2.78383L38.7191 3.31605C39.1826 4.76257 39.6053 6.22273 39.987 7.71018C40.2597 8.70637 40.5051 9.72982 40.7368 10.7533C41.1595 12.6092 41.5276 14.5061 41.8412 16.4302C41.9093 16.8942 41.9911 17.3445 42.0457 17.8085C42.2093 18.9412 42.3592 20.0738 42.4819 21.2201C42.5365 21.6431 42.5774 22.0798 42.6046 22.5029C42.6864 23.2943 42.741 24.0995 42.7955 24.891C42.9318 26.897 43 28.9167 43 30.95Z" fill="#C4D0FB"/>
</svg>
