<svg width="295" height="148" viewBox="0 0 295 148" fill="none" xmlns="http://www.w3.org/2000/svg">
<path d="M0 20C0 8.9543 8.95431 0 20 0H275C286.046 0 295 8.9543 295 20V148H0V20Z" fill="#FF8FA2"/>
<mask id="mask0_203_11060" style="mask-type:alpha" maskUnits="userSpaceOnUse" x="0" y="0" width="295" height="148">
<path d="M0 20C0 8.9543 8.95431 0 20 0H275C286.046 0 295 8.9543 295 20V148H0V20Z" fill="#FF8FA2"/>
</mask>
<g mask="url(#mask0_203_11060)">
<path opacity="0.2" fill-rule="evenodd" clip-rule="evenodd" d="M235 24C238.314 24 241 21.3137 241 18C241 14.6863 238.314 12 235 12C231.686 12 229 14.6863 229 18C229 21.3137 231.686 24 235 24Z" fill="white"/>
<path opacity="0.2" fill-rule="evenodd" clip-rule="evenodd" d="M129 183C144.464 183 157 170.464 157 155C157 139.536 144.464 127 129 127C113.536 127 101 139.536 101 155C101 170.464 113.536 183 129 183Z" fill="white"/>
<path opacity="0.1" fill-rule="evenodd" clip-rule="evenodd" d="M273.219 162.125C289.183 162.125 302.125 149.183 302.125 133.219C302.125 117.254 289.183 104.312 273.219 104.312C257.254 104.312 244.312 117.254 244.312 133.219C244.312 149.183 257.254 162.125 273.219 162.125Z" fill="white"/>
<path opacity="0.3" fill-rule="evenodd" clip-rule="evenodd" d="M274 184C301.614 184 324 161.614 324 134C324 106.386 301.614 84 274 84C246.386 84 224 106.386 224 134C224 161.614 246.386 184 274 184Z" stroke="white"/>
</g>
</svg>
