<svg width="64" height="56" viewBox="0 0 64 56" fill="none" xmlns="http://www.w3.org/2000/svg">
<path d="M63.7967 30.7505C63.4062 34.801 62.1336 38.717 60.0682 42.2238C58.004 45.7305 55.1976 48.7431 51.8455 51.0503C48.4934 53.3575 44.6767 54.9035 40.6635 55.5798C36.6516 56.256 32.5396 56.0463 28.6159 54.9651C24.6933 53.8839 21.0542 51.9575 17.9538 49.3211C14.8546 46.6848 12.3681 43.4021 10.6709 39.7035C8.97485 36.0047 8.10682 31.9796 8.13035 27.9104C8.15387 23.841 9.06659 19.826 10.8062 16.147C15.6944 5.83662 26.6552 -0.818216 38.6711 0.328561C54.0132 1.79173 65.2634 15.4131 63.7967 30.7505Z" fill="#C4D0FB"/>
<path d="M8.92465 13.8464L9.6433 12.5396C9.94557 11.8873 10.2137 11.2199 10.4478 10.5401C10.8101 9.47332 10.683 7.95251 12.2697 6.51639C13.8564 5.08028 11.5099 5.47665 10.7171 6.13884C10.0561 6.69047 9.51862 8.25597 8.86114 8.60882C8.71058 8.39629 8.59179 8.1634 8.50828 7.91723L7.07099 1.18241C7.04982 1.07455 6.99101 0.977754 6.90515 0.909888C6.81811 0.84214 6.7099 0.807678 6.60051 0.813088L6.33705 0.821322C6.27354 0.824733 6.2112 0.841434 6.15357 0.870368C6.09711 0.899303 6.04653 0.939763 6.00654 0.98928C5.96538 1.0388 5.93597 1.0962 5.91951 1.15783C5.90186 1.21946 5.89833 1.28391 5.90774 1.34707C6.12887 2.7879 6.89691 7.07508 6.81928 7.07743L6.6605 7.15271L4.45634 0.330854C4.42575 0.223116 4.35636 0.13055 4.26227 0.0705648C4.167 0.0106972 4.05408 -0.0122384 3.94352 0.0062277L3.59067 0.0650368C3.5295 0.0746815 3.4707 0.0966761 3.41894 0.129844C3.36601 0.162895 3.32132 0.206296 3.28603 0.25746C3.25193 0.308506 3.22723 0.366257 3.21546 0.427066C3.2037 0.487757 3.20488 0.550329 3.21782 0.610785C3.55656 2.17981 5.14087 7.40088 5.06089 7.40559L4.86682 7.47145L2.47565 1.82578C2.44271 1.71334 2.36744 1.61795 2.26511 1.55926C2.16396 1.50057 2.04399 1.48316 1.9299 1.51056L1.64879 1.57996C1.58998 1.59431 1.5347 1.62007 1.48648 1.6557C1.43825 1.69134 1.39709 1.73627 1.36533 1.78779C1.33475 1.83942 1.31358 1.89659 1.30417 1.95622C1.29476 2.01573 1.29829 2.07654 1.3124 2.13512L3.46364 7.68905L3.26604 7.81372L1.01248 3.80177C0.968957 3.6985 0.888977 3.61475 0.787825 3.56618C0.68785 3.5176 0.572584 3.50772 0.464375 3.5383L0.33029 3.57829C0.215025 3.61205 0.118578 3.68909 0.0597686 3.79318C0.000959497 3.89727 -0.015507 4.02018 0.0150737 4.1358C0.231491 4.95913 1.30887 6.68694 1.93578 8.48767C2.42625 9.88263 2.46036 11 3.26957 12.689C3.61066 13.4053 4.25991 14.2557 4.61394 14.7297" fill="#FFCCD7"/>
<path d="M49.7903 52.3699C44.5598 55.3357 38.5107 56.5324 32.5439 55.7816C26.5783 55.031 21.0138 52.373 16.6807 48.2038L17.0171 39.5789L6.21978 37.7958C4.62606 37.358 3.24051 36.3666 2.31251 34.9994C1.3845 33.6322 0.974011 31.979 1.15514 30.3365L2.03846 13.4065L10.5693 13.9946L10.8045 16.1493L12.123 27.5207C12.123 27.5207 21.0479 28.6369 33.2273 31.7549C45.0832 34.7907 48.5753 45.3187 49.7903 52.3699Z" fill="#9087E5"/>
<path d="M16.8994 39.4696L16.9994 36.5303" stroke="#C4D0FB" stroke-linecap="square"/>
<path d="M40.5003 21.1977C43.7701 17.0291 43.3043 11.2051 39.4594 8.18951C35.6156 5.1739 29.8476 6.10861 26.5778 10.2772C23.308 14.4459 23.7738 20.2698 27.6187 23.2855C31.4637 26.3011 37.2305 25.3664 40.5003 21.1977Z" fill="#001833"/>
<path d="M27.6108 35.126C26.9686 34.6612 26.4958 33.9998 26.2641 33.2423C26.0312 32.4846 26.0524 31.6718 26.3229 30.9271L30.5689 19.2688C30.7136 18.7958 30.9535 18.3573 31.2734 17.9799C31.5922 17.6026 31.9862 17.2942 32.4284 17.0735C32.8719 16.8529 33.3541 16.7247 33.8481 16.6966C34.3421 16.6685 34.8361 16.7411 35.3007 16.9102C35.7665 17.0792 36.1911 17.3411 36.5521 17.6797C36.9121 18.0185 37.2002 18.427 37.3978 18.8805C37.5954 19.3339 37.6989 19.8229 37.7013 20.3174C37.7036 20.812 37.606 21.302 37.4131 21.7576L33.1659 33.417C32.9718 33.9456 32.659 34.4222 32.2508 34.8095C31.8427 35.1968 31.3499 35.4843 30.8124 35.6496C30.2737 35.8147 29.7044 35.853 29.1493 35.7616C28.5941 35.6703 28.0672 35.4515 27.6108 35.1225V35.126Z" fill="#FFCCD7"/>
<path d="M28.332 28.6251L27.6263 28.3628C26.8053 28.0582 26.062 27.5764 25.4492 26.9518C24.8352 26.3271 24.3683 25.575 24.0778 24.7489C23.7884 23.9228 23.6849 23.0431 23.7743 22.1723C23.8637 21.3015 24.1436 20.4611 24.5941 19.7108L26.8289 15.9941C27.5499 14.7938 28.6708 13.8859 29.9951 13.4299C31.3183 12.9739 32.7603 12.9989 34.0683 13.5006C35.5432 14.0667 36.7323 15.1955 37.3757 16.6386C38.0179 18.0819 38.0614 19.7213 37.4957 21.1963L35.9666 25.1754C35.4044 26.6398 34.2882 27.8235 32.858 28.4694C31.4289 29.1152 29.8023 29.1712 28.332 28.6251Z" fill="#FFCCD7"/>
<path d="M28.8952 18.1028L25.8359 20.5869L27.0368 21.489" stroke="#24272D" stroke-linecap="square"/>
<path d="M29.6721 19.8576C30.0285 19.8576 30.3178 19.5685 30.3178 19.2119C30.3178 18.8553 30.0285 18.5662 29.6721 18.5662C29.3157 18.5662 29.0264 18.8553 29.0264 19.2119C29.0264 19.5685 29.3157 19.8576 29.6721 19.8576Z" fill="#24272D"/>
<path d="M26.9865 18.4992C27.3429 18.4992 27.6323 18.2101 27.6323 17.8535C27.6323 17.4969 27.3429 17.2078 26.9865 17.2078C26.6302 17.2078 26.3408 17.4969 26.3408 17.8535C26.3408 18.2101 26.6302 18.4992 26.9865 18.4992Z" fill="#24272D"/>
<path d="M46.5624 38.525C46.5624 38.525 43.5843 45.9808 37.7834 42.6687C28.1799 37.1842 30.1523 29.9718 32.8599 26.6726C33.9385 25.3588 35.4475 24.7766 37.0224 24.2991C32.4435 20.2612 34.6948 17.0456 34.6948 17.0456C34.6948 17.0456 22.4484 16.2587 26.4086 10.4495C30.3688 4.64038 37.4423 5.40137 41.192 7.92428C49.9075 13.7911 46.9412 19.7708 48.9301 21.9726C60.2061 34.4672 46.5624 38.525 46.5624 38.525Z" fill="#001833"/>
<path d="M38.3093 24.8107C39.576 24.0408 39.9783 22.3904 39.2079 21.1244C38.4387 19.8583 36.7885 19.4561 35.5217 20.2258L33.4375 21.4931C32.172 22.2629 31.7697 23.9132 32.5389 25.1794C33.3093 26.4454 34.9595 26.8477 36.2251 26.078L38.3093 24.8107Z" fill="#FFCCD7"/>
<path d="M37.7401 22.1326L34.7832 23.9286" stroke="#24272D" stroke-linecap="square"/>
<path d="M28.8186 23.3087C28.8492 23.7196 28.7163 24.1262 28.4481 24.4388C28.1787 24.7515 27.7977 24.9447 27.386 24.9759C26.9755 25.0071 26.5686 24.8738 26.2569 24.6052C25.944 24.3366 25.7499 23.9548 25.7194 23.5439C25.6535 22.6876 26.5203 22.6959 27.3754 22.63C28.2305 22.5641 28.7527 22.4524 28.8186 23.3087Z" fill="#24272D"/>
</svg>
