<svg width="323" height="209" viewBox="0 0 323 209" fill="none" xmlns="http://www.w3.org/2000/svg">
<path opacity="0.35" d="M303.533 33.6384H168.958C168.958 33.6384 175.595 13.3586 189.448 13.3586C199.821 13.3586 202.324 22.1473 212.282 22.1473C222.241 22.1473 228.912 0 243.971 0C259.814 0 267.63 25.3357 281.92 28.1127C299.466 31.5189 303.533 33.6384 303.533 33.6384Z" fill="white"/>
<path d="M182.941 209H8.99254C8.99254 209 17.5715 184.57 35.4776 184.57C48.8865 184.57 52.1213 195.155 64.9938 195.155C77.8662 195.155 86.4896 168.475 105.953 168.475C126.432 168.475 136.534 198.997 155.006 202.341C177.684 206.445 182.941 209 182.941 209Z" fill="#F2F6F9"/>
<path d="M177.236 173.77H322.841C322.841 173.77 318.079 151.448 304.489 151.448C292.762 151.448 282.84 164.758 272.952 164.758C263.064 164.758 258.132 135.278 238.818 135.278C220.851 135.278 206.424 166.216 192.347 168.947C180.213 171.3 177.236 173.77 177.236 173.77Z" fill="#F2F6F9"/>
<path opacity="0.35" d="M0.00037384 57.6586L5.84875 59.2154C6.10285 63.7574 7.81905 68.0953 10.7432 71.5806C13.6674 75.0658 17.6403 77.5113 22.0689 78.5513C26.4976 79.5915 31.144 79.1704 35.3125 77.3512C39.483 75.5319 42.9517 72.4121 45.2003 68.458L46.1017 67.8913C49.3425 65.8552 51.6415 62.6152 52.4946 58.8839C53.3456 55.1526 52.6821 51.2356 50.6453 47.9946C50.2762 47.4075 49.6894 46.9907 49.0118 46.8358C48.3362 46.6807 47.6263 46.8001 47.0375 47.1677L42.7218 49.8802C41.9272 47.9363 40.7172 46.1896 39.1764 44.7618C38.6682 44.2907 37.9926 44.0406 37.2989 44.0662C36.6052 44.0921 35.9518 44.3913 35.4778 44.8989L23.287 58.0296H19.5118C19.4977 56.3969 18.9007 54.8227 17.8299 53.5905C16.759 52.3585 15.2828 51.549 13.6674 51.3082C12.0521 51.0672 10.4044 51.4104 9.01897 52.2764C7.63553 53.1422 6.605 54.4736 6.11495 56.0311L5.93748 56.0775L0.00037384 57.6586Z" fill="white"/>
<path opacity="0.35" d="M76.5897 32.9812L80.0503 33.8968C80.2015 36.583 81.218 39.1483 82.9483 41.2091C84.6786 43.27 87.028 44.716 89.6477 45.3311C92.2674 45.9461 95.0141 45.6973 97.4805 44.622C99.9469 43.5465 102 41.702 103.331 39.3641L103.865 39.0293C105.783 37.8249 107.144 35.9081 107.649 33.7002C108.155 31.4921 107.762 29.1741 106.558 27.2558C106.34 26.908 105.991 26.6609 105.592 26.5692C105.19 26.4772 104.771 26.548 104.422 26.7658L101.867 28.3791C101.397 27.23 100.681 26.1975 99.7694 25.3541C99.4689 25.0748 99.0696 24.9264 98.6582 24.9415C98.2488 24.9566 97.8616 25.1341 97.5813 25.4348L90.3656 33.2071H88.1332C88.1332 32.2355 87.7863 31.2959 87.153 30.5596C86.5178 29.8231 85.6405 29.3391 84.6806 29.1955C83.7186 29.0521 82.7385 29.2586 81.9177 29.7777C81.0949 30.2968 80.4879 31.0938 80.2056 32.0233L80.1007 32.0515L76.5897 32.9812Z" fill="white"/>
<path d="M201.508 46.3345L155.855 95.5146C150.382 101.41 147.475 109.238 147.775 117.277C148.073 125.316 151.554 132.907 157.449 138.379C163.345 143.852 171.173 146.759 179.212 146.46C187.25 146.161 194.841 142.681 200.314 136.785L217.367 118.415C221.955 113.472 225.524 107.675 227.871 101.353C230.218 95.0316 231.297 88.3094 231.047 81.5706C230.796 74.8318 229.22 68.2084 226.41 62.0786C223.599 55.9489 219.609 50.4326 214.666 45.8451C212.856 44.1655 210.453 43.2736 207.986 43.3653C205.518 43.4571 203.188 44.5251 201.508 46.3345Z" fill="#FFADBC"/>
<path d="M254.756 81.7827L264.835 121.55L200.634 123.714L198.492 115.27L254.756 81.7827Z" fill="#5E93D1"/>
<path d="M141.114 188.739L167.224 184.731L163.703 175.299L153.194 177.737L141.114 188.739Z" fill="#0C092A"/>
<path d="M114.634 181.127L140.742 177.122L137.221 167.69L126.714 170.128L114.634 181.127Z" fill="#0C092A"/>
<path d="M172.864 83.9108L150.052 78.0503L121.177 113.223C119.414 115.396 118.107 117.901 117.329 120.588C116.55 123.275 116.321 126.091 116.649 128.869L121.768 170.921L140.478 170.719L134.856 126.776L162.529 107.415C167.599 102.979 170.958 96.739 171.981 89.8701L172.864 83.9108Z" fill="#211F5C"/>
<path d="M171.715 43.71C163.975 39.9691 151.28 39.6766 145.7 40.9956C140.12 42.3145 134.449 64.611 134.449 64.611L121.669 82.7613L134.187 90.8039L149.148 69.3442L143.207 64.0383C143.207 64.0383 148.636 72.4378 150.03 78.5464H175.831C175.831 78.5464 174.194 66.4462 173.736 59.5249" fill="#FF8FA2"/>
<path d="M120.328 118.384C106.875 118.384 95.9685 107.478 95.9685 94.0242C95.9685 80.5706 106.875 69.6646 120.328 69.6646C133.781 69.6646 144.688 80.5706 144.688 94.0242C144.688 107.478 133.781 118.384 120.328 118.384Z" fill="#9087E5"/>
<path d="M95.9677 94.0244C95.9677 135.423 129.527 168.985 170.926 168.985C212.324 168.985 245.886 135.423 245.886 94.0244" fill="#9087E5"/>
<path d="M145.373 50.9297L141.59 60.267L145.597 70.4997" stroke="#FFE0E6"/>
<path d="M175.722 78.5H152.241L132.075 119.887C130.85 122.414 130.141 125.16 129.989 127.965C129.836 130.769 130.243 133.576 131.185 136.222L146.093 178.002H167.185L153.784 128.254L170.942 103.904C174.897 98.2432 176.754 91.3806 176.196 84.4976L175.722 78.5Z" fill="#211F5C"/>
<path d="M137.244 83.4266H135.546C134.853 83.4123 134.161 83.4849 133.487 83.6424C132.228 83.9106 131.766 84.8241 129.655 84.927C127.269 85.046 128.983 87.1212 130.133 87.347C131.03 87.5164 132.111 87.0707 132.835 87.6273C132.634 88.1517 132.595 89.3032 129.911 91.57C128.374 92.8667 125.676 93.2237 126.281 96.4342C127.122 98.8886 130.948 99.0338 132 98.6022C135.076 97.3418 137.508 94.7705 138.776 92.6832C139.353 91.6787 139.849 90.6308 140.263 89.5493" fill="#FFCCD7"/>
<path d="M142.291 72.9074L130.978 81.4602L142.055 93.2922L167.883 75.6522C167.883 75.6522 176.756 54.2651 170.608 48.2554" fill="#FF8FA2"/>
<path d="M142.83 28.5021C138.639 28.5021 135.241 24.1628 135.241 18.8099C135.241 13.457 138.639 9.11768 142.83 9.11768C147.021 9.11768 150.419 13.457 150.419 18.8099C150.419 24.1628 147.021 28.5021 142.83 28.5021Z" fill="#24272D"/>
<path d="M154.285 45.668C153.156 45.6674 152.058 45.2985 151.158 44.6171C150.258 43.9356 149.604 42.9791 149.297 41.8927L144.48 24.892C144.274 24.2307 144.202 23.535 144.27 22.8457C144.337 22.1564 144.542 21.4876 144.872 20.8788C145.202 20.2697 145.65 19.7332 146.191 19.3004C146.732 18.8677 147.353 18.5476 148.02 18.359C148.686 18.1705 149.384 18.1173 150.071 18.2026C150.758 18.2879 151.421 18.51 152.022 18.8557C152.622 19.2015 153.146 19.6639 153.565 20.2157C153.983 20.7675 154.287 21.3975 154.458 22.0686L159.276 39.0714C159.494 39.843 159.531 40.6547 159.382 41.4428C159.234 42.2307 158.905 42.9737 158.422 43.6134C157.938 44.2531 157.313 44.772 156.595 45.1295C155.877 45.4871 155.087 45.6734 154.285 45.674V45.668Z" fill="#FFCCD7"/>
<path d="M149.545 38.1175L148.64 38.3696C147.586 38.6606 146.481 38.7159 145.404 38.5315C144.327 38.347 143.303 37.9275 142.406 37.3028C141.51 36.678 140.761 35.8635 140.215 34.9166C139.669 33.97 139.338 32.9144 139.246 31.8254L138.788 26.4288C138.641 24.6873 139.111 22.9498 140.117 21.5205C141.122 20.0912 142.599 19.0616 144.288 18.6121C146.195 18.1072 148.224 18.3804 149.93 19.3716C151.635 20.3627 152.877 21.9908 153.383 23.8978L154.746 29.0444C155.247 30.9369 154.982 32.9505 154.009 34.649C153.035 36.3475 151.431 37.5938 149.545 38.1175Z" fill="#FFCCD7"/>
<path d="M142.425 27.0498L141.142 31.8032L143.018 31.8374" stroke="#25282D"/>
<path d="M144.687 28.8972C144.185 28.8972 143.778 28.49 143.778 27.9877C143.778 27.4853 144.185 27.0781 144.687 27.0781C145.19 27.0781 145.597 27.4853 145.597 27.9877C145.597 28.49 145.19 28.8972 144.687 28.8972Z" fill="#24272D"/>
<path d="M140.313 28.8972C139.811 28.8972 139.404 28.49 139.404 27.9877C139.404 27.4853 139.811 27.0781 140.313 27.0781C140.815 27.0781 141.223 27.4853 141.223 27.9877C141.223 28.49 140.815 28.8972 140.313 28.8972Z" fill="#24272D"/>
<path d="M144.947 33.6385C144.947 33.6385 146.065 33.576 146.524 32.606" stroke="#25282D"/>
<path d="M186.991 32.848C187.999 44.6295 178.033 40.7998 178.033 40.7998C178.033 40.7998 184.399 53.7308 170.152 52.6519C155.904 51.573 152.016 41.4512 152.566 35.6633C152.786 33.3562 153.978 31.5694 155.343 29.8451C147.534 28.6452 147.653 23.2888 147.653 23.2888C147.653 23.2888 135.134 28.1531 135.235 18.5597C135.336 8.96627 145.211 5.89081 151.048 5.99165C152.277 6.01734 153.495 6.22879 154.661 6.61884C158.418 7.84095 161.329 9.83345 166.314 9.9121C180.088 10.1299 181.411 23.1376 181.411 23.1376C181.411 23.1376 186.313 24.8739 186.991 32.848Z" fill="#24272D"/>
<path d="M151.302 31.5301L151.3 31.5293C149.595 30.8106 148.796 28.8461 149.515 27.1414L150.699 24.3334C151.417 22.6287 153.382 21.8294 155.087 22.5482L155.088 22.549C156.793 23.2675 157.592 25.2322 156.874 26.9369L155.69 29.7448C154.971 31.4495 153.007 32.2487 151.302 31.5301Z" fill="#FFCCD7"/>
<path d="M154.327 24.6641L152.645 28.645" stroke="#25282D"/>
<path d="M75.2788 92.7012L96.3914 98.3237L99.6181 99.1808C100.469 99.1812 101.312 99.014 102.099 98.6885C102.885 98.363 103.599 97.8859 104.2 97.2839C104.803 96.6821 105.279 95.9676 105.604 95.1813C105.93 94.395 106.096 93.5522 106.096 92.7012H75.2788Z" fill="#FFADBC"/>
<path d="M117.113 86.2215C115.621 86.2215 114.413 85.0125 114.413 83.5212C114.413 82.0298 115.621 80.8208 117.113 80.8208C118.603 80.8208 119.813 82.0298 119.813 83.5212C119.813 85.0125 118.603 86.2215 117.113 86.2215Z" fill="#FFADBC"/>
<path d="M75.2789 92.7013H106.094C106.094 91.8503 105.928 91.0073 105.604 90.2208C105.277 89.4345 104.801 88.7198 104.198 88.118C103.597 87.516 102.883 87.0386 102.097 86.7134C101.31 86.3881 100.467 86.2209 99.6162 86.2217L96.3895 87.0808L75.2789 92.7013Z" fill="#FFADBC"/>
<path d="M137.373 76.6243L153.486 64.623L157.328 53.5332" stroke="#FFE0E6"/>
<path d="M163.751 78.4775C163.751 78.4775 167.851 76.0857 168.912 72.9598C169.973 69.8339 174.155 56.1426 174.155 56.1426" stroke="#FFE0E6"/>
<path d="M151.536 124.124L153.784 128.25L151.536 131.107" stroke="#FFE0E6"/>
<path d="M242.624 55.2392L185.79 90.9331C178.978 95.2113 174.144 102.021 172.353 109.863C170.561 117.705 171.958 125.938 176.236 132.75C180.514 139.562 187.323 144.396 195.165 146.188C203.008 147.98 211.24 146.583 218.053 142.304L239.284 128.97C244.995 125.384 249.944 120.708 253.848 115.208C257.752 109.709 260.534 103.495 262.036 96.92C263.538 90.3456 263.73 83.5395 262.601 76.8906C261.472 70.242 259.045 63.8805 255.458 58.1699C254.144 56.0806 252.054 54.5983 249.648 54.0487C247.241 53.4992 244.715 53.9273 242.624 55.2392Z" fill="#FFADBC"/>
<path d="M227.46 64.6025L185.257 91.1543C185.257 91.1543 180.52 94.502 178.34 97.9042" stroke="#FFE0E6"/>
</svg>
