<svg width="29" height="29" viewBox="0 0 29 29" fill="none" xmlns="http://www.w3.org/2000/svg">
<g clip-path="url(#clip0_81_2140)">
<path d="M14.4997 16.917C17.1691 16.917 19.3331 14.753 19.3331 12.0836C19.3331 9.41422 17.1691 7.25025 14.4997 7.25025C11.8303 7.25025 9.66634 9.41422 9.66634 12.0836C9.66634 14.753 11.8303 16.917 14.4997 16.917Z" stroke="white" stroke-width="2" stroke-linecap="round" stroke-linejoin="round"/>
<path d="M8.15591 19.3336C9.17567 20.2193 10.3694 20.882 11.6605 21.2789C12.9516 21.6759 14.3114 21.7984 15.6527 21.6386C16.9939 21.4788 18.2869 21.0402 19.4486 20.351C20.6103 19.6618 21.6149 18.7372 22.398 17.6366C23.1811 16.5361 23.7253 15.2839 23.9957 13.9605C24.2661 12.6371 24.2567 11.2718 23.968 9.95224C23.6794 8.6327 23.1179 7.38814 22.3197 6.2985C21.5215 5.20885 20.5041 4.29823 19.3331 3.62512" stroke="white" stroke-width="2" stroke-linecap="round" stroke-linejoin="round"/>
<path d="M14.5005 21.7502V26.5836" stroke="white" stroke-width="2" stroke-linecap="round" stroke-linejoin="round"/>
<path d="M9.66634 26.5834H19.3331" stroke="white" stroke-width="2" stroke-linecap="round" stroke-linejoin="round"/>
</g>
<defs>
<clipPath id="clip0_81_2140">
<rect width="28.8" height="28.8" fill="white" transform="scale(1.00695)"/>
</clipPath>
</defs>
</svg>
