<svg width="359" height="248" viewBox="0 0 359 248" fill="none" xmlns="http://www.w3.org/2000/svg">
<path d="M0 34.9612C0 17.2881 14.3269 2.96119 32 2.96119H89.75H134.625H152.16C155.409 2.96119 158.636 2.44964 161.818 1.79204C165.825 0.964072 172.082 0 179.5 0C186.918 0 193.175 0.964073 197.182 1.79204C200.364 2.44964 203.591 2.96119 206.84 2.96119H224.375H269.25H327C344.673 2.96119 359 17.2881 359 34.9612V216C359 233.673 344.673 248 327 248H32C14.3269 248 0 233.673 0 216V34.9612Z" fill="#EFEEFC"/>
<circle cx="180" cy="12" r="4" fill="#BDB7F0"/>
</svg>
