<svg width="20" height="20" viewBox="0 0 20 20" fill="none" xmlns="http://www.w3.org/2000/svg">
<g clip-path="url(#clip0_199_375)">
<path d="M9.99984 13.3337C11.8408 13.3337 13.3332 11.8413 13.3332 10.0003C13.3332 8.15938 11.8408 6.66699 9.99984 6.66699C8.15889 6.66699 6.6665 8.15938 6.6665 10.0003C6.6665 11.8413 8.15889 13.3337 9.99984 13.3337Z" stroke="#FFD6DD" stroke-width="1.5" stroke-linecap="round" stroke-linejoin="round"/>
<path d="M5.25 14.75L4.66667 15.3333M2.5 10H3.33333H2.5ZM10 2.5V3.33333V2.5ZM16.6667 10H17.5H16.6667ZM10 16.6667V17.5V16.6667ZM4.66667 4.66667L5.25 5.25L4.66667 4.66667ZM15.3333 4.66667L14.75 5.25L15.3333 4.66667ZM14.75 14.75L15.3333 15.3333L14.75 14.75Z" stroke="#FFD6DD" stroke-width="1.5" stroke-linecap="round" stroke-linejoin="round"/>
</g>
<defs>
<clipPath id="clip0_199_375">
<rect width="20" height="20" fill="white"/>
</clipPath>
</defs>
</svg>
