<svg width="478" height="375" viewBox="0 0 478 375" fill="none" xmlns="http://www.w3.org/2000/svg">
<path opacity="0.1" fill-rule="evenodd" clip-rule="evenodd" d="M396.25 125.5C421.793 125.5 442.5 104.793 442.5 79.25C442.5 53.7068 421.793 33 396.25 33C370.707 33 350 53.7068 350 79.25C350 104.793 370.707 125.5 396.25 125.5Z" fill="white"/>
<path opacity="0.2" fill-rule="evenodd" clip-rule="evenodd" d="M397.5 160.5C441.683 160.5 477.5 124.683 477.5 80.5C477.5 36.3172 441.683 0.5 397.5 0.5C353.317 0.5 317.5 36.3172 317.5 80.5C317.5 124.683 353.317 160.5 397.5 160.5Z" stroke="white"/>
<path opacity="0.1" fill-rule="evenodd" clip-rule="evenodd" d="M79.25 339.5C104.793 339.5 125.5 318.793 125.5 293.25C125.5 267.707 104.793 247 79.25 247C53.7068 247 33 267.707 33 293.25C33 318.793 53.7068 339.5 79.25 339.5Z" fill="white"/>
<path opacity="0.2" fill-rule="evenodd" clip-rule="evenodd" d="M80.5 374.5C124.683 374.5 160.5 338.683 160.5 294.5C160.5 250.317 124.683 214.5 80.5 214.5C36.3172 214.5 0.5 250.317 0.5 294.5C0.5 338.683 36.3172 374.5 80.5 374.5Z" stroke="white"/>
</svg>
