<svg width="24" height="24" viewBox="0 0 24 24" fill="none" xmlns="http://www.w3.org/2000/svg">
<path d="M12.8487 2.75161C12.6237 2.52665 12.3185 2.40027 12.0003 2.40027C11.6821 2.40027 11.3769 2.52665 11.1519 2.75161L2.75189 11.1516C2.5333 11.3779 2.41235 11.6811 2.41508 11.9957C2.41782 12.3103 2.54402 12.6113 2.76651 12.8338C2.989 13.0563 3.28998 13.1825 3.60461 13.1852C3.91925 13.188 4.22237 13.067 4.44869 12.8484L4.80029 12.4968V20.4C4.80029 20.7183 4.92672 21.0235 5.15177 21.2485C5.37681 21.4736 5.68203 21.6 6.00029 21.6H8.40029C8.71855 21.6 9.02378 21.4736 9.24882 21.2485C9.47386 21.0235 9.60029 20.7183 9.60029 20.4V18C9.60029 17.6818 9.72672 17.3765 9.95177 17.1515C10.1768 16.9264 10.482 16.8 10.8003 16.8H13.2003C13.5186 16.8 13.8238 16.9264 14.0488 17.1515C14.2739 17.3765 14.4003 17.6818 14.4003 18V20.4C14.4003 20.7183 14.5267 21.0235 14.7518 21.2485C14.9768 21.4736 15.282 21.6 15.6003 21.6H18.0003C18.3186 21.6 18.6238 21.4736 18.8488 21.2485C19.0739 21.0235 19.2003 20.7183 19.2003 20.4V12.4968L19.5519 12.8484C19.7782 13.067 20.0813 13.188 20.396 13.1852C20.7106 13.1825 21.0116 13.0563 21.2341 12.8338C21.4566 12.6113 21.5828 12.3103 21.5855 11.9957C21.5882 11.6811 21.4673 11.3779 21.2487 11.1516L12.8487 2.75161Z" fill="#0C092A"/>
</svg>
