<svg width="35" height="39" viewBox="0 0 35 39" fill="none" xmlns="http://www.w3.org/2000/svg">
<path d="M15.4072 0.543251C16.6564 -0.181386 18.198 -0.181385 19.4472 0.543251L26.1328 4.42148L32.8342 8.27226C34.0864 8.99176 34.8572 10.3269 34.8542 11.771L34.8384 19.5L34.8542 27.229C34.8572 28.6731 34.0864 30.0082 32.8342 30.7277L26.1328 34.5785L19.4472 38.4567C18.198 39.1814 16.6564 39.1814 15.4072 38.4567L8.72161 34.5785L2.02017 30.7277C0.76802 30.0082 -0.00279279 28.6731 0.000169165 27.229L0.016021 19.5L0.000169165 11.771C-0.00279279 10.3269 0.768021 8.99176 2.02017 8.27226L8.72161 4.42148L15.4072 0.543251Z" fill="#FFD54B"/>
</svg>
