<svg width="29" height="29" viewBox="0 0 29 29" fill="none" xmlns="http://www.w3.org/2000/svg">
<g clip-path="url(#clip0_81_2172)">
<path d="M10.8749 3.62512H18.1249" stroke="white" stroke-width="2" stroke-linecap="round" stroke-linejoin="round"/>
<path d="M12.0834 10.8749H16.9168" stroke="white" stroke-width="2" stroke-linecap="round" stroke-linejoin="round"/>
<path d="M12.0835 3.62512V10.8752L7.25016 24.1669C7.19186 24.2842 7.16159 24.4134 7.16174 24.5444C7.1619 24.6754 7.19247 24.8046 7.25104 24.9217C7.30962 25.0389 7.3946 25.1408 7.49929 25.2195C7.60398 25.2982 7.72552 25.3515 7.85433 25.3753H21.1461C21.2749 25.3515 21.3964 25.2982 21.5011 25.2195C21.6058 25.1408 21.6908 25.0389 21.7494 24.9217C21.8079 24.8046 21.8385 24.6754 21.8387 24.5444C21.8388 24.4134 21.8086 24.2842 21.7503 24.1669L16.9169 10.8752V3.62512" stroke="white" stroke-width="2" stroke-linecap="round" stroke-linejoin="round"/>
</g>
<defs>
<clipPath id="clip0_81_2172">
<rect width="28.8" height="28.8" fill="white" transform="scale(1.00695)"/>
</clipPath>
</defs>
</svg>
