<svg width="35" height="39" viewBox="0 0 35 39" fill="none" xmlns="http://www.w3.org/2000/svg">
<path d="M15.4065 0.543489C16.6557 -0.181138 18.1973 -0.181137 19.4465 0.54349L26.132 4.42167L32.8333 8.2724C34.0854 8.9919 34.8563 10.327 34.8533 11.7711L34.8374 19.5L34.8533 27.2289C34.8563 28.673 34.0854 30.0081 32.8333 30.7276L26.132 34.5783L19.4465 38.4565C18.1973 39.1811 16.6557 39.1811 15.4065 38.4565L8.72101 34.5783L2.01965 30.7276C0.767519 30.0081 -0.00328416 28.673 -0.00032225 27.2289L0.0155294 19.5L-0.00032225 11.7711C-0.00328416 10.327 0.76752 8.99189 2.01965 8.2724L8.72101 4.42167L15.4065 0.543489Z" fill="#FFD54B"/>
</svg>
