<svg width="24" height="24" viewBox="0 0 24 24" fill="none" xmlns="http://www.w3.org/2000/svg">
<g clip-path="url(#clip0_177_308)">
<path d="M12 15C13.6569 15 15 13.6569 15 12C15 10.3431 13.6569 9 12 9C10.3431 9 9 10.3431 9 12C9 13.6569 10.3431 15 12 15Z" stroke="#0C092A" stroke-width="2" stroke-linecap="round" stroke-linejoin="round"/>
<path d="M12 21V21.01" stroke="#0C092A" stroke-width="2" stroke-linecap="round" stroke-linejoin="round"/>
<path d="M3 9V9.01" stroke="#0C092A" stroke-width="2" stroke-linecap="round" stroke-linejoin="round"/>
<path d="M21 9V9.01" stroke="#0C092A" stroke-width="2" stroke-linecap="round" stroke-linejoin="round"/>
<path d="M8 20.1C6.63534 19.4344 5.46126 18.4343 4.58704 17.1929C3.71281 15.9515 3.16686 14.5091 3 13" stroke="#0C092A" stroke-width="2" stroke-linecap="round" stroke-linejoin="round"/>
<path d="M16 20.1C17.3647 19.4344 18.5387 18.4343 19.413 17.1929C20.2872 15.9515 20.8331 14.5091 21 13" stroke="#0C092A" stroke-width="2" stroke-linecap="round" stroke-linejoin="round"/>
<path d="M6.2002 4.99993C7.80829 3.68389 9.82223 2.96484 11.9002 2.96484C13.9782 2.96484 15.9921 3.68389 17.6002 4.99993" stroke="#0C092A" stroke-width="2" stroke-linecap="round" stroke-linejoin="round"/>
</g>
<defs>
<clipPath id="clip0_177_308">
<rect width="24" height="24" fill="white"/>
</clipPath>
</defs>
</svg>
