<svg width="71" height="104" viewBox="0 0 71 104" fill="none" xmlns="http://www.w3.org/2000/svg">
<path d="M71 23.1581C71.0074 39.4815 66.5711 55.5033 58.1605 69.5277C49.75 83.5522 37.678 95.0576 23.2224 102.826C23.2045 102.847 23.1804 102.862 23.1536 102.867L23.14 102.881C22.4254 103.263 21.7109 103.632 20.9964 104C16.512 102.826 12.2051 101.064 8.18968 98.7598C5.28482 97.0982 2.54292 95.17 0 93.0009C0.480938 92.496 0.948134 91.9911 1.41533 91.4725L1.42893 91.4589C1.42893 91.4452 1.44281 91.4316 1.45655 91.4179H1.47016C16.5066 74.8213 24.8103 53.2761 24.7752 30.9503C24.7774 21.333 23.2469 11.7759 20.2405 2.63382H20.2269C20.2269 2.60652 20.2131 2.57923 20.2131 2.55194H20.1992C20.1914 2.52998 20.1867 2.50697 20.1856 2.48368C19.9108 1.65124 19.6223 0.818841 19.3199 5.06222e-05H34.6825C47.9382 -0.0181806 60.7214 4.88855 70.519 13.7557C70.629 14.7928 70.7114 15.8299 70.7801 16.8807C70.9313 18.955 71 21.0429 71 23.1581Z" fill="#9087E5"/>
</svg>
