<svg width="77" height="87" viewBox="0 0 77 87" fill="none" xmlns="http://www.w3.org/2000/svg">
<path d="M36.1969 0.541574C37.4417 -0.180499 38.9778 -0.180498 40.2226 0.541574L57.2943 10.4446L74.4064 20.2776C75.6541 20.9946 76.4222 22.3249 76.4193 23.764L76.3788 43.5L76.4193 63.236C76.4222 64.6751 75.6541 66.0054 74.4064 66.7224L57.2943 76.5554L40.2226 86.4584C38.9778 87.1805 37.4417 87.1805 36.1969 86.4584L19.1252 76.5554L2.01308 66.7224C0.765362 66.0054 -0.00272385 64.6751 0.000227147 63.236L0.0407008 43.5L0.000227147 23.764C-0.00272385 22.3249 0.765362 20.9946 2.01308 20.2776L19.1252 10.4446L36.1969 0.541574Z" fill="#FFD6DD"/>
<mask id="mask0_135_8795" style="mask-type:alpha" maskUnits="userSpaceOnUse" x="0" y="0" width="77" height="87">
<path d="M36.1969 0.541574C37.4417 -0.180499 38.9778 -0.180498 40.2226 0.541574L57.2943 10.4446L74.4064 20.2776C75.6541 20.9946 76.4222 22.3249 76.4193 23.764L76.3788 43.5L76.4193 63.236C76.4222 64.6751 75.6541 66.0054 74.4064 66.7224L57.2943 76.5554L40.2226 86.4584C38.9778 87.1805 37.4417 87.1805 36.1969 86.4584L19.1252 76.5554L2.01308 66.7224C0.765362 66.0054 -0.00272385 64.6751 0.000227147 63.236L0.0407008 43.5L0.000227147 23.764C-0.00272385 22.3249 0.765362 20.9946 2.01308 20.2776L19.1252 10.4446L36.1969 0.541574Z" fill="#FF8FA2"/>
</mask>
<g mask="url(#mask0_135_8795)">
<circle cx="38.2097" cy="87.6261" r="44.1261" fill="#FCF2F2"/>
</g>
</svg>
