<svg width="29" height="29" viewBox="0 0 29 29" fill="none" xmlns="http://www.w3.org/2000/svg">
<g clip-path="url(#clip0_81_2164)">
<path d="M8.45819 15.7085H7.24985C5.91516 15.7085 4.83317 16.7905 4.83317 18.1252V21.7502C4.83317 23.0849 5.91516 24.1669 7.24985 24.1669H8.45819C9.79289 24.1669 10.8749 23.0849 10.8749 21.7502V18.1252C10.8749 16.7905 9.79289 15.7085 8.45819 15.7085Z" fill="white" stroke="white" stroke-width="2" stroke-linecap="round" stroke-linejoin="round"/>
<path d="M21.7501 15.7085H20.5418C19.2071 15.7085 18.1251 16.7905 18.1251 18.1252V21.7502C18.1251 23.0849 19.2071 24.1669 20.5418 24.1669H21.7501C23.0848 24.1669 24.1668 23.0849 24.1668 21.7502V18.1252C24.1668 16.7905 23.0848 15.7085 21.7501 15.7085Z" fill="white" stroke="white" stroke-width="2" stroke-linecap="round" stroke-linejoin="round"/>
<path d="M4.83317 18.1249V14.4999C4.83317 11.9361 5.85163 9.47735 7.66449 7.66449C9.47735 5.85163 11.9361 4.83317 14.4999 4.83317C17.0637 4.83317 19.5224 5.85163 21.3353 7.66449C23.1482 9.47735 24.1666 11.9361 24.1666 14.4999V18.1249" stroke="white" stroke-width="2" stroke-linecap="round" stroke-linejoin="round"/>
</g>
<defs>
<clipPath id="clip0_81_2164">
<rect width="28.8" height="28.8" fill="white" transform="scale(1.00695)"/>
</clipPath>
</defs>
</svg>
