<svg width="48" height="49" viewBox="0 0 48 49" fill="none" xmlns="http://www.w3.org/2000/svg">
<path d="M47.8897 26.2817C47.5544 29.7671 46.4606 33.1369 44.6848 36.1549C42.9091 39.1727 40.4944 41.7654 37.6105 43.7511C34.7264 45.7368 31.4429 47.0674 27.99 47.6496C24.5372 48.2318 20.9989 48.0513 17.6233 47.1209C14.2475 46.1906 11.1164 44.5328 8.44925 42.2641C5.78222 39.9952 3.64389 37.1703 2.1844 33.9875C0.724814 30.8047 -0.0206128 27.3411 0.000433566 23.8396C0.02148 20.3381 0.808393 16.8836 2.30603 13.7186C6.51126 4.84671 15.9396 -0.876298 26.2777 0.110252C39.4732 1.36899 49.1494 13.0872 47.8897 26.2817Z" fill="#C4D0FB"/>
<path d="M39.3872 42.4185L38.5534 43.0853C37.6901 43.7439 36.7835 44.3436 35.8397 44.8803C33.0442 46.4647 29.9592 47.4718 26.7674 47.842C23.5756 48.2121 20.3419 47.9378 17.2581 47.0352C14.1742 46.1327 11.303 44.6204 8.81437 42.5877C6.32583 40.5551 4.27057 38.0436 2.77051 35.202C6.58112 32.4012 12.9608 29.055 21.1214 29.738C34.7712 30.8865 39.3872 42.4185 39.3872 42.4185Z" fill="#9087E5"/>
<path d="M23.1241 35.4276C22.9705 35.428 22.8171 35.4189 22.6647 35.4003C21.6522 35.2797 20.729 34.7619 20.0984 33.9607C19.4676 33.1596 19.1809 32.1408 19.3013 31.1283L21.1227 15.8079C21.2434 14.7952 21.7614 13.872 22.5629 13.2413C22.9598 12.9291 23.4142 12.6981 23.9003 12.5614C24.3865 12.4248 24.8947 12.3852 25.3962 12.445C25.8976 12.5048 26.3823 12.6628 26.8227 12.91C27.263 13.1571 27.6504 13.4885 27.9626 13.8853C28.2749 14.2821 28.506 14.7367 28.6426 15.2227C28.7793 15.7088 28.8189 16.2172 28.7591 16.7186L26.9377 32.0389C26.8261 32.9724 26.3766 33.8324 25.6738 34.4568C24.9711 35.0812 24.0641 35.4266 23.1241 35.4276Z" fill="#FFCCD7"/>
<path d="M26.3426 27.6011L27.1581 27.6922C28.1064 27.7991 29.0668 27.6957 29.9707 27.3893C30.8745 27.0829 31.6997 26.5811 32.3876 25.9195C33.0754 25.258 33.6091 24.4529 33.9504 23.5616C34.2917 22.6704 34.4324 21.7149 34.3625 20.763L34.0164 16.0478C33.9045 14.525 33.2598 13.0902 32.1952 11.9955C31.1307 10.9008 29.7144 10.2161 28.1953 10.0617C26.4815 9.88791 24.769 10.4019 23.4341 11.4908C22.0994 12.5796 21.2519 14.1541 21.078 15.8677L20.6085 20.4908C20.4356 22.1923 20.9409 23.8931 22.0144 25.2243C23.088 26.5554 24.6432 27.4094 26.3426 27.6011Z" fill="#FFCCD7"/>
<path d="M22.5644 22.5894L22.5652 22.5888C23.6885 21.8978 24.0389 20.427 23.3478 19.3036L22.6379 18.1497C21.9468 17.0265 20.476 16.6761 19.3528 17.3671L19.3518 17.3676C18.2286 18.0587 17.8782 19.5295 18.5693 20.6527L19.2792 21.8067C19.9703 22.93 21.441 23.2804 22.5644 22.5894Z" fill="#FFCCD7"/>
<path d="M19.6221 19.2329L21.5365 21.2566" stroke="#001833" stroke-linecap="square"/>
<path d="M31.0052 16.647L31.1398 20.4363L29.792 20.491" stroke="#001833" stroke-linecap="square"/>
<path d="M26.9902 21.6676C26.8788 21.8735 26.809 22.0995 26.7849 22.3324C26.7608 22.5653 26.7827 22.8007 26.8496 23.0251C26.9164 23.2495 27.0269 23.4586 27.1745 23.6403C27.3221 23.8221 27.5042 23.973 27.7101 24.0844C27.9161 24.1958 28.1419 24.2656 28.3749 24.2897C28.6078 24.3138 28.8432 24.2918 29.0676 24.225C29.292 24.1582 29.5011 24.0477 29.6828 23.9001C29.8646 23.7524 30.0155 23.5705 30.1269 23.3645C30.5954 22.4973 29.6837 22.1017 28.8115 21.6332C27.9393 21.1647 27.4586 20.8015 26.9902 21.6676Z" fill="#001833"/>
<path d="M23.0658 20.9827L24.8871 14.1416L25.3191 12.5227C25.7251 12.9578 26.2004 13.3226 26.7256 13.6023C28.6319 14.6283 34.3792 14.2195 35.1755 10.1894C35.8251 6.90288 32.3353 8.792 30.5484 8.58659C27.7405 8.2628 25.7927 6.61046 21.9477 8.68778C17.3488 11.1759 19.5273 17.2753 19.5273 17.2753C19.5273 17.2753 21.551 16.483 23.0658 20.9827Z" fill="#001833"/>
<path d="M27.3613 27.7123L24.9258 27.4907L27.1498 29.6611L27.3613 27.7123Z" fill="#24272D"/>
<path d="M28.41 18.6939C28.7794 18.6939 29.0789 18.3945 29.0789 18.025C29.0789 17.6556 28.7794 17.3562 28.41 17.3562C28.0406 17.3562 27.7412 17.6556 27.7412 18.025C27.7412 18.3945 28.0406 18.6939 28.41 18.6939Z" fill="#001833"/>
<path d="M32.3993 18.6939C32.7687 18.6939 33.0681 18.3945 33.0681 18.025C33.0681 17.6556 32.7687 17.3562 32.3993 17.3562C32.0299 17.3562 31.7305 17.6556 31.7305 18.025C31.7305 18.3945 32.0299 18.6939 32.3993 18.6939Z" fill="#001833"/>
</svg>
