<svg width="29" height="29" viewBox="0 0 29 29" fill="none" xmlns="http://www.w3.org/2000/svg">
<g clip-path="url(#clip0_81_2132)">
<path d="M3.62463 22.9584C5.27785 22.004 7.15319 21.5015 9.06217 21.5015C10.9711 21.5015 12.8465 22.004 14.4997 22.9584C16.1529 22.004 18.0283 21.5015 19.9372 21.5015C21.8462 21.5015 23.7216 22.004 25.3748 22.9584" stroke="white" stroke-width="2" stroke-linecap="round" stroke-linejoin="round"/>
<path d="M3.62463 7.2499C5.27785 6.29542 7.15319 5.79292 9.06217 5.79292C10.9711 5.79292 12.8465 6.29542 14.4997 7.2499C16.1529 6.29542 18.0283 5.79292 19.9372 5.79292C21.8462 5.79292 23.7216 6.29542 25.3748 7.2499" stroke="white" stroke-width="2" stroke-linecap="round" stroke-linejoin="round"/>
<path d="M3.62463 7.25025V22.9587" stroke="white" stroke-width="2" stroke-linecap="round" stroke-linejoin="round"/>
<path d="M14.5005 7.25025V22.9587" stroke="white" stroke-width="2" stroke-linecap="round" stroke-linejoin="round"/>
<path d="M25.3754 7.25025V22.9587" stroke="white" stroke-width="2" stroke-linecap="round" stroke-linejoin="round"/>
</g>
<defs>
<clipPath id="clip0_81_2132">
<rect width="28.8" height="28.8" fill="white" transform="scale(1.00695)"/>
</clipPath>
</defs>
</svg>
