<svg width="60" height="60" viewBox="0 0 60 60" fill="none" xmlns="http://www.w3.org/2000/svg">
<circle cx="28" cy="28" r="28" fill="#FFD6DD"/>
<mask id="mask0_199_620" style="mask-type:alpha" maskUnits="userSpaceOnUse" x="0" y="0" width="56" height="56">
<circle cx="28" cy="28" r="28" fill="#C4C4C4"/>
</mask>
<g mask="url(#mask0_199_620)">
<path fill-rule="evenodd" clip-rule="evenodd" d="M29.0002 14.4961C23.3769 14.4961 18.8184 19.0546 18.8184 24.6779V25.7142C17.7865 25.8874 17.0002 26.7848 17.0002 27.8659V30.3594C17.0002 31.4624 17.8186 32.3742 18.8813 32.5207C19.2787 36.0914 21.5226 39.1047 24.6365 40.5839V43.9311C16.9353 44.3456 10.8184 50.7215 10.8184 58.5262H47.182C47.182 50.7215 41.065 44.3456 33.3638 43.9311V40.5839C36.4777 39.1047 38.7217 36.0914 39.119 32.5207C40.1817 32.3742 41.0002 31.4624 41.0002 30.3594V27.8659C41.0002 26.7848 40.2139 25.8874 39.182 25.7142V24.6779C39.182 19.0546 34.6234 14.4961 29.0002 14.4961Z" fill="#D0C6AC"/>
<mask id="mask1_199_620" style="mask-type:luminance" maskUnits="userSpaceOnUse" x="10" y="14" width="38" height="45">
<path fill-rule="evenodd" clip-rule="evenodd" d="M29.0002 14.4961C23.3769 14.4961 18.8184 19.0546 18.8184 24.6779V25.7142C17.7865 25.8874 17.0002 26.7848 17.0002 27.8659V30.3594C17.0002 31.4624 17.8186 32.3742 18.8813 32.5207C19.2787 36.0914 21.5226 39.1047 24.6365 40.5839V43.9311C16.9353 44.3456 10.8184 50.7215 10.8184 58.5262H47.182C47.182 50.7215 41.065 44.3456 33.3638 43.9311V40.5839C36.4777 39.1047 38.7217 36.0914 39.119 32.5207C40.1817 32.3742 41.0002 31.4624 41.0002 30.3594V27.8659C41.0002 26.7848 40.2139 25.8874 39.182 25.7142V24.6779C39.182 19.0546 34.6234 14.4961 29.0002 14.4961Z" fill="white"/>
</mask>
<g mask="url(#mask1_199_620)">
<rect x="5" y="14.4961" width="48" height="44.0301" fill="#FFBF75"/>
<path fill-rule="evenodd" clip-rule="evenodd" d="M18.8184 31.3818V32.8254C18.8184 38.4487 23.3769 43.0073 29.0002 43.0073C34.6234 43.0073 39.182 38.4487 39.182 32.8254V31.3818C39.182 37.0051 34.6234 41.5637 29.0002 41.5637C23.3769 41.5637 18.8184 37.0051 18.8184 31.3818Z" fill="black" fill-opacity="0.1"/>
</g>
<path fill-rule="evenodd" clip-rule="evenodd" d="M24.6365 41.3286C21.4398 42.0822 19.1599 43.6381 18.8535 45.472C14.0869 47.8798 10.8184 52.8215 10.8184 58.5266H47.182C47.182 52.8215 43.9135 47.8798 39.1468 45.472C38.8405 43.6381 36.5606 42.0822 33.3638 41.3286V44.4186C33.3638 46.8286 31.4101 48.7822 29.0002 48.7822C26.5902 48.7822 24.6365 46.8286 24.6365 44.4186V41.3286Z" fill="#B7C1DB"/>
<mask id="mask2_199_620" style="mask-type:luminance" maskUnits="userSpaceOnUse" x="10" y="41" width="38" height="18">
<path fill-rule="evenodd" clip-rule="evenodd" d="M24.6365 41.3286C21.4398 42.0822 19.1599 43.6381 18.8535 45.472C14.0869 47.8798 10.8184 52.8215 10.8184 58.5266H47.182C47.182 52.8215 43.9135 47.8798 39.1468 45.472C38.8405 43.6381 36.5606 42.0822 33.3638 41.3286V44.4186C33.3638 46.8286 31.4101 48.7822 29.0002 48.7822C26.5902 48.7822 24.6365 46.8286 24.6365 44.4186V41.3286Z" fill="white"/>
</mask>
<g mask="url(#mask2_199_620)">
<rect x="5" y="38.6768" width="48" height="19.8496" fill="#FF6990"/>
<path fill-rule="evenodd" clip-rule="evenodd" d="M23.5457 50.106C23.0963 49.9541 22.6708 49.784 22.2729 49.5977V58.5264H23.5457V50.106ZM34.4548 50.106C34.9041 49.9541 35.3296 49.784 35.7275 49.5977V56.4465C35.7275 56.7979 35.4426 57.0828 35.0911 57.0828C34.7397 57.0828 34.4548 56.7979 34.4548 56.4465V50.106Z" fill="#F4F4F4"/>
<path fill-rule="evenodd" clip-rule="evenodd" d="M29.0001 50.9472C34.6234 50.9472 39.1819 48.5235 39.1819 45.5337C39.1819 43.7539 37.5665 42.1747 35.0727 41.188C38.6717 42.0945 41.091 43.782 41.091 45.7141C41.091 48.6043 35.6777 50.9472 29.0001 50.9472ZM22.9274 41.188C20.4337 42.1747 18.8183 43.7539 18.8183 45.5337C18.8183 48.5235 23.3768 50.9472 29.0001 50.9472C22.3225 50.9472 16.9092 48.6043 16.9092 45.7141C16.9092 43.782 19.3285 42.0945 22.9274 41.188Z" fill="black" fill-opacity="0.16"/>
</g>
<path fill-rule="evenodd" clip-rule="evenodd" d="M26.4551 34.8867C26.4551 36.282 27.5947 37.413 29.0005 37.413C30.4063 37.413 31.546 36.282 31.546 34.8867" fill="#0C092A"/>
<g opacity="0.3">
<path fill-rule="evenodd" clip-rule="evenodd" d="M26.8184 31.459C26.8184 32.2563 27.7952 32.9026 29.0002 32.9026C30.2052 32.9026 31.182 32.2563 31.182 31.459" fill="#0C092A"/>
</g>
<ellipse cx="24.273" cy="28.2101" rx="1.09091" ry="1.08271" fill="#0C092A"/>
<ellipse cx="33.7276" cy="28.2101" rx="1.09091" ry="1.08271" fill="#0C092A"/>
<path d="M21.6601 25.893C22.3719 24.899 24.3233 24.3415 26.0042 24.7512C26.1993 24.7988 26.3962 24.6804 26.4441 24.4868C26.492 24.2932 26.3727 24.0978 26.1777 24.0503C24.2255 23.5745 21.9659 24.2199 21.0673 25.4749C20.9509 25.6374 20.9893 25.8627 21.153 25.9781C21.3167 26.0936 21.5437 26.0555 21.6601 25.893Z" fill="#0C092A"/>
<path d="M36.3399 25.893C35.6281 24.899 33.6767 24.3415 31.9958 24.7512C31.8008 24.7988 31.6038 24.6804 31.5559 24.4868C31.508 24.2932 31.6273 24.0978 31.8223 24.0503C33.7745 23.5745 36.0341 24.2199 36.9327 25.4749C37.0491 25.6374 37.0107 25.8627 36.847 25.9781C36.6833 26.0936 36.4563 26.0555 36.3399 25.893Z" fill="#0C092A"/>
<mask id="mask3_199_620" style="mask-type:luminance" maskUnits="userSpaceOnUse" x="5" y="8" width="48" height="51">
<rect x="5" y="8" width="48" height="50.5263" fill="white"/>
</mask>
<g mask="url(#mask3_199_620)">
<path fill-rule="evenodd" clip-rule="evenodd" d="M24.1907 33.5661C24.4865 33.3901 24.7738 33.2191 25.0708 33.1066C26.0144 32.7488 27.7653 32.8502 29.0002 33.4973C30.2351 32.8502 31.9861 32.7488 32.9296 33.1066C33.2266 33.2191 33.5139 33.3901 33.8097 33.5661C34.5597 34.0122 35.3644 34.491 36.5205 34.1345C36.5876 34.1138 36.6531 34.1736 36.633 34.2392C36.3833 35.053 34.9952 35.6104 34.5236 35.6286C33.3951 35.6722 32.3867 35.2206 31.4098 34.783C30.6019 34.4211 29.8154 34.0688 29.0002 34.0142C28.185 34.0688 27.3985 34.4211 26.5906 34.783C25.6137 35.2206 24.6053 35.6722 23.4769 35.6286C23.0052 35.6104 21.6172 35.053 21.3675 34.2392C21.3473 34.1736 21.4128 34.1138 21.4799 34.1345C22.636 34.491 23.4408 34.0122 24.1907 33.5661Z" fill="#28354B"/>
<mask id="mask4_199_620" style="mask-type:luminance" maskUnits="userSpaceOnUse" x="21" y="32" width="16" height="4">
<path fill-rule="evenodd" clip-rule="evenodd" d="M24.1907 33.5661C24.4865 33.3901 24.7738 33.2191 25.0708 33.1066C26.0144 32.7488 27.7653 32.8502 29.0002 33.4973C30.2351 32.8502 31.9861 32.7488 32.9296 33.1066C33.2266 33.2191 33.5139 33.3901 33.8097 33.5661C34.5597 34.0122 35.3644 34.491 36.5205 34.1345C36.5876 34.1138 36.6531 34.1736 36.633 34.2392C36.3833 35.053 34.9952 35.6104 34.5236 35.6286C33.3951 35.6722 32.3867 35.2206 31.4098 34.783C30.6019 34.4211 29.8154 34.0688 29.0002 34.0142C28.185 34.0688 27.3985 34.4211 26.5906 34.783C25.6137 35.2206 24.6053 35.6722 23.4769 35.6286C23.0052 35.6104 21.6172 35.053 21.3675 34.2392C21.3473 34.1736 21.4128 34.1138 21.4799 34.1345C22.636 34.491 23.4408 34.0122 24.1907 33.5661Z" fill="white"/>
</mask>
<g mask="url(#mask4_199_620)">
<rect x="13.7275" y="20.9927" width="30.5455" height="27.4286" fill="#0C092A"/>
</g>
<path fill-rule="evenodd" clip-rule="evenodd" d="M37.5729 15.2039C37.0712 14.695 36.4886 14.2631 35.9219 13.83C35.7969 13.7345 35.6698 13.6413 35.5476 13.5422C35.5198 13.5197 35.2351 13.3173 35.2011 13.2429C35.1191 13.0637 35.1666 13.2032 35.1779 12.9894C35.1922 12.7191 35.7476 11.9556 35.3332 11.7805C35.1508 11.7035 34.8256 11.9084 34.6507 11.9761C34.3086 12.1086 33.9624 12.2215 33.6087 12.319C33.7781 11.9839 34.1012 11.3132 33.494 11.4927C33.021 11.6326 32.5802 11.9921 32.1049 12.1613C32.2622 11.9054 32.8911 11.1126 32.3228 11.0683C32.146 11.0545 31.6313 11.3837 31.4409 11.454C30.8706 11.6644 30.2881 11.8003 29.6893 11.9074C27.6533 12.2716 25.2724 12.1678 23.3887 13.0877C21.9365 13.797 20.5025 14.8974 19.6636 16.2987C18.855 17.6494 18.5526 19.1276 18.3833 20.6753C18.2591 21.8112 18.249 22.9853 18.3071 24.1253C18.3261 24.4988 18.3684 26.2205 18.9151 25.6991C19.1875 25.4393 19.1855 24.3903 19.2541 24.0352C19.3906 23.3287 19.5221 22.619 19.7497 21.9351C20.1508 20.7299 20.624 19.4462 21.6233 18.6161C22.2646 18.0835 22.7149 17.3636 23.3286 16.8263C23.6043 16.585 23.3939 16.6101 23.8371 16.6417C24.1349 16.663 24.4339 16.6711 24.7323 16.6789C25.4225 16.6967 26.1137 16.6921 26.8041 16.6945C28.1944 16.6995 29.5783 16.719 30.9673 16.6468C31.5845 16.6147 32.2035 16.5973 32.8191 16.5406C33.163 16.509 33.7732 16.2902 34.0563 16.4574C34.3154 16.6103 34.5844 17.1097 34.7705 17.3142C35.21 17.7975 35.734 18.1667 36.2479 18.563C37.3196 19.3894 37.8607 20.4273 38.1861 21.7187C38.5104 23.0053 38.4195 24.199 38.8209 25.4651C38.8915 25.6877 39.0782 26.0715 39.3085 25.7275C39.3512 25.6637 39.3401 25.3125 39.3401 25.1105C39.3401 24.2949 39.5482 23.6829 39.5456 22.862C39.5354 20.366 39.4541 17.1113 37.5729 15.2039Z" fill="#0C092A"/>
<mask id="mask5_199_620" style="mask-type:luminance" maskUnits="userSpaceOnUse" x="18" y="11" width="22" height="15">
<path fill-rule="evenodd" clip-rule="evenodd" d="M37.5729 15.2039C37.0712 14.695 36.4886 14.2631 35.9219 13.83C35.7969 13.7345 35.6698 13.6413 35.5476 13.5422C35.5198 13.5197 35.2351 13.3173 35.2011 13.2429C35.1191 13.0637 35.1666 13.2032 35.1779 12.9894C35.1922 12.7191 35.7476 11.9556 35.3332 11.7805C35.1508 11.7035 34.8256 11.9084 34.6507 11.9761C34.3086 12.1086 33.9624 12.2215 33.6087 12.319C33.7781 11.9839 34.1012 11.3132 33.494 11.4927C33.021 11.6326 32.5802 11.9921 32.1049 12.1613C32.2622 11.9054 32.8911 11.1126 32.3228 11.0683C32.146 11.0545 31.6313 11.3837 31.4409 11.454C30.8706 11.6644 30.2881 11.8003 29.6893 11.9074C27.6533 12.2716 25.2724 12.1678 23.3887 13.0877C21.9365 13.797 20.5025 14.8974 19.6636 16.2987C18.855 17.6494 18.5526 19.1276 18.3833 20.6753C18.2591 21.8112 18.249 22.9853 18.3071 24.1253C18.3261 24.4988 18.3684 26.2205 18.9151 25.6991C19.1875 25.4393 19.1855 24.3903 19.2541 24.0352C19.3906 23.3287 19.5221 22.619 19.7497 21.9351C20.1508 20.7299 20.624 19.4462 21.6233 18.6161C22.2646 18.0835 22.7149 17.3636 23.3286 16.8263C23.6043 16.585 23.3939 16.6101 23.8371 16.6417C24.1349 16.663 24.4339 16.6711 24.7323 16.6789C25.4225 16.6967 26.1137 16.6921 26.8041 16.6945C28.1944 16.6995 29.5783 16.719 30.9673 16.6468C31.5845 16.6147 32.2035 16.5973 32.8191 16.5406C33.163 16.509 33.7732 16.2902 34.0563 16.4574C34.3154 16.6103 34.5844 17.1097 34.7705 17.3142C35.21 17.7975 35.734 18.1667 36.2479 18.563C37.3196 19.3894 37.8607 20.4273 38.1861 21.7187C38.5104 23.0053 38.4195 24.199 38.8209 25.4651C38.8915 25.6877 39.0782 26.0715 39.3085 25.7275C39.3512 25.6637 39.3401 25.3125 39.3401 25.1105C39.3401 24.2949 39.5482 23.6829 39.5456 22.862C39.5354 20.366 39.4541 17.1113 37.5729 15.2039Z" fill="white"/>
</mask>
<g mask="url(#mask5_199_620)">
<rect x="5" y="8" width="48" height="50.5263" fill="#0C092A"/>
</g>
</g>
</g>
<mask id="mask6_199_620" style="mask-type:alpha" maskUnits="userSpaceOnUse" x="40" y="40" width="20" height="20">
<rect x="40" y="40" width="20" height="20" rx="4" fill="#C4C4C4"/>
</mask>
<g mask="url(#mask6_199_620)">
<mask id="mask7_199_620" style="mask-type:luminance" maskUnits="userSpaceOnUse" x="37" y="40" width="26" height="20">
<rect x="37" y="40" width="26" height="20" rx="2" fill="white"/>
</mask>
<g mask="url(#mask7_199_620)">
<path fill-rule="evenodd" clip-rule="evenodd" d="M37 53.3335H63V60.0002H37V53.3335Z" fill="#FFD018"/>
<path fill-rule="evenodd" clip-rule="evenodd" d="M37 46.6665H63V53.3332H37V46.6665Z" fill="#E31D1C"/>
<path fill-rule="evenodd" clip-rule="evenodd" d="M37 40H63V46.6667H37V40Z" fill="#272727"/>
</g>
<rect x="37" y="40" width="26" height="20" fill="url(#paint0_linear_199_620)" style="mix-blend-mode:overlay"/>
</g>
<defs>
<linearGradient id="paint0_linear_199_620" x1="50" y1="40" x2="50" y2="60" gradientUnits="userSpaceOnUse">
<stop stop-color="white" stop-opacity="0.7"/>
<stop offset="1" stop-opacity="0.3"/>
</linearGradient>
</defs>
</svg>
