<svg width="28" height="28" viewBox="0 0 28 28" fill="none" xmlns="http://www.w3.org/2000/svg">
<g clip-path="url(#clip0_135_8867)">
<path d="M14 24.5C19.799 24.5 24.5 19.799 24.5 14C24.5 8.20101 19.799 3.5 14 3.5C8.20101 3.5 3.5 8.20101 3.5 14C3.5 19.799 8.20101 24.5 14 24.5Z" fill="white" stroke="white" stroke-width="2" stroke-linecap="round" stroke-linejoin="round"/>
<path d="M10.5 11.6667H10.5117" stroke="#8FC9FF" stroke-width="2" stroke-linecap="round" stroke-linejoin="round"/>
<path d="M17.5 11.6667H17.5117" stroke="#8FC9FF" stroke-width="2" stroke-linecap="round" stroke-linejoin="round"/>
<path d="M11.083 17.5C11.4632 17.888 11.917 18.1963 12.4178 18.4067C12.9186 18.6172 13.4564 18.7256 13.9997 18.7256C14.5429 18.7256 15.0807 18.6172 15.5815 18.4067C16.0824 18.1963 16.5361 17.888 16.9163 17.5" stroke="#8FC9FF" stroke-width="2" stroke-linecap="round" stroke-linejoin="round"/>
</g>
<defs>
<clipPath id="clip0_135_8867">
<rect width="28" height="28" fill="white"/>
</clipPath>
</defs>
</svg>
