<svg width="10" height="18" viewBox="0 0 10 18" fill="none" xmlns="http://www.w3.org/2000/svg">
<path d="M3.88664 12.1095H1.81377C1.53888 12.1095 1.27526 12.0003 1.08089 11.806C0.886524 11.6116 0.777328 11.348 0.777328 11.0731V6.92735C0.777328 6.65247 0.886524 6.38885 1.08089 6.19448C1.27526 6.00011 1.53888 5.89091 1.81377 5.89091H3.88664L7.51417 1.22695C7.60476 1.05099 7.7553 0.913239 7.93858 0.838584C8.12186 0.763929 8.32581 0.757294 8.51356 0.819877C8.70131 0.882461 8.86048 1.01013 8.96231 1.17983C9.06415 1.34952 9.10193 1.55005 9.06883 1.74516V16.2553C9.10193 16.4504 9.06415 16.6509 8.96231 16.8206C8.86048 16.9903 8.70131 17.118 8.51356 17.1806C8.32581 17.2432 8.12186 17.2365 7.93858 17.1619C7.7553 17.0872 7.60476 16.9495 7.51417 16.7735L3.88664 12.1095Z" stroke="#6A5AE0" stroke-width="1.5" stroke-linecap="round" stroke-linejoin="round"/>
</svg>
