<svg width="1440" height="40" viewBox="0 0 1440 40" fill="none" xmlns="http://www.w3.org/2000/svg">
<mask id="mask0_202_8851" style="mask-type:alpha" maskUnits="userSpaceOnUse" x="0" y="0" width="1440" height="40">
<rect width="1440" height="40" fill="#C4C4C4"/>
</mask>
<g mask="url(#mask0_202_8851)">
<path d="M1478 -253.913C1477.99 8.4155 1394.35 260 1245.46 445.496C1096.57 630.991 894.63 735.203 684.066 735.21C673.207 735.21 662.553 734.955 651.694 734.444C593.697 731.494 536.131 720.709 480 702.282C490.859 695.39 501.513 688.498 512.167 681.096C512.372 681.096 512.577 680.84 512.987 680.585L513.192 680.33C524.46 672.672 535.524 665.015 546.383 657.102C549.047 655.059 551.71 653.273 554.374 651.486C564.618 643.828 574.862 636.17 584.902 628.002C587.87 625.998 590.743 623.783 593.507 621.365C601.292 615.495 609.078 609.113 616.659 602.732C621.986 598.392 627.518 593.798 632.64 589.458C640.426 582.822 648.006 576.185 655.587 569.293C660.709 564.953 665.422 560.614 670.339 555.764C676.895 550.149 683.247 544.022 689.598 537.896C695.335 532.791 700.867 527.431 706.399 521.815C714.185 514.412 721.765 506.755 729.346 498.587C732.624 495.524 735.902 492.205 739.181 488.632C747.376 480.208 755.367 471.529 763.357 462.595C767.66 458.001 771.962 453.406 776.265 448.301C780.977 443.196 785.485 438.091 789.992 432.73C798.597 423.03 806.998 412.82 815.398 402.61C816.523 401.464 817.554 400.182 818.471 398.781C826.667 389.081 834.657 378.871 842.443 368.66C847.975 362.024 853.097 355.132 858.014 348.24C863.956 340.837 869.488 333.18 875.02 325.522C878.298 321.183 881.371 316.843 884.24 312.504C891.616 302.294 898.787 291.828 905.958 281.362C909.646 276.002 913.334 270.386 916.817 264.771C922.144 257.113 927.266 249.455 931.978 241.542C936.895 234.14 941.608 226.482 946.115 218.824C950.418 212.188 954.516 205.296 958.408 198.659C963.735 189.98 968.858 181.302 973.775 172.367C978.692 163.433 984.019 154.499 988.936 145.31C991.377 141.303 993.634 137.127 995.698 132.803C1002.66 120.04 1009.43 107.022 1015.98 94.0034C1024.38 77.9222 1032.37 61.5857 1039.95 44.9939C1043.44 37.8467 1046.71 30.6995 1049.99 23.5523C1076.56 -34.8277 1100.24 -95.1832 1120.88 -157.17C1123.96 -165.849 1126.82 -174.527 1129.49 -183.462C1132.77 -192.906 1135.63 -202.606 1138.5 -212.306C1140.96 -220.219 1143.42 -228.387 1145.67 -236.555C1148.34 -245.489 1150.8 -254.678 1153.25 -263.612C1162.27 -296.285 1170.47 -329.214 1177.64 -362.652C1179.48 -371.076 1181.32 -379.244 1182.96 -387.667C1184.19 -393.028 1185.22 -398.133 1186.24 -403.494L1191.16 -429.53C1197.72 -465.011 1203.25 -500.747 1207.96 -536.993L1211.03 -561.498C1211.44 -565.327 1211.85 -568.9 1212.26 -572.729C1213.49 -582.429 1214.52 -592.129 1215.34 -601.829C1216.77 -616.378 1218.2 -630.928 1219.23 -645.478C1219.64 -649.306 1219.84 -653.135 1220.05 -656.964C1220.87 -666.919 1221.48 -677.13 1222.1 -687.085C1222.71 -697.04 1223.12 -707.505 1223.53 -717.716C1223.94 -724.863 1224.15 -732.01 1224.35 -739.412C1225.17 -762.896 1225.58 -786.38 1225.58 -809.863C1225.58 -821.861 1225.58 -833.602 1225.17 -845.344C1225.17 -851.47 1225.17 -857.341 1224.96 -863.468C1224.35 -884.654 1223.53 -905.585 1222.3 -926.516L1222.3 -927.282C1222.1 -932.387 1221.89 -937.492 1221.48 -942.597C1220.66 -956.637 1219.64 -970.42 1218.61 -984.46C1218.62 -984.899 1218.55 -985.335 1218.41 -985.736C1246.01 -954.413 1271.82 -920.722 1295.65 -884.909L1296.27 -884.143C1296.38 -884.006 1296.45 -883.827 1296.47 -883.633C1414.09 -706.533 1478.3 -483.775 1478 -253.913Z" fill="#FF8FA2"/>
<path d="M1228 -807.056C1228.11 -497.425 1161.25 -193.514 1034.5 72.508C907.753 338.533 725.824 556.773 507.972 704.136C507.702 704.53 507.338 704.804 506.934 704.913L506.729 705.172C495.961 712.42 485.192 719.409 474.424 726.398C406.842 704.134 341.936 670.705 281.422 626.998C237.644 595.48 196.323 558.906 158 517.761C165.248 508.184 172.289 498.606 179.33 488.769L179.535 488.51C179.535 488.252 179.744 487.993 179.951 487.734L180.156 487.734C406.761 172.92 531.902 -235.762 531.372 -659.25C531.405 -841.676 508.34 -1022.96 463.032 -1196.37L462.827 -1196.37C462.827 -1196.89 462.62 -1197.41 462.62 -1197.93L462.411 -1197.93C462.293 -1198.34 462.223 -1198.78 462.206 -1199.22C458.064 -1215.01 453.716 -1230.8 449.16 -1246.33L680.68 -1246.33C880.449 -1246.68 1073.1 -1153.6 1220.75 -985.407C1222.41 -965.734 1223.65 -946.061 1224.69 -926.129C1226.96 -886.784 1228 -847.179 1228 -807.056Z" fill="#9087E5"/>
<path d="M536 -669.005C536 -651.876 535.797 -634.746 535.391 -617.873C535.188 -606.879 534.782 -596.141 534.377 -585.148C532.753 -541.174 529.71 -497.455 525.245 -453.992C524.231 -442.743 523.013 -431.75 521.593 -420.756C520.172 -407.206 518.346 -393.911 516.52 -380.361C514.897 -367.578 513.07 -355.05 511.041 -342.267C510.635 -339.199 510.027 -336.131 509.621 -333.063C507.997 -322.581 506.171 -311.843 504.345 -301.361C494.814 -246.874 483.098 -193.031 469.24 -140.037C466.602 -129.555 463.762 -119.329 460.921 -109.358C460.673 -108.128 460.334 -106.929 459.906 -105.778C457.065 -95.2962 454.225 -85.3253 451.181 -75.0988C450.369 -72.0308 449.354 -68.7072 448.34 -65.3834C445.093 -54.3899 441.644 -43.6521 438.194 -32.9142C434.339 -20.6423 430.28 -8.3705 426.019 3.64574C421.758 16.1732 417.294 28.7007 412.829 41.2283C408.568 52.7331 404.104 64.2379 399.843 75.4872C395.176 87.5033 390.509 99.2639 385.639 110.769C380.769 122.274 375.899 134.034 370.826 145.539C365.753 157.044 360.68 168.549 355.607 179.798C350.534 191.047 345.055 202.552 339.576 213.801C334.098 225.05 328.619 236.044 322.937 247.037C311.777 269.025 300.211 290.756 288.238 311.976C276.266 333.196 263.686 354.161 251.105 374.869C232.03 405.293 212.281 434.95 191.853 463.84L191.65 463.84C191.447 464.096 191.447 464.096 191.447 464.352C191.447 464.418 191.427 464.484 191.388 464.533C191.35 464.579 191.299 464.607 191.244 464.607C184.345 474.322 177.243 484.038 170.141 493.497C138.169 458.88 108.448 421.091 81.2638 380.494C81.0576 380.008 80.7823 379.576 80.4521 379.216C-38.8813 200.898 -104.229 -24.9094 -103.999 -258.154L-103.999 -1248.85L455.442 -1248.85C459.906 -1233.51 464.167 -1218.17 468.023 -1202.58L468.226 -1202.32C468.244 -1201.88 468.313 -1201.45 468.429 -1201.04L468.632 -1201.04L468.632 -1200.27C468.619 -1200.14 468.63 -1200 468.664 -1199.86C468.701 -1199.73 468.759 -1199.61 468.834 -1199.51L469.037 -1199.51C469.218 -1198.53 469.49 -1197.59 469.849 -1196.7L472.284 -1186.72C479.183 -1159.62 485.474 -1132.27 491.155 -1104.4C495.214 -1085.74 498.866 -1066.56 502.316 -1047.39C508.606 -1012.62 514.085 -977.08 518.752 -941.032C519.767 -932.339 520.984 -923.902 521.796 -915.21C524.231 -893.989 526.463 -872.769 528.289 -851.294C529.101 -843.368 529.71 -835.187 530.115 -827.261C531.333 -812.433 532.145 -797.349 532.956 -782.52C534.985 -744.938 536 -707.099 536 -669.005Z" fill="#C4D0FB"/>
</g>
</svg>
