<svg width="28" height="28" viewBox="0 0 28 28" fill="none" xmlns="http://www.w3.org/2000/svg">
<g clip-path="url(#clip0_135_8786)">
<path d="M4.66667 8.16667H8.16667C8.47609 8.16667 8.77283 8.04375 8.99162 7.82496C9.21042 7.60616 9.33333 7.30942 9.33333 7V5.83333C9.33333 5.21449 9.57917 4.621 10.0168 4.18342C10.4543 3.74583 11.0478 3.5 11.6667 3.5C12.2855 3.5 12.879 3.74583 13.3166 4.18342C13.7542 4.621 14 5.21449 14 5.83333V7C14 7.30942 14.1229 7.60616 14.3417 7.82496C14.5605 8.04375 14.8572 8.16667 15.1667 8.16667H18.6667C18.9761 8.16667 19.2728 8.28958 19.4916 8.50838C19.7104 8.72717 19.8333 9.02391 19.8333 9.33333V12.8333C19.8333 13.1428 19.9562 13.4395 20.175 13.6583C20.3938 13.8771 20.6906 14 21 14H22.1667C22.7855 14 23.379 14.2458 23.8166 14.6834C24.2542 15.121 24.5 15.7145 24.5 16.3333C24.5 16.9522 24.2542 17.5457 23.8166 17.9832C23.379 18.4208 22.7855 18.6667 22.1667 18.6667H21C20.6906 18.6667 20.3938 18.7896 20.175 19.0084C19.9562 19.2272 19.8333 19.5239 19.8333 19.8333V23.3333C19.8333 23.6428 19.7104 23.9395 19.4916 24.1583C19.2728 24.3771 18.9761 24.5 18.6667 24.5H15.1667C14.8572 24.5 14.5605 24.3771 14.3417 24.1583C14.1229 23.9395 14 23.6428 14 23.3333V22.1667C14 21.5478 13.7542 20.9543 13.3166 20.5168C12.879 20.0792 12.2855 19.8333 11.6667 19.8333C11.0478 19.8333 10.4543 20.0792 10.0168 20.5168C9.57917 20.9543 9.33333 21.5478 9.33333 22.1667V23.3333C9.33333 23.6428 9.21042 23.9395 8.99162 24.1583C8.77283 24.3771 8.47609 24.5 8.16667 24.5H4.66667C4.35725 24.5 4.0605 24.3771 3.84171 24.1583C3.62292 23.9395 3.5 23.6428 3.5 23.3333V19.8333C3.5 19.5239 3.62292 19.2272 3.84171 19.0084C4.0605 18.7896 4.35725 18.6667 4.66667 18.6667H5.83333C6.45217 18.6667 7.04566 18.4208 7.48325 17.9832C7.92083 17.5457 8.16667 16.9522 8.16667 16.3333C8.16667 15.7145 7.92083 15.121 7.48325 14.6834C7.04566 14.2458 6.45217 14 5.83333 14H4.66667C4.35725 14 4.0605 13.8771 3.84171 13.6583C3.62292 13.4395 3.5 13.1428 3.5 12.8333V9.33333C3.5 9.02391 3.62292 8.72717 3.84171 8.50838C4.0605 8.28958 4.35725 8.16667 4.66667 8.16667Z" fill="white"/>
</g>
<defs>
<clipPath id="clip0_135_8786">
<rect width="28" height="28" fill="white"/>
</clipPath>
</defs>
</svg>
