<svg width="20" height="20" viewBox="0 0 20 20" fill="none" xmlns="http://www.w3.org/2000/svg">
<g clip-path="url(#clip0_145_7210)">
<path d="M3.33333 5.83333H5.83333C6.05435 5.83333 6.26631 5.74554 6.42259 5.58926C6.57887 5.43298 6.66667 5.22101 6.66667 5V4.16667C6.66667 3.72464 6.84226 3.30072 7.15482 2.98816C7.46738 2.67559 7.89131 2.5 8.33333 2.5C8.77536 2.5 9.19928 2.67559 9.51184 2.98816C9.8244 3.30072 10 3.72464 10 4.16667V5C10 5.22101 10.0878 5.43298 10.2441 5.58926C10.4004 5.74554 10.6123 5.83333 10.8333 5.83333H13.3333C13.5543 5.83333 13.7663 5.92113 13.9226 6.07741C14.0789 6.23369 14.1667 6.44565 14.1667 6.66667V9.16667C14.1667 9.38768 14.2545 9.59964 14.4107 9.75592C14.567 9.9122 14.779 10 15 10H15.8333C16.2754 10 16.6993 10.1756 17.0118 10.4882C17.3244 10.8007 17.5 11.2246 17.5 11.6667C17.5 12.1087 17.3244 12.5326 17.0118 12.8452C16.6993 13.1577 16.2754 13.3333 15.8333 13.3333H15C14.779 13.3333 14.567 13.4211 14.4107 13.5774C14.2545 13.7337 14.1667 13.9457 14.1667 14.1667V16.6667C14.1667 16.8877 14.0789 17.0996 13.9226 17.2559C13.7663 17.4122 13.5543 17.5 13.3333 17.5H10.8333C10.6123 17.5 10.4004 17.4122 10.2441 17.2559C10.0878 17.0996 10 16.8877 10 16.6667V15.8333C10 15.3913 9.8244 14.9674 9.51184 14.6548C9.19928 14.3423 8.77536 14.1667 8.33333 14.1667C7.89131 14.1667 7.46738 14.3423 7.15482 14.6548C6.84226 14.9674 6.66667 15.3913 6.66667 15.8333V16.6667C6.66667 16.8877 6.57887 17.0996 6.42259 17.2559C6.26631 17.4122 6.05435 17.5 5.83333 17.5H3.33333C3.11232 17.5 2.90036 17.4122 2.74408 17.2559C2.5878 17.0996 2.5 16.8877 2.5 16.6667V14.1667C2.5 13.9457 2.5878 13.7337 2.74408 13.5774C2.90036 13.4211 3.11232 13.3333 3.33333 13.3333H4.16667C4.60869 13.3333 5.03262 13.1577 5.34518 12.8452C5.65774 12.5326 5.83333 12.1087 5.83333 11.6667C5.83333 11.2246 5.65774 10.8007 5.34518 10.4882C5.03262 10.1756 4.60869 10 4.16667 10H3.33333C3.11232 10 2.90036 9.9122 2.74408 9.75592C2.5878 9.59964 2.5 9.38768 2.5 9.16667V6.66667C2.5 6.44565 2.5878 6.23369 2.74408 6.07741C2.90036 5.92113 3.11232 5.83333 3.33333 5.83333" stroke="white" stroke-width="2" stroke-linecap="round" stroke-linejoin="round"/>
</g>
<defs>
<clipPath id="clip0_145_7210">
<rect width="20" height="20" fill="white"/>
</clipPath>
</defs>
</svg>
