<svg width="20" height="20" viewBox="0 0 20 20" fill="none" xmlns="http://www.w3.org/2000/svg">
<path d="M18.1716 8.36792H17.5003V8.33333H10.0003V11.6667H14.7099C14.0228 13.6071 12.1766 15 10.0003 15C7.23908 15 5.00033 12.7612 5.00033 10C5.00033 7.23875 7.23908 5 10.0003 5C11.2749 5 12.4345 5.48083 13.3174 6.26625L15.6745 3.90917C14.1862 2.52208 12.1953 1.66667 10.0003 1.66667C5.39824 1.66667 1.66699 5.39792 1.66699 10C1.66699 14.6021 5.39824 18.3333 10.0003 18.3333C14.6024 18.3333 18.3337 14.6021 18.3337 10C18.3337 9.44125 18.2762 8.89583 18.1716 8.36792Z" fill="#FFC107"/>
<path d="M2.62793 6.12125L5.36585 8.12917C6.10668 6.295 7.90085 5 10.0004 5C11.275 5 12.4346 5.48083 13.3175 6.26625L15.6746 3.90917C14.1863 2.52208 12.1954 1.66667 10.0004 1.66667C6.7996 1.66667 4.02376 3.47375 2.62793 6.12125Z" fill="#FF3D00"/>
<path d="M9.9998 18.3333C12.1523 18.3333 14.1081 17.5096 15.5869 16.17L13.0077 13.9875C12.1429 14.6452 11.0862 15.0009 9.9998 15C7.8323 15 5.99189 13.6179 5.29855 11.6892L2.58105 13.7829C3.96022 16.4817 6.76105 18.3333 9.9998 18.3333Z" fill="#4CAF50"/>
<path d="M18.1713 8.36792H17.5V8.33333H10V11.6667H14.7096C14.3809 12.5902 13.7889 13.3972 13.0067 13.9879L13.0079 13.9871L15.5871 16.1696C15.4046 16.3354 18.3333 14.1667 18.3333 10C18.3333 9.44125 18.2758 8.89583 18.1713 8.36792Z" fill="#1976D2"/>
</svg>
