<svg width="54" height="62" viewBox="0 0 54 62" fill="none" xmlns="http://www.w3.org/2000/svg">
<mask id="mask0_199_1626" style="mask-type:alpha" maskUnits="userSpaceOnUse" x="0" y="0" width="54" height="62">
<path fill-rule="evenodd" clip-rule="evenodd" d="M25.3881 47.5758C27.2584 47.4893 29.0977 47.1912 30.8726 46.6961L33.3771 49.1771C35.7337 51.5115 39.563 51.5202 41.9302 49.1965C44.2973 46.8727 44.3059 43.0965 41.9493 40.7621L39.1056 37.9452C38.5754 37.42 37.9707 37.0125 37.3248 36.7228C35.4575 35.3959 32.821 35.5701 30.6936 36.6026C28.9109 37.4678 26.9513 37.9725 24.9312 38.066C21.314 38.2334 17.7632 37.0705 14.973 34.8046C12.1828 32.5387 10.3538 29.3327 9.84355 25.8133C9.33331 22.294 10.1785 18.7143 12.214 15.7742C14.2494 12.8341 17.3287 10.7449 20.8499 9.91507C24.3711 9.08521 28.081 9.57437 31.2543 11.2869C34.4276 12.9995 36.8362 15.8122 38.0091 19.1754C38.6378 20.9778 38.8873 22.8689 38.7621 24.7381C38.582 27.4278 39.6263 30.3347 42.1074 31.3887C44.5416 32.4228 47.4108 31.3097 47.9675 28.7243C48.8666 24.5496 48.6118 20.1835 47.1846 16.0916C45.2296 10.4863 41.2153 5.79832 35.9265 2.94408C30.6376 0.0898491 24.4545 -0.725415 18.5859 0.657674C12.7172 2.04076 7.58504 5.52276 4.19265 10.4229C0.800259 15.3231 -0.608439 21.2892 0.241955 27.1548C1.09235 33.0203 4.14069 38.3637 8.79104 42.1402C13.4414 45.9168 19.3594 47.8549 25.3881 47.5758ZM43.6856 51.8097C41.3187 54.1333 41.3098 57.9095 43.6662 60.2437C46.0226 62.578 49.852 62.5863 52.2189 60.2628C54.5859 57.9392 54.5948 54.163 52.2384 51.8288C49.882 49.4945 46.0526 49.4862 43.6856 51.8097Z" fill="#6A5AE0"/>
</mask>
<g mask="url(#mask0_199_1626)">
<path fill-rule="evenodd" clip-rule="evenodd" d="M32.8159 81.3206L81.8295 32.928L71.2319 22.8096L15.1533 78.681L32.8159 81.3206Z" fill="#6A5AE0"/>
<path fill-rule="evenodd" clip-rule="evenodd" d="M23.1889 68.428L70.7172 22.496L60.4408 12.8921L6.06152 65.9226L23.1889 68.428Z" fill="#6A5AE0"/>
<path fill-rule="evenodd" clip-rule="evenodd" d="M8.89388 66.4718L64.7442 11.2468L54.955 0.923279L-0.895303 56.1482L8.89388 66.4718Z" fill="#6A5AE0"/>
<path fill-rule="evenodd" clip-rule="evenodd" d="M-1.19099 57.5194L54.5536 2.13822L40.0688 -3.9668L-9.0918 44.8733L-1.19099 57.5194Z" fill="#6A5AE0"/>
<path fill-rule="evenodd" clip-rule="evenodd" d="M-9.0918 45.6188L41.4204 -3.9668L14.3603 -1.31042L-9.0918 23.9251V45.6188Z" fill="#6A5AE0"/>
</g>
</svg>
