<svg width="60" height="60" viewBox="0 0 60 60" fill="none" xmlns="http://www.w3.org/2000/svg">
<g clip-path="url(#clip0_199_919)">
<rect width="56" height="56" rx="28" fill="#C4D0FB"/>
<circle cx="28" cy="28" r="28" fill="#FFD6DD"/>
<path fill-rule="evenodd" clip-rule="evenodd" d="M27.9996 13.873C22.0952 13.873 17.3087 18.6595 17.3087 24.564V25.7411C16.2252 25.9229 15.3996 26.8652 15.3996 28.0003V30.6731C15.3996 31.8285 16.2549 32.7841 17.3669 32.9413C17.7616 36.7224 20.127 39.9173 23.4178 41.4806V45.0201C15.322 45.5131 8.90869 52.235 8.90869 60.4548H47.0905C47.0905 52.235 40.6772 45.5131 32.5814 45.0201V41.4806C35.8722 39.9173 38.2376 36.7224 38.6323 32.9413C39.7443 32.7841 40.5996 31.8285 40.5996 30.6731V28.0003C40.5996 26.8652 39.774 25.9229 38.6905 25.7411V24.564C38.6905 18.6595 33.904 13.873 27.9996 13.873Z" fill="#D0C6AC"/>
<mask id="mask0_199_919" style="mask-type:luminance" maskUnits="userSpaceOnUse" x="8" y="13" width="40" height="48">
<path fill-rule="evenodd" clip-rule="evenodd" d="M27.9996 13.873C22.0952 13.873 17.3087 18.6595 17.3087 24.564V25.7411C16.2252 25.9229 15.3996 26.8652 15.3996 28.0003V30.6731C15.3996 31.8285 16.2549 32.7841 17.3669 32.9413C17.7616 36.7224 20.127 39.9173 23.4178 41.4806V45.0201C15.322 45.5131 8.90869 52.235 8.90869 60.4548H47.0905C47.0905 52.235 40.6772 45.5131 32.5814 45.0201V41.4806C35.8722 39.9173 38.2376 36.7224 38.6323 32.9413C39.7443 32.7841 40.5996 31.8285 40.5996 30.6731V28.0003C40.5996 26.8652 39.774 25.9229 38.6905 25.7411V24.564C38.6905 18.6595 33.904 13.873 27.9996 13.873Z" fill="white"/>
</mask>
<g mask="url(#mask0_199_919)">
<rect x="2.7998" y="13.873" width="50.4" height="46.5818" fill="#D08B5B"/>
<path fill-rule="evenodd" clip-rule="evenodd" d="M17.3086 31.8184V33.3458C17.3086 39.2502 22.0951 44.0367 27.9995 44.0367C33.9039 44.0367 38.6904 39.2502 38.6904 33.3458V31.8184C38.6904 37.7228 33.9039 42.5093 27.9995 42.5093C22.0951 42.5093 17.3086 37.7228 17.3086 31.8184Z" fill="black" fill-opacity="0.1"/>
</g>
<path fill-rule="evenodd" clip-rule="evenodd" d="M27.9996 50.3459C30.8464 50.3459 33.1542 48.2091 33.1542 45.5732C33.1542 45.4037 33.1446 45.2362 33.126 45.0713C40.9622 45.8206 47.0905 52.4217 47.0905 60.4542H8.90869C8.90869 52.4217 15.037 45.8206 22.8732 45.0713C22.8546 45.2362 22.8451 45.4037 22.8451 45.5732C22.8451 48.2091 25.1528 50.3459 27.9996 50.3459Z" fill="#909292"/>
<mask id="mask1_199_919" style="mask-type:luminance" maskUnits="userSpaceOnUse" x="8" y="45" width="40" height="16">
<path fill-rule="evenodd" clip-rule="evenodd" d="M27.9996 50.3459C30.8464 50.3459 33.1542 48.2091 33.1542 45.5732C33.1542 45.4037 33.1446 45.2362 33.126 45.0713C40.9622 45.8206 47.0905 52.4217 47.0905 60.4542H8.90869C8.90869 52.4217 15.037 45.8206 22.8732 45.0713C22.8546 45.2362 22.8451 45.4037 22.8451 45.5732C22.8451 48.2091 25.1528 50.3459 27.9996 50.3459Z" fill="white"/>
</mask>
<g mask="url(#mask1_199_919)">
<rect x="2.7998" y="39.4541" width="50.4" height="21" fill="#909292"/>
</g>
<path fill-rule="evenodd" clip-rule="evenodd" d="M34.0397 60.4546C34.6889 58.1484 35.0632 55.4354 35.0632 52.5319C35.0632 49.8779 34.7505 47.383 34.2009 45.2126C41.5154 46.434 47.0905 52.7932 47.0905 60.4546H34.0397ZM22.1504 60.4546H8.90869C8.90869 52.7239 14.5851 46.319 21.9973 45.1807C21.4427 47.3586 21.1269 49.8649 21.1269 52.5319C21.1269 55.4354 21.5012 58.1484 22.1504 60.4546Z" fill="#0C1626"/>
<path fill-rule="evenodd" clip-rule="evenodd" d="M37.354 55.8725L37.9036 55.4603C38.9317 54.6892 40.3487 54.7017 41.3631 55.4907L37.354 55.8725Z" fill="#E6E6E6"/>
<path fill-rule="evenodd" clip-rule="evenodd" d="M22.0813 44.7998C20.9359 50.3362 23.0359 60.4543 23.0359 60.4543H19.9813L17.3086 53.5816L18.454 51.8634L17.3086 50.718L20.9359 44.9907C20.9359 44.9907 21.5165 44.8101 22.0813 44.7998Z" fill="#0C092A"/>
<path fill-rule="evenodd" clip-rule="evenodd" d="M33.9177 44.7998C35.0632 50.3362 32.9632 60.4543 32.9632 60.4543H36.0177L38.6904 53.5816L37.545 51.8634L38.6904 50.718L35.0632 44.9907C35.0632 44.9907 34.4825 44.8101 33.9177 44.7998Z" fill="#0C092A"/>
<path fill-rule="evenodd" clip-rule="evenodd" d="M23.4179 43.5664C22.125 44.444 21.3179 45.6888 21.3179 47.0694C21.3179 48.4823 22.1632 49.7529 23.5095 50.6334L24.6437 49.7399L25.5179 49.8031L25.327 49.2016L25.3418 49.1899C24.1772 48.59 23.4179 47.6063 23.4179 46.4945C23.4179 46.4945 23.4179 46.4945 23.4179 46.4945V43.5664ZM32.5815 46.4945C32.5815 46.4945 32.5815 46.4945 32.5815 46.4945C32.5815 47.6063 31.8222 48.59 30.6576 49.1899L30.6724 49.2016L30.4815 49.8031L31.3557 49.7399L32.4899 50.6334C33.8362 49.7529 34.6815 48.4823 34.6815 47.0694C34.6815 45.6888 33.8744 44.444 32.5815 43.5664V46.4945Z" fill="#0C092A"/>
<path d="M25.3271 35.6357C25.3271 36.6612 26.5028 37.3539 27.9999 37.3539C29.497 37.3539 30.6726 36.6612 30.6726 35.6357C30.6726 35.4249 30.4913 35.2539 30.2908 35.2539C30.044 35.2539 29.9338 35.4267 29.909 35.6357C29.6718 36.1966 29.0849 36.5361 27.9999 36.5903C26.9149 36.5361 26.328 36.1966 26.0908 35.6357C26.0659 35.4267 25.9558 35.2539 25.709 35.2539C25.5085 35.2539 25.3271 35.4249 25.3271 35.6357Z" fill="#0C092A"/>
<path fill-rule="evenodd" clip-rule="evenodd" d="M25.709 31.8184C25.709 32.6618 26.7347 33.3456 27.9999 33.3456C29.2651 33.3456 30.2908 32.6618 30.2908 31.8184" fill="black" fill-opacity="0.16"/>
<ellipse cx="23.0366" cy="28.3818" rx="1.14545" ry="1.14545" fill="#0C092A"/>
<ellipse cx="32.9638" cy="28.3818" rx="1.14545" ry="1.14545" fill="#0C092A"/>
<path d="M20.2932 25.9298C21.0406 24.8781 23.0895 24.2884 24.8545 24.7218C25.0593 24.7721 25.2661 24.6469 25.3164 24.4421C25.3667 24.2373 25.2414 24.0305 25.0366 23.9802C22.9869 23.4769 20.6143 24.1598 19.6707 25.4874C19.5486 25.6593 19.5889 25.8977 19.7608 26.0198C19.9327 26.142 20.171 26.1017 20.2932 25.9298Z" fill="#0C092A"/>
<path d="M35.7073 25.9298C34.9599 24.8781 32.9109 24.2884 31.146 24.7218C30.9412 24.7721 30.7344 24.6469 30.6841 24.4421C30.6338 24.2373 30.7591 24.0305 30.9639 23.9802C33.0136 23.4769 35.3862 24.1598 36.3298 25.4874C36.4519 25.6593 36.4116 25.8977 36.2397 26.0198C36.0678 26.142 35.8295 26.1017 35.7073 25.9298Z" fill="#0C092A"/>
<mask id="mask2_199_919" style="mask-type:luminance" maskUnits="userSpaceOnUse" x="2" y="7" width="52" height="54">
<rect x="2.7998" y="7" width="50.4" height="53.4545" fill="white"/>
</mask>
<g mask="url(#mask2_199_919)">
<path fill-rule="evenodd" clip-rule="evenodd" d="M28.0964 38.6604C25.8987 38.7326 24.9184 39.7831 24.1801 38.7155C23.626 37.9142 23.8579 36.5667 24.3756 35.8086C25.1123 34.7297 26.1118 35.2515 27.2292 35.1284C27.5331 35.095 27.8383 35.0106 28.0964 34.8726C28.3544 35.0106 28.6596 35.095 28.9634 35.1284C30.081 35.2515 31.0803 34.7297 31.8171 35.8086C32.3348 36.5667 32.5666 37.9142 32.0125 38.7155C31.2742 39.7831 30.294 38.5883 28.0964 38.6604ZM38.7655 25.709C38.1118 28.396 37.8114 31.1373 37.3373 33.8553C37.2385 34.4219 37.1304 34.9865 37.0156 35.5503C36.9915 35.6687 36.9677 36.1083 36.851 36.164C36.4976 36.3328 35.7774 35.4352 35.5849 35.2325C35.1012 34.7236 34.6216 34.21 34.0326 33.8106C32.8423 33.0037 31.4488 32.5265 29.9988 32.4133C29.3921 32.3659 28.5718 32.4486 28 32.7937C27.4282 32.4486 26.6079 32.3659 26.0011 32.4133C24.5511 32.5265 23.1576 33.0037 21.9673 33.8106C21.3783 34.21 20.8988 34.7236 20.415 35.2325C20.2225 35.4352 19.5023 36.3328 19.1489 36.164C19.0322 36.1083 19.0084 35.6687 18.9843 35.5503C18.8695 34.9865 18.7614 34.4219 18.6626 33.8553C18.1886 31.1373 17.8882 28.396 17.2344 25.709C17.0442 25.709 16.8773 29.2881 16.8561 29.6216C16.7697 30.976 16.6688 32.3002 16.7977 33.6558C17.02 35.9942 17.2517 38.9264 19.0335 40.7121C20.6435 42.3256 22.981 42.6629 24.9972 43.6814C25.2568 43.8126 25.6011 43.9745 25.9725 44.1071C26.3637 44.4055 27.1395 44.609 28.0332 44.609C28.9707 44.609 29.7784 44.3851 30.1485 44.0626C30.4732 43.9394 30.7716 43.7982 31.0027 43.6814C33.0187 42.6627 35.3565 42.3256 36.9664 40.7121C38.7482 38.9264 38.9799 35.9942 39.2022 33.6558C39.3311 32.3002 39.2302 30.976 39.1439 29.6216C39.1226 29.2881 38.9557 25.709 38.7655 25.709Z" fill="#0C092A"/>
<mask id="mask3_199_919" style="mask-type:luminance" maskUnits="userSpaceOnUse" x="16" y="25" width="24" height="20">
<path fill-rule="evenodd" clip-rule="evenodd" d="M28.0964 38.6604C25.8987 38.7326 24.9184 39.7831 24.1801 38.7155C23.626 37.9142 23.8579 36.5667 24.3756 35.8086C25.1123 34.7297 26.1118 35.2515 27.2292 35.1284C27.5331 35.095 27.8383 35.0106 28.0964 34.8726C28.3544 35.0106 28.6596 35.095 28.9634 35.1284C30.081 35.2515 31.0803 34.7297 31.8171 35.8086C32.3348 36.5667 32.5666 37.9142 32.0125 38.7155C31.2742 39.7831 30.294 38.5883 28.0964 38.6604ZM38.7655 25.709C38.1118 28.396 37.8114 31.1373 37.3373 33.8553C37.2385 34.4219 37.1304 34.9865 37.0156 35.5503C36.9915 35.6687 36.9677 36.1083 36.851 36.164C36.4976 36.3328 35.7774 35.4352 35.5849 35.2325C35.1012 34.7236 34.6216 34.21 34.0326 33.8106C32.8423 33.0037 31.4488 32.5265 29.9988 32.4133C29.3921 32.3659 28.5718 32.4486 28 32.7937C27.4282 32.4486 26.6079 32.3659 26.0011 32.4133C24.5511 32.5265 23.1576 33.0037 21.9673 33.8106C21.3783 34.21 20.8988 34.7236 20.415 35.2325C20.2225 35.4352 19.5023 36.3328 19.1489 36.164C19.0322 36.1083 19.0084 35.6687 18.9843 35.5503C18.8695 34.9865 18.7614 34.4219 18.6626 33.8553C18.1886 31.1373 17.8882 28.396 17.2344 25.709C17.0442 25.709 16.8773 29.2881 16.8561 29.6216C16.7697 30.976 16.6688 32.3002 16.7977 33.6558C17.02 35.9942 17.2517 38.9264 19.0335 40.7121C20.6435 42.3256 22.981 42.6629 24.9972 43.6814C25.2568 43.8126 25.6011 43.9745 25.9725 44.1071C26.3637 44.4055 27.1395 44.609 28.0332 44.609C28.9707 44.609 29.7784 44.3851 30.1485 44.0626C30.4732 43.9394 30.7716 43.7982 31.0027 43.6814C33.0187 42.6627 35.3565 42.3256 36.9664 40.7121C38.7482 38.9264 38.9799 35.9942 39.2022 33.6558C39.3311 32.3002 39.2302 30.976 39.1439 29.6216C39.1226 29.2881 38.9557 25.709 38.7655 25.709Z" fill="white"/>
</mask>
<g mask="url(#mask3_199_919)">
<rect x="11.9634" y="20.7451" width="32.0727" height="29.0182" fill="#0C092A"/>
</g>
<path fill-rule="evenodd" clip-rule="evenodd" d="M20.6028 16.931C20.6263 16.9206 20.568 16.9166 20.428 16.919C20.5982 16.9187 20.6565 16.9227 20.6028 16.931ZM19.0497 13.9298C19.0493 13.9261 19.0529 13.9587 19.0497 13.9298V13.9298ZM39.6006 20.5094C39.5501 19.8762 39.4608 19.2468 39.3107 18.6281C39.1915 18.1363 39.0286 17.6671 38.836 17.198C38.7196 16.9145 38.4479 16.5252 38.416 16.2194C38.3845 15.9183 38.6196 15.5846 38.6697 15.2339C38.7184 14.8927 38.7101 14.5339 38.6401 14.1957C38.4811 13.4277 37.954 12.7135 37.1401 12.5133C36.9584 12.4686 36.5743 12.5237 36.4459 12.4179C36.2987 12.2965 36.1962 11.8832 36.0629 11.7174C35.6829 11.2447 35.0903 10.9403 34.4653 11.0464C34.005 11.1245 34.2693 11.2197 33.9242 10.9488C33.7324 10.7982 33.589 10.5683 33.4027 10.4053C33.1226 10.1604 32.8012 9.9507 32.4688 9.77865C31.5988 9.32848 30.6067 9.00125 29.6349 8.84175C27.8623 8.55077 25.9704 8.80446 24.2522 9.26546C23.3972 9.49484 22.5364 9.78594 21.7423 10.1709C21.4019 10.336 21.2053 10.4729 20.8503 10.5162C20.2912 10.5842 19.8177 10.5808 19.288 10.818C17.6584 11.5476 16.9244 13.2404 17.5585 14.8603C17.6861 15.1861 17.8588 15.4722 18.0969 15.7353C18.3872 16.0562 18.4922 15.993 18.2422 16.362C17.8682 16.9137 17.553 17.5021 17.2963 18.113C16.6226 19.7169 16.5099 21.5234 16.5537 23.234C16.5691 23.8328 16.5948 24.439 16.6892 25.0321C16.73 25.2889 16.7414 25.7716 16.934 25.962C17.0317 26.0586 17.1709 26.1125 17.3097 26.074C17.6361 25.9836 17.5239 25.7428 17.5315 25.5192C17.5696 24.396 17.5181 23.4023 17.7852 22.2926C17.9825 21.4728 18.3114 20.7281 18.7376 19.995C19.2795 19.0626 19.8645 18.2437 20.6098 17.4453C20.785 17.2575 20.8233 17.1779 21.0582 17.1643C21.2361 17.1541 21.4964 17.2759 21.6694 17.3181C22.0508 17.411 22.4329 17.5029 22.8212 17.5655C23.5352 17.6806 24.2422 17.6883 24.9626 17.6658C26.3804 17.6214 27.8042 17.522 29.1788 17.1649C30.0917 16.9279 30.9011 16.5023 31.7755 16.1904C31.7911 16.1848 32.0103 16.0287 32.0487 16.035C32.1023 16.0439 32.4261 16.3836 32.4808 16.4264C32.9057 16.7596 33.3717 16.8995 33.8306 17.1575C34.3963 17.4756 33.8485 17.0204 34.1605 17.4169C34.2514 17.5324 34.298 17.7465 34.371 17.8773C34.6031 18.294 34.9261 18.6602 35.3123 18.9508C35.6856 19.2316 36.2465 19.3672 36.4368 19.7327C36.5836 20.0146 36.633 20.3978 36.7515 20.6988C37.0622 21.4883 37.4725 22.2245 37.8828 22.9681C38.2133 23.5673 38.5749 24.0907 38.6116 24.7755C38.6244 25.0138 38.3976 26.4436 38.95 26.0087C39.0319 25.9443 39.2085 25.2153 39.2448 25.0916C39.392 24.589 39.4443 24.0643 39.511 23.5479C39.6436 22.5209 39.6871 21.5438 39.6006 20.5094Z" fill="#28354B"/>
<mask id="mask4_199_919" style="mask-type:luminance" maskUnits="userSpaceOnUse" x="16" y="8" width="24" height="19">
<path fill-rule="evenodd" clip-rule="evenodd" d="M20.6028 16.931C20.6263 16.9206 20.568 16.9166 20.428 16.919C20.5982 16.9187 20.6565 16.9227 20.6028 16.931ZM19.0497 13.9298C19.0493 13.9261 19.0529 13.9587 19.0497 13.9298V13.9298ZM39.6006 20.5094C39.5501 19.8762 39.4608 19.2468 39.3107 18.6281C39.1915 18.1363 39.0286 17.6671 38.836 17.198C38.7196 16.9145 38.4479 16.5252 38.416 16.2194C38.3845 15.9183 38.6196 15.5846 38.6697 15.2339C38.7184 14.8927 38.7101 14.5339 38.6401 14.1957C38.4811 13.4277 37.954 12.7135 37.1401 12.5133C36.9584 12.4686 36.5743 12.5237 36.4459 12.4179C36.2987 12.2965 36.1962 11.8832 36.0629 11.7174C35.6829 11.2447 35.0903 10.9403 34.4653 11.0464C34.005 11.1245 34.2693 11.2197 33.9242 10.9488C33.7324 10.7982 33.589 10.5683 33.4027 10.4053C33.1226 10.1604 32.8012 9.9507 32.4688 9.77865C31.5988 9.32848 30.6067 9.00125 29.6349 8.84175C27.8623 8.55077 25.9704 8.80446 24.2522 9.26546C23.3972 9.49484 22.5364 9.78594 21.7423 10.1709C21.4019 10.336 21.2053 10.4729 20.8503 10.5162C20.2912 10.5842 19.8177 10.5808 19.288 10.818C17.6584 11.5476 16.9244 13.2404 17.5585 14.8603C17.6861 15.1861 17.8588 15.4722 18.0969 15.7353C18.3872 16.0562 18.4922 15.993 18.2422 16.362C17.8682 16.9137 17.553 17.5021 17.2963 18.113C16.6226 19.7169 16.5099 21.5234 16.5537 23.234C16.5691 23.8328 16.5948 24.439 16.6892 25.0321C16.73 25.2889 16.7414 25.7716 16.934 25.962C17.0317 26.0586 17.1709 26.1125 17.3097 26.074C17.6361 25.9836 17.5239 25.7428 17.5315 25.5192C17.5696 24.396 17.5181 23.4023 17.7852 22.2926C17.9825 21.4728 18.3114 20.7281 18.7376 19.995C19.2795 19.0626 19.8645 18.2437 20.6098 17.4453C20.785 17.2575 20.8233 17.1779 21.0582 17.1643C21.2361 17.1541 21.4964 17.2759 21.6694 17.3181C22.0508 17.411 22.4329 17.5029 22.8212 17.5655C23.5352 17.6806 24.2422 17.6883 24.9626 17.6658C26.3804 17.6214 27.8042 17.522 29.1788 17.1649C30.0917 16.9279 30.9011 16.5023 31.7755 16.1904C31.7912 16.1848 32.0103 16.0287 32.0487 16.035C32.1024 16.0439 32.4261 16.3836 32.4808 16.4264C32.9057 16.7596 33.3717 16.8995 33.8306 17.1575C34.3963 17.4756 33.8485 17.0204 34.1605 17.4169C34.2514 17.5324 34.298 17.7465 34.371 17.8773C34.6031 18.294 34.9261 18.6602 35.3123 18.9508C35.6856 19.2316 36.2465 19.3672 36.4368 19.7327C36.5836 20.0146 36.633 20.3978 36.7515 20.6988C37.0622 21.4883 37.4725 22.2245 37.8828 22.9681C38.2133 23.5673 38.5749 24.0907 38.6116 24.7755C38.6244 25.0138 38.3976 26.4436 38.95 26.0087C39.0319 25.9443 39.2085 25.2153 39.2448 25.0916C39.392 24.589 39.4443 24.0643 39.511 23.5479C39.6436 22.5209 39.6871 21.5438 39.6006 20.5094Z" fill="white"/>
</mask>
<g mask="url(#mask4_199_919)">
<rect x="2.7998" y="7" width="50.4" height="53.4545" fill="#0C092A"/>
</g>
</g>
</g>
<mask id="mask5_199_919" style="mask-type:alpha" maskUnits="userSpaceOnUse" x="40" y="40" width="20" height="20">
<rect x="40" y="40" width="20" height="20" rx="4" fill="#C4C4C4"/>
</mask>
<g mask="url(#mask5_199_919)">
<mask id="mask6_199_919" style="mask-type:luminance" maskUnits="userSpaceOnUse" x="37" y="40" width="26" height="20">
<rect x="37" y="40" width="26" height="20" rx="2" fill="white"/>
</mask>
<g mask="url(#mask6_199_919)">
<path fill-rule="evenodd" clip-rule="evenodd" d="M54 40H63V60H54V40Z" fill="#C51918"/>
<path fill-rule="evenodd" clip-rule="evenodd" d="M37 40H46V60H37V40Z" fill="#5EAA22"/>
<path fill-rule="evenodd" clip-rule="evenodd" d="M46 40H54V60H46V40Z" fill="white"/>
</g>
<rect x="37" y="40" width="26" height="20" rx="2" fill="url(#paint0_linear_199_919)" style="mix-blend-mode:overlay"/>
</g>
<defs>
<linearGradient id="paint0_linear_199_919" x1="50" y1="40" x2="50" y2="60" gradientUnits="userSpaceOnUse">
<stop stop-color="white" stop-opacity="0.7"/>
<stop offset="1" stop-opacity="0.3"/>
</linearGradient>
<clipPath id="clip0_199_919">
<rect width="56" height="56" rx="28" fill="white"/>
</clipPath>
</defs>
</svg>
