<svg width="100" height="100" viewBox="0 0 100 100" fill="none" xmlns="http://www.w3.org/2000/svg">
<mask id="mask0_199_1675" style="mask-type:alpha" maskUnits="userSpaceOnUse" x="0" y="0" width="100" height="100">
<rect width="100" height="100" rx="24" fill="#6A5AE0"/>
</mask>
<g mask="url(#mask0_199_1675)">
<path d="M103 72.1225C103 86.1463 97.384 99.5957 87.3883 109.512C77.3926 119.429 63.8358 125 49.6998 125C48.9708 125 48.2556 124.986 47.5266 124.959C43.633 124.801 39.7683 124.225 36 123.24C36.729 122.871 37.4443 122.503 38.1595 122.107C38.1733 122.107 38.187 122.093 38.2145 122.08L38.2283 122.066C38.9848 121.657 39.7276 121.247 40.4566 120.824C40.6354 120.715 40.8142 120.62 40.993 120.524C41.6808 120.115 42.3685 119.705 43.0425 119.269C43.2418 119.162 43.4346 119.043 43.6202 118.914C44.1429 118.6 44.6656 118.259 45.1745 117.918C45.5321 117.686 45.9035 117.44 46.2474 117.208C46.7701 116.853 47.279 116.499 47.7879 116.13C48.1318 115.898 48.4482 115.666 48.7783 115.407C49.2184 115.107 49.6448 114.779 50.0712 114.452C50.4564 114.179 50.8277 113.892 51.1991 113.592C51.7218 113.196 52.2307 112.787 52.7397 112.35C52.9597 112.187 53.1798 112.009 53.3999 111.818C53.9501 111.368 54.4865 110.904 55.023 110.426C55.3118 110.181 55.6007 109.935 55.8895 109.662C56.2059 109.389 56.5085 109.116 56.8111 108.83C57.3888 108.311 57.9528 107.765 58.5167 107.22C58.5922 107.158 58.6614 107.09 58.723 107.015C59.2732 106.496 59.8097 105.95 60.3323 105.405C60.7037 105.05 61.0476 104.681 61.3777 104.313C61.7766 103.917 62.148 103.508 62.5194 103.098C62.7394 102.867 62.9458 102.635 63.1383 102.403C63.6335 101.857 64.1149 101.297 64.5964 100.738C64.8439 100.451 65.0915 100.151 65.3254 99.8508C65.683 99.4414 66.0269 99.032 66.3432 98.609C66.6733 98.2133 66.9897 97.8039 67.2923 97.3945C67.5812 97.0397 67.8563 96.6713 68.1176 96.3165C68.4752 95.8526 68.8191 95.3886 69.1492 94.911C69.4793 94.4334 69.837 93.9558 70.1671 93.4646C70.3309 93.2503 70.4825 93.0271 70.621 92.7959C71.0886 92.1136 71.5426 91.4177 71.9827 90.7217C72.5467 89.8621 73.0831 88.9887 73.592 88.1017C73.8259 87.7197 74.0459 87.3376 74.266 86.9555C76.0498 83.8346 77.6393 80.608 79.0252 77.2943C79.2315 76.8303 79.4241 76.3664 79.6029 75.8888C79.823 75.3839 80.0156 74.8653 80.2081 74.3468C80.3732 73.9238 80.5382 73.4871 80.6895 73.0504C80.8684 72.5728 81.0334 72.0816 81.1985 71.604C81.8037 69.8573 82.3539 68.097 82.8353 66.3094C82.9591 65.8591 83.0829 65.4224 83.1929 64.9721C83.2755 64.6856 83.3442 64.4126 83.413 64.1261L83.7431 62.7342C84.1833 60.8374 84.5547 58.927 84.871 56.9893L85.0773 55.6793C85.1049 55.4746 85.1324 55.2836 85.1599 55.0789C85.2424 54.5604 85.3112 54.0418 85.3662 53.5233C85.4625 52.7455 85.5588 51.9677 85.6275 51.1899C85.6551 50.9852 85.6688 50.7805 85.6826 50.5758C85.7376 50.0436 85.7788 49.4978 85.8201 48.9656C85.8614 48.4334 85.8889 47.8739 85.9164 47.3281C85.9439 46.946 85.9577 46.5639 85.9714 46.1682C86.0264 44.9128 86.0539 43.6574 86.0539 42.402C86.0539 41.7606 86.0539 41.1329 86.0264 40.5052C86.0264 40.1777 86.0264 39.8638 86.0127 39.5363C85.9714 38.4037 85.9164 37.2848 85.8339 36.1658V36.1249C85.8201 35.852 85.8064 35.5791 85.7788 35.3061C85.7238 34.5556 85.655 33.8187 85.5863 33.0682C85.5867 33.0448 85.582 33.0214 85.5725 33C87.4257 34.6745 89.1585 36.4756 90.7581 38.3901L90.7994 38.431C90.8069 38.4384 90.8117 38.448 90.8131 38.4583C98.7092 47.9259 103.02 59.8343 103 72.1225Z" fill="#FF8FA2"/>
<path d="M86 42.1581C86.0074 58.4815 81.5711 74.5033 73.1605 88.5277C64.75 102.552 52.678 114.058 38.2224 121.826C38.2045 121.847 38.1804 121.862 38.1536 121.867L38.14 121.881C37.4254 122.263 36.7109 122.632 35.9964 123C31.512 121.826 27.2051 120.064 23.1897 117.76C20.2848 116.098 17.5429 114.17 15 112.001C15.4809 111.496 15.9481 110.991 16.4153 110.473L16.4289 110.459C16.4289 110.445 16.4428 110.432 16.4566 110.418H16.4702C31.5066 93.8213 39.8103 72.2761 39.7752 49.9503C39.7774 40.333 38.2469 30.7759 35.2405 21.6338H35.2269C35.2269 21.6065 35.2131 21.5792 35.2131 21.5519H35.1992C35.1914 21.53 35.1867 21.507 35.1856 21.4837C34.9108 20.6512 34.6223 19.8188 34.3199 19.0001H49.6825C62.9382 18.9818 75.7214 23.8885 85.519 32.7557C85.629 33.7928 85.7114 34.8299 85.7801 35.8807C85.9313 37.955 86 40.0429 86 42.1581Z" fill="#9087E5"/>
<path d="M40 49.95C40 50.8643 39.9864 51.7786 39.9591 52.6792C39.9455 53.266 39.9182 53.8392 39.8909 54.426C39.7819 56.7731 39.5774 59.1067 39.2774 61.4266C39.2093 62.027 39.1275 62.6138 39.032 63.2006C38.9366 63.9238 38.8139 64.6335 38.6912 65.3567C38.5821 66.039 38.4594 66.7077 38.3231 67.39C38.2958 67.5538 38.2549 67.7175 38.2276 67.8813C38.1186 68.4408 37.9959 69.0139 37.8732 69.5734C37.2328 72.4818 36.4456 75.3557 35.5146 78.1843C35.3373 78.7438 35.1465 79.2897 34.9556 79.8219C34.939 79.8875 34.9162 79.9515 34.8874 80.0129C34.6966 80.5724 34.5057 81.1046 34.3012 81.6505C34.2467 81.8142 34.1785 81.9916 34.1103 82.169C33.8922 82.7558 33.6604 83.329 33.4287 83.9021C33.1696 84.5572 32.897 85.2122 32.6107 85.8536C32.3244 86.5222 32.0244 87.1909 31.7245 87.8596C31.4382 88.4737 31.1382 89.0877 30.8519 89.6882C30.5384 90.3296 30.2248 90.9573 29.8976 91.5714C29.5704 92.1855 29.2432 92.8132 28.9023 93.4273C28.5615 94.0414 28.2207 94.6555 27.8798 95.2559C27.539 95.8563 27.1709 96.4704 26.8028 97.0709C26.4347 97.6713 26.0666 98.2581 25.6848 98.8449C24.935 100.018 24.1579 101.178 23.3535 102.311C22.5491 103.444 21.7039 104.563 20.8586 105.668C19.577 107.292 18.2501 108.875 16.8776 110.417H16.864C16.8503 110.431 16.8503 110.431 16.8503 110.444C16.8503 110.448 16.849 110.451 16.8464 110.454C16.8438 110.456 16.8404 110.458 16.8367 110.458C16.3732 110.977 15.896 111.495 15.4188 112C13.2707 110.152 11.2738 108.135 9.44741 105.968C9.43356 105.942 9.41506 105.919 9.39287 105.9C1.37516 96.3821 -3.01538 84.3294 -2.99996 71.8797V19H34.5875C34.8874 19.8188 35.1737 20.6376 35.4328 21.47L35.4464 21.4836C35.4476 21.5069 35.4523 21.5299 35.46 21.5519H35.4737V21.5928C35.4729 21.6002 35.4735 21.6077 35.4759 21.6148C35.4783 21.6219 35.4823 21.6283 35.4873 21.6337H35.5009C35.5131 21.6858 35.5314 21.7362 35.5555 21.7838L35.7191 22.3161C36.1826 23.7626 36.6053 25.2227 36.987 26.7102C37.2597 27.7064 37.5051 28.7298 37.7368 29.7533C38.1595 31.6092 38.5276 33.5061 38.8412 35.4302C38.9093 35.8942 38.9911 36.3445 39.0457 36.8085C39.2093 37.9412 39.3592 39.0738 39.4819 40.2201C39.5365 40.6431 39.5774 41.0798 39.6046 41.5029C39.6864 42.2943 39.741 43.0995 39.7955 43.891C39.9318 45.897 40 47.9167 40 49.95Z" fill="#C4D0FB"/>
</g>
<rect width="100" height="92" rx="24" fill="#09074A"/>
<mask id="mask1_199_1675" style="mask-type:alpha" maskUnits="userSpaceOnUse" x="23" y="19" width="54" height="63">
<path fill-rule="evenodd" clip-rule="evenodd" d="M48.1306 66.9734C49.982 66.8861 51.8026 66.5855 53.5595 66.0863L56.0389 68.5884C58.3714 70.9421 62.1618 70.9507 64.505 68.6076C66.8481 66.2644 66.8567 62.4568 64.5242 60.1031L61.7086 57.2619C61.1633 56.7115 60.5382 56.2894 59.8706 55.9956C57.9992 54.7387 55.3946 54.9317 53.2902 55.9536C51.5503 56.7984 49.6432 57.2914 47.6784 57.3841C44.0979 57.5529 40.5831 56.3803 37.8212 54.0954C35.0592 51.8106 33.2488 48.5778 32.7437 45.029C32.2387 41.4803 33.0753 37.8707 35.0901 34.906C37.1049 31.9414 40.153 29.8347 43.6385 28.9979C47.1239 28.1611 50.7962 28.6544 53.9373 30.3812C57.0785 32.1081 59.4626 34.9444 60.6237 38.3356C61.2608 40.1966 61.5046 42.1512 61.3595 44.08C61.1607 46.7235 62.188 49.5725 64.621 50.6253C67.0539 51.6781 69.9324 50.5592 70.4808 47.9655C71.3711 43.7556 71.119 39.3526 69.7061 35.226C67.771 29.5739 63.7974 24.8468 58.5622 21.9687C53.3269 19.0906 47.2065 18.2685 41.3974 19.6632C35.5883 21.0578 30.5081 24.5689 27.1501 29.51C23.7921 34.4512 22.3977 40.4671 23.2395 46.3817C24.0813 52.2963 27.0987 57.6843 31.7019 61.4924C36.3051 65.3005 42.1631 67.2548 48.1306 66.9734ZM66.2426 71.2427C63.8995 73.5858 63.8909 77.3934 66.2234 79.7472C68.5559 82.1009 72.3462 82.1095 74.6894 79.7663C77.0325 77.4232 77.0411 73.6156 74.7087 71.2619C72.3761 68.9081 68.5858 68.8995 66.2426 71.2427Z" fill="white"/>
</mask>
<g mask="url(#mask1_199_1675)">
<path fill-rule="evenodd" clip-rule="evenodd" d="M55.4834 101L104 52.203L93.5099 42L38 98.3383L55.4834 101Z" fill="white"/>
<path fill-rule="evenodd" clip-rule="evenodd" d="M45.9536 88L93 41.6842L82.8278 32L29 85.4737L45.9536 88Z" fill="white"/>
<path fill-rule="evenodd" clip-rule="evenodd" d="M31.8031 86.0276L87.0871 30.3412L77.3972 19.9314L22.1132 75.6178L31.8031 86.0276Z" fill="white"/>
<path fill-rule="evenodd" clip-rule="evenodd" d="M21.8207 77L77 21.156L62.6621 15L14 64.2482L21.8207 77Z" fill="white"/>
<path fill-rule="evenodd" clip-rule="evenodd" d="M14 65L64 15L37.2143 17.6786L14 43.125V65Z" fill="white"/>
</g>
</svg>
