<svg width="466" height="503" viewBox="0 0 466 503" fill="none" xmlns="http://www.w3.org/2000/svg">
<path opacity="0.1" fill-rule="evenodd" clip-rule="evenodd" d="M98.9375 458.25C130.866 458.25 156.75 432.366 156.75 400.438C156.75 368.509 130.866 342.625 98.9375 342.625C67.0085 342.625 41.125 368.509 41.125 400.438C41.125 432.366 67.0085 458.25 98.9375 458.25Z" fill="#C4D0FB"/>
<path opacity="0.3" fill-rule="evenodd" clip-rule="evenodd" d="M100.5 502C155.728 502 200.5 457.228 200.5 402C200.5 346.772 155.728 302 100.5 302C45.2715 302 0.5 346.772 0.5 402C0.5 457.228 45.2715 502 100.5 502Z" stroke="#C4D0FB"/>
<path opacity="0.1" fill-rule="evenodd" clip-rule="evenodd" d="M363.938 295.25C395.866 295.25 421.75 269.366 421.75 237.438C421.75 205.509 395.866 179.625 363.938 179.625C332.009 179.625 306.125 205.509 306.125 237.438C306.125 269.366 332.009 295.25 363.938 295.25Z" fill="#C4D0FB"/>
<path opacity="0.3" fill-rule="evenodd" clip-rule="evenodd" d="M365.5 339C420.728 339 465.5 294.228 465.5 239C465.5 183.772 420.728 139 365.5 139C310.272 139 265.5 183.772 265.5 239C265.5 294.228 310.272 339 365.5 339Z" stroke="#C4D0FB"/>
<path opacity="0.1" fill-rule="evenodd" clip-rule="evenodd" d="M83.5 32C92.3366 32 99.5 24.8366 99.5 16C99.5 7.16344 92.3366 0 83.5 0C74.6634 0 67.5 7.16344 67.5 16C67.5 24.8366 74.6634 32 83.5 32Z" fill="#C4D0FB"/>
<path opacity="0.2" fill-rule="evenodd" clip-rule="evenodd" d="M321.5 362C327.023 362 331.5 357.523 331.5 352C331.5 346.477 327.023 342 321.5 342C315.977 342 311.5 346.477 311.5 352C311.5 357.523 315.977 362 321.5 362Z" fill="#C4D0FB"/>
</svg>
