<svg width="24" height="24" viewBox="0 0 24 24" fill="none" xmlns="http://www.w3.org/2000/svg">
<g clip-path="url(#clip0_81_2050)">
<path d="M12 21C16.9706 21 21 16.9706 21 12C21 7.02944 16.9706 3 12 3C7.02944 3 3 7.02944 3 12C3 16.9706 7.02944 21 12 21Z" stroke="#0C092A" stroke-width="2" stroke-linecap="round" stroke-linejoin="round"/>
<path d="M5.65039 5.6499L18.3504 18.3499" stroke="#0C092A" stroke-width="2" stroke-linecap="round" stroke-linejoin="round"/>
<path d="M5.65039 18.3499L18.3504 5.6499" stroke="#0C092A" stroke-width="2" stroke-linecap="round" stroke-linejoin="round"/>
<path d="M12 3C12 5.38695 12.9482 7.67613 14.636 9.36396C16.3239 11.0518 18.6131 12 21 12" stroke="#0C092A" stroke-width="2" stroke-linecap="round" stroke-linejoin="round"/>
<path d="M3 12C5.38695 12 7.67613 12.9482 9.36396 14.636C11.0518 16.3239 12 18.6131 12 21" stroke="#0C092A" stroke-width="2" stroke-linecap="round" stroke-linejoin="round"/>
</g>
<defs>
<clipPath id="clip0_81_2050">
<rect width="24" height="24" fill="white"/>
</clipPath>
</defs>
</svg>
