<svg width="64" height="56" viewBox="0 0 64 56" fill="none" xmlns="http://www.w3.org/2000/svg">
<path d="M63.7972 30.7503C63.4067 34.8008 62.134 38.7168 60.0687 42.2236C58.0045 45.7302 55.1981 48.7429 51.846 51.0501C48.4939 53.3573 44.6772 54.9033 40.664 55.5796C36.6521 56.2558 32.5401 56.046 28.6164 54.9649C24.6938 53.8836 21.0547 51.9573 17.9543 49.3209C14.8551 46.6846 12.3686 43.4019 10.6714 39.7032C8.97534 36.0045 8.10731 31.9794 8.13084 27.9101C8.15436 23.8408 9.06708 19.8258 10.8067 16.1468C15.6949 5.83638 26.6557 -0.81846 38.6716 0.328317C54.0137 1.79149 65.2639 15.4128 63.7972 30.7503Z" fill="#C4D0FB"/>
<path d="M8.92465 13.8464L9.6433 12.5396C9.94557 11.8873 10.2137 11.2199 10.4478 10.5401C10.8101 9.47332 10.683 7.95251 12.2697 6.51639C13.8564 5.08028 11.5099 5.47665 10.7171 6.13884C10.0561 6.69047 9.51862 8.25597 8.86114 8.60882C8.71058 8.39629 8.59179 8.1634 8.50828 7.91723L7.07099 1.18241C7.04982 1.07455 6.99101 0.977754 6.90515 0.909888C6.81811 0.84214 6.7099 0.807678 6.60051 0.813088L6.33705 0.821322C6.27354 0.824733 6.2112 0.841434 6.15357 0.870368C6.09711 0.899303 6.04653 0.939763 6.00654 0.98928C5.96538 1.0388 5.93597 1.0962 5.91951 1.15783C5.90186 1.21946 5.89833 1.28391 5.90774 1.34707C6.12887 2.7879 6.89691 7.07508 6.81928 7.07743L6.6605 7.15271L4.45634 0.330854C4.42575 0.223116 4.35636 0.13055 4.26227 0.0705648C4.167 0.0106972 4.05408 -0.0122384 3.94352 0.0062277L3.59067 0.0650368C3.5295 0.0746815 3.4707 0.0966761 3.41894 0.129844C3.36601 0.162895 3.32132 0.206296 3.28603 0.25746C3.25193 0.308506 3.22723 0.366257 3.21546 0.427066C3.2037 0.487757 3.20488 0.550329 3.21782 0.610785C3.55656 2.17981 5.14087 7.40088 5.06089 7.40559L4.86682 7.47145L2.47565 1.82578C2.44271 1.71334 2.36744 1.61795 2.26511 1.55926C2.16396 1.50057 2.04399 1.48316 1.9299 1.51056L1.64879 1.57996C1.58998 1.59431 1.5347 1.62007 1.48648 1.6557C1.43825 1.69134 1.39709 1.73627 1.36533 1.78779C1.33475 1.83942 1.31358 1.89659 1.30417 1.95622C1.29476 2.01573 1.29829 2.07654 1.3124 2.13512L3.46364 7.68905L3.26604 7.81372L1.01248 3.80177C0.968957 3.6985 0.888977 3.61475 0.787825 3.56618C0.68785 3.5176 0.572584 3.50772 0.464375 3.5383L0.33029 3.57829C0.215025 3.61205 0.118578 3.68909 0.0597686 3.79318C0.000959497 3.89727 -0.015507 4.02018 0.0150737 4.1358C0.231491 4.95913 1.30887 6.68694 1.93578 8.48767C2.42625 9.88263 2.46036 11 3.26957 12.689C3.61066 13.4053 4.25991 14.2557 4.61394 14.7297" fill="#FFCCD7"/>
<path d="M49.7898 52.3696C44.5593 55.3355 38.5102 56.5321 32.5434 55.7814C26.5778 55.0307 21.0133 52.3728 16.6803 48.2036L17.0166 39.5786L6.21929 37.7956C4.62557 37.3578 3.24002 36.3664 2.31202 34.9992C1.38401 33.632 0.973523 31.9787 1.15465 30.3362L2.03797 13.4062L10.5688 13.9943L10.804 16.1491L12.1225 27.5204C12.1225 27.5204 21.0474 28.6366 33.2268 31.7547C45.0827 34.7904 48.5748 45.3184 49.7898 52.3696Z" fill="#6A5AE0"/>
<path d="M16.899 39.4696L16.9989 36.5303" stroke="#C4D0FB" stroke-linecap="square"/>
<path d="M40.5008 21.1977C43.7705 17.0291 43.3048 11.2051 39.4598 8.18951C35.6161 5.1739 29.8481 6.10861 26.5783 10.2772C23.3085 14.4459 23.7743 20.2698 27.6192 23.2855C31.4642 26.3011 37.231 25.3664 40.5008 21.1977Z" fill="#001833"/>
<path d="M27.6108 35.1258C26.9686 34.661 26.4958 33.9996 26.2641 33.242C26.0312 32.4843 26.0524 31.6716 26.3229 30.9268L30.5689 19.2685C30.7136 18.7956 30.9535 18.3571 31.2734 17.9797C31.5922 17.6023 31.9862 17.2939 32.4284 17.0733C32.8719 16.8526 33.3541 16.7244 33.8481 16.6963C34.3421 16.6682 34.8361 16.7409 35.3007 16.9099C35.7665 17.0789 36.1911 17.3409 36.5521 17.6795C36.9121 18.0182 37.2002 18.4267 37.3978 18.8803C37.5954 19.3337 37.6989 19.8226 37.7013 20.3172C37.7036 20.8118 37.606 21.3018 37.4131 21.7573L33.1659 33.4168C32.9718 33.9454 32.659 34.422 32.2508 34.8093C31.8427 35.1966 31.3499 35.4841 30.8124 35.6493C30.2737 35.8144 29.7044 35.8528 29.1493 35.7614C28.5941 35.67 28.0672 35.4512 27.6108 35.1223V35.1258Z" fill="#FFCCD7"/>
<path d="M28.3315 28.6254L27.6258 28.3631C26.8049 28.0584 26.0615 27.5767 25.4487 26.952C24.8347 26.3273 24.3678 25.5753 24.0773 24.7491C23.7879 23.9231 23.6844 23.0433 23.7738 22.1726C23.8632 21.3017 24.1432 20.4614 24.5936 19.7111L26.8284 15.9943C27.5494 14.794 28.6703 13.8861 29.9947 13.4301C31.3179 12.9741 32.7599 12.9992 34.0678 13.5008C35.5427 14.0669 36.7318 15.1957 37.3752 16.6389C38.0174 18.0822 38.0609 19.7215 37.4952 21.1966L35.9661 25.1756C35.4039 26.6401 34.2877 27.8238 32.8575 28.4696C31.4284 29.1155 29.8018 29.1715 28.3315 28.6254Z" fill="#FFCCD7"/>
<path d="M28.8952 18.1025L25.8359 20.5866L27.0368 21.4888" stroke="#24272D" stroke-linecap="square"/>
<path d="M29.6726 19.8579C30.029 19.8579 30.3183 19.5687 30.3183 19.2121C30.3183 18.8555 30.029 18.5664 29.6726 18.5664C29.3162 18.5664 29.0269 18.8555 29.0269 19.2121C29.0269 19.5687 29.3162 19.8579 29.6726 19.8579Z" fill="#24272D"/>
<path d="M26.987 18.4995C27.3434 18.4995 27.6328 18.2103 27.6328 17.8537C27.6328 17.4971 27.3434 17.208 26.987 17.208C26.6306 17.208 26.3413 17.4971 26.3413 17.8537C26.3413 18.2103 26.6306 18.4995 26.987 18.4995Z" fill="#24272D"/>
<path d="M46.5624 38.5248C46.5624 38.5248 43.5843 45.9806 37.7834 42.6684C28.1799 37.1839 30.1523 29.9716 32.8599 26.6724C33.9385 25.3586 35.4475 24.7764 37.0224 24.2988C32.4435 20.261 34.6948 17.0453 34.6948 17.0453C34.6948 17.0453 22.4484 16.2585 26.4086 10.4493C30.3688 4.64013 37.4423 5.40112 41.192 7.92403C49.9075 13.7908 46.9412 19.7705 48.9301 21.9723C60.2061 34.4669 46.5624 38.5248 46.5624 38.5248Z" fill="#001833"/>
<path d="M38.3093 24.8107C39.576 24.0408 39.9783 22.3904 39.2079 21.1244C38.4387 19.8583 36.7885 19.4561 35.5217 20.2258L33.4375 21.4931C32.172 22.2629 31.7697 23.9132 32.5389 25.1794C33.3093 26.4454 34.9595 26.8477 36.2251 26.078L38.3093 24.8107Z" fill="#FFCCD7"/>
<path d="M37.7401 22.1328L34.7832 23.9288" stroke="#24272D" stroke-linecap="square"/>
<path d="M28.8186 23.3089C28.8492 23.7199 28.7163 24.1265 28.4481 24.4391C28.1787 24.7517 27.7977 24.945 27.386 24.9761C26.9755 25.0073 26.5686 24.874 26.2569 24.6054C25.944 24.3369 25.7499 23.9551 25.7194 23.5441C25.6535 22.6879 26.5203 22.6961 27.3754 22.6302C28.2305 22.5644 28.7527 22.4526 28.8186 23.3089Z" fill="#24272D"/>
</svg>
