<svg width="387" height="181" viewBox="0 0 387 181" fill="none" xmlns="http://www.w3.org/2000/svg">
<path d="M33.1633 173.201L75.7736 130.615C79.6064 126.781 82.1218 121.828 82.9566 116.471L86.6014 93.0985L102.547 116.348L77.5285 164.311L104.714 172.363L130.427 130.941C132.777 127.154 133.958 122.757 133.822 118.302C133.687 113.846 132.24 109.53 129.664 105.892L108.082 75.4547L69.5308 51.895L61.2252 64.9206C58.0872 69.844 56.2517 75.4841 55.8918 81.3115L54.099 110.314L5.85458 159.962L33.1633 173.201Z" fill="#09074A"/>
<path fill-rule="evenodd" clip-rule="evenodd" d="M125.619 24.0601C138.382 30.4545 147.372 59.7952 147.372 59.7952L174.098 71.9469L167.424 89.8275L131.812 74.6918L129.149 70.0516L123.016 87.2271L96.0178 77.1548C93.9155 76.3702 92.0673 75.0262 90.6733 73.2677C89.2791 71.5093 88.3922 69.4031 88.1078 67.1772L87.5612 62.9074L69.4646 51.8472C69.4646 51.8472 79.2219 38.4475 82.9212 34.3527C90.2818 26.2058 105.773 14.1133 125.619 24.0601ZM117.45 63.8924L127.858 67.8029L122.251 58.0335L117.45 63.8924Z" fill="#9087E5"/>
<path d="M84.8582 59.8619L71.2405 52.0466" stroke="#6A5AE0" stroke-linecap="square"/>
<path d="M387 100.021L300.846 180.45H267.823L353.979 100.021H387Z" fill="#7F75E1"/>
<path d="M354.443 98.9554L264.251 2.34575H294.359L384.546 98.9554H354.443Z" fill="#7F75E1"/>
<path fill-rule="evenodd" clip-rule="evenodd" d="M261.798 1.2795H294.821L387 100.021H353.979L261.798 1.2795ZM382.093 97.8895L293.896 3.41126H266.705L354.905 97.8895H382.093Z" fill="#9087E5"/>
<path d="M172.139 74.6373C172.139 74.6373 179.431 77.6948 182.631 81.3017C185.83 84.9086 187.841 92.6695 187.841 92.6695C187.841 92.6695 168.421 95.1207 166.552 77.5124" fill="#FFCCD7"/>
<path d="M12.3813 160.971L0 173.554L11.5074 180.45H46.982L28.0949 170.399L12.3813 160.971Z" fill="#162C56"/>
<path d="M82.1964 164.656L74.2744 180.45H119.618L100.731 170.399L82.1964 164.656Z" fill="#162C56"/>
<path d="M143.374 11.2719L124.2 27.3147" stroke="#FFCCD7" stroke-width="2" stroke-linecap="round" stroke-linejoin="round"/>
<path d="M130.375 31.0681L131.533 31.7218C132.88 32.481 134.378 32.9339 135.921 33.0485C137.463 33.1629 139.012 32.936 140.457 32.3842C141.901 31.8321 143.207 30.9687 144.28 29.8551C145.353 28.7415 146.168 27.4051 146.666 25.9408L149.131 18.6891C149.928 16.3466 149.875 13.7981 148.979 11.4914C148.084 9.18465 146.405 7.26728 144.236 6.07556C141.789 4.73203 138.909 4.41491 136.229 5.19432C133.549 5.97396 131.288 7.78594 129.943 10.2319L126.318 16.8323C124.983 19.2615 124.661 22.1186 125.421 24.7839C126.18 27.4491 127.96 29.7073 130.375 31.0681Z" fill="#FFCCD7"/>
<path d="M127.725 21.2433L128.085 21.1886C130.099 20.8834 131.484 19.0037 131.178 16.9901L130.795 14.4591C130.489 12.4456 128.61 11.0606 126.596 11.3659L126.236 11.4206C124.222 11.7259 122.837 13.6056 123.142 15.6191L123.526 18.1504C123.831 20.1639 125.711 21.5486 127.725 21.2433Z" fill="#FFCCD7"/>
<path fill-rule="evenodd" clip-rule="evenodd" d="M125.643 14.3317L127.22 18.5615L125.643 14.3317Z" fill="#0C092A"/>
<path d="M125.643 14.3317L127.22 18.5615" stroke="#0C092A" stroke-linecap="square"/>
<path fill-rule="evenodd" clip-rule="evenodd" d="M143.519 19.347L141.816 25.2488L139.713 24.6544" fill="#0C092A"/>
<path d="M143.519 19.347L141.816 25.2488L139.713 24.6544" stroke="#0C092A" stroke-linecap="square"/>
<path d="M129.674 19.1347L136.722 10.0831L138.394 7.93267C138.726 8.83901 139.206 9.68426 139.815 10.4336C142.01 13.1713 150.844 16.198 154.581 10.6894C157.629 6.18961 151.227 6.80773 148.691 5.37018C144.707 3.11083 142.841 -0.58844 135.796 0.0794178C127.353 0.868058 126.739 11.3454 126.739 11.3454C126.739 11.3454 130.261 11.4567 129.674 19.1347Z" fill="#24272D"/>
<path d="M131.189 31.5389L128.501 28.6283L128.617 33.6514L131.189 31.5389Z" fill="#FFCCD7"/>
<path d="M140.169 19.9582C140.767 19.9582 141.252 19.4737 141.252 18.8759C141.252 18.2782 140.767 17.7936 140.169 17.7936C139.572 17.7936 139.087 18.2782 139.087 18.8759C139.087 19.4737 139.572 19.9582 140.169 19.9582Z" fill="#0C092A"/>
<path d="M146.112 22.5798C146.709 22.5798 147.194 22.0953 147.194 21.4975C147.194 20.8998 146.709 20.4152 146.112 20.4152C145.514 20.4152 145.029 20.8998 145.029 21.4975C145.029 22.0953 145.514 22.5798 146.112 22.5798Z" fill="#0C092A"/>
<path d="M353.979 100.021L267.823 180.45L175.644 81.7114L261.798 1.2795L353.979 100.021Z" fill="#9087E5"/>
<path d="M139.907 68.9246L136.222 74.168" stroke="#C4D0FB" stroke-width="4" stroke-linecap="round"/>
<path d="M147.613 43.3122L150.481 54.0642L160.007 55.1583L156.329 63.059L148.037 69.9057L139.694 69.2284L137.274 62.4361L138.616 54.0334L147.613 43.3122Z" fill="#9087E5"/>
<path fill-rule="evenodd" clip-rule="evenodd" d="M157.59 60.6375C162.587 52.9484 162.99 44.3446 158.49 41.42C153.991 38.4957 146.292 42.3581 141.295 50.0472C136.297 57.7361 135.894 66.3401 140.394 69.2645C144.894 72.1889 152.593 68.3264 157.59 60.6375Z" stroke="#C4D0FB" stroke-width="4"/>
<path d="M167.613 180.451L159.301 167.984L150.986 180.451H167.613Z" fill="#C4D0FB"/>
<path d="M263.271 96.3708L266.48 83.0421L252.943 85.202L263.271 96.3708Z" fill="#C4D0FB"/>
<path d="M243.022 180.451L221.215 147.752L199.405 180.451H243.022Z" fill="#C4D0FB"/>
<path d="M201.158 137.878H183.358V180.45H201.158V137.878Z" fill="#9087E5"/>
<path d="M275.899 93.2184L267.524 100.962L286.045 120.99L294.419 113.246L275.899 93.2184Z" fill="#C4D0FB"/>
<path d="M178.216 180.45C178.216 173.973 180.79 167.761 185.369 163.181C189.949 158.601 196.161 156.028 202.638 156.028C209.115 156.028 215.327 158.601 219.907 163.181C224.488 167.761 227.06 173.973 227.06 180.45" fill="#FFD6DD"/>
<path d="M248.597 80.5041C249.696 79.4874 250.584 78.2642 251.212 76.9041C251.839 75.5439 252.192 74.0737 252.251 72.5772C252.308 71.0809 252.071 69.5875 251.553 68.1826C251.034 66.7777 250.245 65.4887 249.227 64.3891C248.211 63.2895 246.989 62.4009 245.627 61.7742C244.268 61.1474 242.797 60.7945 241.3 60.736C239.806 60.6772 238.311 60.9141 236.907 61.4325C235.503 61.9511 234.212 62.7412 233.113 63.7579L248.597 80.5041Z" fill="#C4D0FB"/>
<path d="M135.429 23.9896C135.429 23.9896 134.872 26.1755 137.16 27.2531L135.429 23.9896Z" fill="#0C092A"/>
<path d="M117.59 63.5746L108.7 60.1027L108.456 40.6211" stroke="#6A5AE0" stroke-linecap="square"/>
<path d="M86.9685 59.788L86.0638 46.1372" stroke="#6A5AE0" stroke-linecap="square"/>
<path d="M55.3207 115.597L53.2674 110.058L58.3142 109.274" stroke="#6A5AE0" stroke-linecap="square"/>
<path d="M106.223 120.372L101.517 116.156L108.037 112.895" stroke="#6A5AE0" stroke-linecap="square"/>
<path d="M87.3165 86.323L85.8056 102.832" stroke="#6A5AE0" stroke-linecap="square"/>
<path d="M128.373 72.754C128.373 72.754 131.333 71.2076 135.909 71.5699L140.826 73.4195C140.826 73.4195 145.19 76.9199 139.206 83.1106C133.221 89.3013 123.343 85.557 123.343 85.557" fill="#FFCCD7"/>
</svg>
