<svg width="375" height="44" viewBox="0 0 375 44" fill="none" xmlns="http://www.w3.org/2000/svg">
<g clip-path="url(#clip0_199_380)">
<path opacity="0.35" d="M336.5 19.9997C336.5 18.8031 337.47 17.833 338.667 17.833H355.333C356.53 17.833 357.5 18.8031 357.5 19.9997V25.9997C357.5 27.1963 356.53 28.1663 355.333 28.1663H338.667C337.47 28.1663 336.5 27.1963 336.5 25.9997V19.9997Z" stroke="white"/>
<path opacity="0.4" d="M359 21V25C359.805 24.6612 360.328 23.8731 360.328 23C360.328 22.1269 359.805 21.3388 359 21Z" fill="white"/>
<path d="M338 20.6663C338 19.93 338.597 19.333 339.333 19.333H354.667C355.403 19.333 356 19.93 356 20.6663V25.333C356 26.0694 355.403 26.6663 354.667 26.6663H339.333C338.597 26.6663 338 26.0694 338 25.333V20.6663Z" fill="white"/>
<path fill-rule="evenodd" clip-rule="evenodd" d="M323.33 19.6074C325.546 19.6075 327.677 20.4589 329.283 21.9857C329.404 22.1036 329.597 22.1021 329.716 21.9824L330.872 20.8157C330.933 20.755 330.966 20.6728 330.966 20.5872C330.965 20.5016 330.931 20.4198 330.87 20.3597C326.655 16.3202 320.005 16.3202 315.79 20.3597C315.729 20.4197 315.694 20.5015 315.693 20.5871C315.693 20.6727 315.726 20.755 315.787 20.8157L316.943 21.9824C317.062 22.1023 317.255 22.1038 317.376 21.9857C318.982 20.4588 321.114 19.6074 323.33 19.6074ZM323.33 23.4031C324.547 23.403 325.721 23.8555 326.624 24.6727C326.746 24.7887 326.938 24.7862 327.057 24.6671L328.212 23.5004C328.273 23.4392 328.307 23.3562 328.306 23.2699C328.305 23.1837 328.269 23.1014 328.207 23.0414C325.459 20.485 321.203 20.485 318.455 23.0414C318.393 23.1014 318.357 23.1837 318.357 23.27C318.356 23.3563 318.39 23.4393 318.451 23.5004L319.605 24.6671C319.724 24.7862 319.916 24.7887 320.038 24.6727C320.94 23.8561 322.113 23.4036 323.33 23.4031ZM325.643 25.9569C325.645 26.0434 325.611 26.1268 325.549 26.1874L323.552 28.2031C323.493 28.2623 323.413 28.2957 323.33 28.2957C323.247 28.2957 323.167 28.2623 323.108 28.2031L321.111 26.1874C321.049 26.1268 321.015 26.0433 321.017 25.9568C321.019 25.8703 321.056 25.7884 321.12 25.7304C322.396 24.6515 324.264 24.6515 325.54 25.7304C325.604 25.7884 325.641 25.8704 325.643 25.9569Z" fill="white"/>
<path fill-rule="evenodd" clip-rule="evenodd" d="M309.667 17.666H308.667C308.114 17.666 307.667 18.1137 307.667 18.666V27.3327C307.667 27.885 308.114 28.3327 308.667 28.3327H309.667C310.219 28.3327 310.667 27.885 310.667 27.3327V18.666C310.667 18.1137 310.219 17.666 309.667 17.666ZM304 19.9993H305C305.552 19.9993 306 20.4471 306 20.9993V27.3327C306 27.885 305.552 28.3327 305 28.3327H304C303.448 28.3327 303 27.885 303 27.3327V20.9993C303 20.4471 303.448 19.9993 304 19.9993ZM300.333 22.3327H299.333C298.781 22.3327 298.333 22.7804 298.333 23.3327V27.3327C298.333 27.885 298.781 28.3327 299.333 28.3327H300.333C300.885 28.3327 301.333 27.885 301.333 27.3327V23.3327C301.333 22.7804 300.885 22.3327 300.333 22.3327ZM295.667 24.3327H294.667C294.114 24.3327 293.667 24.7804 293.667 25.3327V27.3327C293.667 27.885 294.114 28.3327 294.667 28.3327H295.667C296.219 28.3327 296.667 27.885 296.667 27.3327V25.3327C296.667 24.7804 296.219 24.3327 295.667 24.3327Z" fill="white"/>
<path d="M37.3208 28.2568C40.0088 28.2568 41.6055 26.1548 41.6055 22.5952C41.6055 21.2549 41.3491 20.127 40.8584 19.2554C40.1479 17.9004 38.9248 17.168 37.3794 17.168C35.0796 17.168 33.4536 18.7134 33.4536 20.8813C33.4536 22.9175 34.9185 24.397 36.9326 24.397C38.1704 24.397 39.1738 23.8184 39.6719 22.8149H39.6938C39.6938 22.8149 39.7231 22.8149 39.7305 22.8149C39.7451 22.8149 39.7964 22.8149 39.7964 22.8149C39.7964 25.2319 38.8809 26.6748 37.3354 26.6748C36.4272 26.6748 35.7241 26.1768 35.4824 25.3784H33.6001C33.915 27.1143 35.3872 28.2568 37.3208 28.2568ZM37.3867 22.8955C36.1709 22.8955 35.3066 22.0312 35.3066 20.8228C35.3066 19.6436 36.2148 18.7427 37.394 18.7427C38.5732 18.7427 39.4814 19.6582 39.4814 20.8521C39.4814 22.0312 38.5952 22.8955 37.3867 22.8955Z" fill="white"/>
<path d="M44.6966 28.1543C45.3924 28.1543 45.8685 27.6562 45.8685 26.9971C45.8685 26.3306 45.3924 25.8398 44.6966 25.8398C44.0081 25.8398 43.5247 26.3306 43.5247 26.9971C43.5247 27.6562 44.0081 28.1543 44.6966 28.1543ZM44.6966 22.6611C45.3924 22.6611 45.8685 22.1704 45.8685 21.5112C45.8685 20.8447 45.3924 20.354 44.6966 20.354C44.0081 20.354 43.5247 20.8447 43.5247 21.5112C43.5247 22.1704 44.0081 22.6611 44.6966 22.6611Z" fill="white"/>
<path d="M52.7242 28.0005H54.5333V26.0303H55.9615V24.4336H54.5333V17.4316H51.8673C49.9996 20.2441 48.5128 22.5952 47.5606 24.3457V26.0303H52.7242V28.0005ZM49.3111 24.3677C50.5416 22.1997 51.6402 20.4639 52.651 18.9697H52.7535V24.4775H49.3111V24.3677Z" fill="white"/>
<path d="M59.9901 28.0005H61.8798V17.4316H59.9975L57.2362 19.3652V21.1816L59.8656 19.3359H59.9901V28.0005Z" fill="white"/>
</g>
<defs>
<clipPath id="clip0_199_380">
<rect width="375" height="44" fill="white"/>
</clipPath>
</defs>
</svg>
